<?xml version="1.0" encoding="UTF-8"?><svg id="_レイヤー_2" xmlns="http://www.w3.org/2000/svg" viewBox="0 0 294.77 205.1"><defs><style>.cls-1{stroke-width:0px;}</style></defs><g id="_アウトライン済み"><path class="cls-1" d="M99.41,167.08c-.42,0-.83-.13-1.18-.39-14.74-10.82-26.38-25.28-34.58-42.98-7.51-16.19-11.41-34.74-11.6-55.13-.01-1.28,0-2.65,0-4.08,0-2.18,0-4.5-.04-6.88-6.16.13-12.17.39-17.99.64-10.98.47-21.36.91-32.1.52-.65-.02-1.25-.36-1.6-.91-.35-.55-.42-1.23-.18-1.83.44-1.1.95-2.59,1.55-4.32,3.83-11.15,10.96-31.91,27.97-32.89,6.95-.39,12.58,1.42,16.79,5.4,9.63,9.1,9.61,27.13,9.59,40.29,0,1.42,0,2.78,0,4.04.18,19.82,3.96,37.81,11.23,53.49,7.71,16.63,18.55,30.29,32.22,40.62,12.44-7.96,24.64-14.67,41.72-22.96.99-.48,2.19-.07,2.67.93.48.99.07,2.19-.93,2.67-17.46,8.48-29.76,15.28-42.46,23.48-.33.21-.71.32-1.08.32ZM4.84,54.86c9.62.23,19.06-.18,29.02-.6,5.83-.25,11.85-.51,18.04-.64-.44-10.13-2.08-20.73-8.18-26.49-3.43-3.24-7.95-4.66-13.81-4.31-14.33.82-20.89,19.93-24.42,30.19-.22.65-.44,1.27-.64,1.85Z"/><path class="cls-1" d="M194.16,96.5c-13.08,0-29.53-5.82-38.29-22.34-.52-.98-.15-2.19.83-2.7.98-.52,2.19-.15,2.7.83,10.4,19.6,30.36,20.41,36.24,20.18,1.09-.04,2.03.82,2.07,1.92.04,1.1-.82,2.03-1.92,2.07-.54.02-1.08.03-1.63.03Z"/><path class="cls-1" d="M146.71,32.83c-.94,0-1.78-.67-1.96-1.63-1.46-7.82-4.05-13.57-7.7-17.14-35.11,5.94-68.42,8.71-104.75,8.71-1.1,0-2-.9-2-2s.9-2,2-2c36.43,0,69.81-2.8,105.04-8.81.59-.09,1.2.07,1.65.46,4.71,4.1,7.97,10.85,9.69,20.05.2,1.09-.51,2.13-1.6,2.33-.12.02-.25.03-.37.03Z"/><path class="cls-1" d="M246.3,201.64c-.15,0-.3-.02-.45-.05-42.73-9.95-75.84-20.95-101.24-33.63-.89-.44-1.32-1.48-1-2.42,8.21-24.7,16.64-43.84,28.16-64,.42-.73,1.25-1.12,2.08-.98,32.8,5.66,65.69,18.18,93.54,29.67,1.02.42,1.51,1.59,1.09,2.61-.42,1.02-1.59,1.51-2.61,1.09-27.25-11.25-59.36-23.48-91.32-29.19-10.78,19.02-18.81,37.25-26.59,60.4,24.58,12.06,56.41,22.59,97.18,32.16,8.23-19.03,16.75-39.27,23.37-59.84.34-1.05,1.46-1.63,2.52-1.29,1.05.34,1.63,1.46,1.29,2.52-6.86,21.29-15.7,42.18-24.17,61.74-.32.74-1.05,1.21-1.83,1.21Z"/><path class="cls-1" d="M194.66,148.03c-.5,0-.99-.25-1.27-.71-6.21-9.93-11.8-21.29-17.59-35.75-.31-.77.07-1.64.83-1.95.76-.31,1.64.07,1.95.83,5.72,14.28,11.24,25.49,17.35,35.27.44.7.23,1.63-.48,2.07-.25.16-.52.23-.79.23Z"/><path class="cls-1" d="M218.98,155.82c-.7,0-1.32-.49-1.47-1.2-.17-.81.35-1.61,1.17-1.77,13.4-2.77,27.67-6.1,41.3-11.7.77-.31,1.64.05,1.96.82.31.77-.05,1.64-.82,1.96-13.85,5.69-28.29,9.06-41.83,11.86-.1.02-.21.03-.31.03Z"/><path class="cls-1" d="M208.52,170.12c-1,0-1.97-.22-2.8-.66-1.5-.8-3.53-.52-5.33-.29-1.67.22-3.11.41-4.22-.23-2.02-1.16-2.77-3.2-3.43-4.99-.33-.89-.64-1.73-1.06-2.35l-.3-.44c-1.3-1.9-2.43-3.54-2.56-6.65h0c-.09-2.22,1.71-5.61,4.18-6.65.96-.41,2-1.33,3.11-2.3,2.52-2.22,5.65-4.99,10.19-3.58,2.74.85,3.89,2.23,5.34,3.97.76.91,1.63,1.95,2.94,3.2l.65.61c1.68,1.58,3.42,3.22,4.03,4.6,1.65,3.75-.36,6.1-2.13,8.17-.9,1.05-1.83,2.13-2.34,3.43-.69,1.74-2.05,3.07-3.85,3.73-.79.29-1.62.44-2.42.44ZM203.16,165.92c1.33,0,2.7.21,3.98.88.73.39,1.82.42,2.77.06.69-.26,1.62-.81,2.1-2.01.7-1.77,1.84-3.1,2.85-4.28,1.72-2.02,2.51-3.07,1.66-5.01-.36-.82-2.08-2.44-3.34-3.62l-.66-.62c-1.43-1.36-2.4-2.52-3.17-3.45-1.36-1.62-2.04-2.44-3.93-3.03-2.92-.91-5.05.97-7.31,2.96-1.29,1.14-2.51,2.21-3.92,2.81-1.25.53-2.39,2.77-2.35,3.77h0c.09,2.25.82,3.31,2.04,5.08l.31.45c.63.93,1.02,1.98,1.39,3,.55,1.51,1.03,2.81,2.1,3.42.31.12,1.52-.04,2.33-.14.97-.13,2.05-.27,3.16-.27Z"/><path class="cls-1" d="M204.33,163.57c-1.63,0-3.26-.49-4.59-1.44-2.2-1.57-3.48-4.33-3.26-7.03.04-.55.53-.95,1.08-.92.55.05.96.53.92,1.08-.17,2.01.79,4.06,2.43,5.23,1.64,1.17,3.89,1.4,5.74.59,1.46-.64,2.65-1.92,3.19-3.43.19-.52.76-.79,1.28-.6.52.19.79.76.6,1.28-.72,2.02-2.32,3.73-4.27,4.59-.98.43-2.05.64-3.12.64Z"/><path class="cls-1" d="M78.89,155.65c-.23,0-.45-.08-.64-.23-.42-.35-.48-.99-.13-1.41,3.92-4.69,8.47-8.8,13.53-12.23.46-.31,1.08-.19,1.39.27.31.46.19,1.08-.27,1.39-4.91,3.33-9.32,7.32-13.11,11.86-.2.24-.48.36-.77.36Z"/><path class="cls-1" d="M85.18,158.69c-.26,0-.52-.1-.71-.3-.39-.39-.38-1.03.01-1.41l10.19-9.99c.4-.39,1.03-.38,1.42.01.39.39.38,1.03-.01,1.42l-10.19,9.99c-.19.19-.45.29-.7.29Z"/><path class="cls-1" d="M68.11,40.71c-.55,0-.99-.44-1-.99,0-.55.43-1.01.99-1.01,10.63-.16,21.27-1.45,31.63-3.84.54-.13,1.08.21,1.2.75.12.54-.21,1.08-.75,1.2-10.49,2.43-21.28,3.74-32.05,3.89h-.01Z"/><path class="cls-1" d="M71.63,54.14c-.54,0-.98-.42-1-.96-.02-.55.41-1.02.96-1.04,22.16-.83,44.21-4.34,65.54-10.44.53-.15,1.09.15,1.24.69.15.53-.16,1.08-.69,1.24-21.48,6.15-43.69,9.69-66.01,10.52-.01,0-.03,0-.04,0Z"/><path class="cls-1" d="M73,66.15c-.53,0-.97-.42-1-.95-.03-.55.4-1.02.95-1.05,20.29-.99,42-4.65,58.08-9.78.53-.18,1.09.12,1.26.65.17.53-.12,1.09-.65,1.26-16.24,5.19-38.14,8.88-58.6,9.88-.02,0-.03,0-.05,0Z"/><path class="cls-1" d="M73.88,78.61c-.21,0-.41,0-.61,0-.55,0-1-.46-.99-1.01,0-.55.45-.99,1-.99h0c16.06.07,33.98-4.29,50.98-9.06.53-.15,1.08.16,1.23.69s-.16,1.08-.69,1.23c-16.93,4.75-34.8,9.14-50.92,9.14Z"/><path class="cls-1" d="M75.38,100.05c-.48,0-.91-.35-.99-.84-.09-.54.28-1.06.83-1.14,19.12-3.05,34.78-7.24,49.27-13.18.51-.21,1.09.03,1.3.55.21.51-.04,1.09-.55,1.3-14.64,6-30.44,10.23-49.71,13.3-.05,0-.11.01-.16.01Z"/><path class="cls-1" d="M81.46,111.8c-.47,0-.88-.33-.98-.8-.11-.54.24-1.07.79-1.18,16.09-3.21,30.14-7.38,45.56-13.53.51-.21,1.09.05,1.3.56s-.05,1.09-.56,1.3c-15.53,6.19-29.69,10.39-45.91,13.63-.07.01-.13.02-.2.02Z"/><path class="cls-1" d="M137.13,67.14c-.28,0-.57-.08-.82-.25-.69-.46-.88-1.39-.43-2.08,14.31-21.72,24.66-37.29,39.55-59.5.46-.69,1.4-.87,2.08-.41.69.46.87,1.39.41,2.08-14.89,22.21-25.23,37.77-39.54,59.49-.29.44-.77.67-1.25.67Z"/><path class="cls-1" d="M147.23,74.14c-.28,0-.57-.08-.82-.25-.69-.46-.88-1.39-.43-2.08,14.25-21.63,24.6-37.2,39.55-59.5.46-.69,1.4-.87,2.08-.41.69.46.87,1.39.41,2.08-14.95,22.29-25.29,37.86-39.54,59.49-.29.44-.77.67-1.25.67Z"/><path class="cls-1" d="M184.03,15.19c-1.35,0-2.8-.4-4.29-1.21h0c-2.8-1.53-4.5-4.77-4.15-7.88.37-3.21,2.62-5.51,5.88-6.01,3.56-.54,7.02,1.33,8.43,4.54,1.31,2.99.56,6.85-1.75,8.97-1.15,1.06-2.57,1.59-4.12,1.59ZM182.65,3c-.25,0-.5.02-.73.05-.71.11-3.04.67-3.35,3.38-.22,1.9.88,3.97,2.6,4.91h0c1.43.78,3.44,1.42,4.94.04,1.37-1.25,1.83-3.75,1.04-5.55-.88-2-2.82-2.83-4.51-2.83Z"/><path class="cls-1" d="M145.44,74.26c-2.14,0-4.57-.66-6.11-1.76-2.09-1.5-3.56-4.02-3.74-6.41-.06-.83.56-1.55,1.38-1.61.82-.04,1.55.56,1.61,1.38.11,1.52,1.12,3.2,2.5,4.19,1.32.95,4.05,1.47,5.61,1.07.8-.21,1.62.28,1.83,1.08s-.28,1.62-1.08,1.83c-.61.16-1.29.23-2,.23Z"/><path class="cls-1" d="M132.37,85.27c-.28,0-.55-.08-.79-.23-.54-.33-.8-.97-.67-1.59,1.1-5.12,2.83-11.8,4.62-17.87.24-.79,1.08-1.25,1.86-1.01.79.24,1.25,1.07,1.01,1.86-1.34,4.51-2.63,9.36-3.66,13.64,1.31-.98,2.63-1.93,3.92-2.87,2.36-1.71,4.8-3.48,7.14-5.31.65-.51,1.59-.4,2.11.26.51.65.4,1.59-.26,2.11-2.38,1.87-4.84,3.65-7.23,5.38-2.36,1.71-4.8,3.48-7.14,5.31-.27.21-.6.32-.92.32Z"/><path class="cls-1" d="M272.4,113.12c-.83,0-1.5-.67-1.5-1.5v-9.37c0-.83.67-1.5,1.5-1.5s1.5.67,1.5,1.5v9.37c0,.83-.67,1.5-1.5,1.5Z"/><path class="cls-1" d="M280.9,118.06c-.46,0-.92-.21-1.21-.61-.49-.67-.34-1.61.32-2.1l8.93-6.55c.67-.49,1.61-.34,2.1.32s.34,1.61-.32,2.1l-8.93,6.55c-.27.2-.58.29-.89.29Z"/><path class="cls-1" d="M293.28,127.7h-.04l-8.74-.21c-.83-.02-1.48-.71-1.46-1.54.02-.82.69-1.46,1.5-1.46h.04l8.74.21c.83.02,1.48.71,1.46,1.54-.02.82-.69,1.46-1.5,1.46Z"/><path class="cls-1" d="M220.1,191.85c2.66.73,28.85,9.7,26.83,9.7-20.19,0-49.14,3.55-81.47,3.55-60.56,0-109.65-4.81-109.65-10.74s49.09-10.74,109.65-10.74c9.04,0,17.83.11,26.23.31,0,0,14.27,4.02,28.4,7.91Z"/><path class="cls-1" d="M219.5,157.98c0,2.74-2.05,4.94-2.43,6.54s-1.12,4.3-3.7,5.82-5.15,1.34-7.5.51c-2.36-.84-4.91.63-6.88.49-1.98-.13-4.1-1.43-5.24-3.71-1.14-2.28-1.22-4.33-1.82-6.08-.61-1.75-.91-2.67-.91-2.67l5.7,8.37,4.03.68,2.81-.76,5.09.3,3.19.23,2.42-3.92,3.05-4.14,2.2-1.67Z"/><path class="cls-1" d="M53.95,55.32l-51.95,1.45s5.43-16.87,11.61-25.95c6.18-9.08,17.63-10.37,23.39-9.45,5.77.91,10.61,6.91,13.26,12.14,2.64,5.24,3.69,21.81,3.69,21.81Z"/></g></svg>