<?xml version="1.0" encoding="UTF-8"?><svg id="_レイヤー_2" xmlns="http://www.w3.org/2000/svg" viewBox="0 0 540.01 140"><defs><style>.cls-1{fill:#618a45;}.cls-1,.cls-2{fill-rule:evenodd;}.cls-1,.cls-2,.cls-3{stroke-width:0px;}.cls-2,.cls-3{fill:#fff;}.cls-4{isolation:isolate;}</style></defs><g id="Livello_9"><path class="cls-1" d="m69,0h402c38.11,0,69,30.89,69,69v1.1c0,39.01-30.89,69.9-69,69.9H69C30.89,140,0,109.11,0,70.1v-1.1C0,30.89,30.89,0,69,0Z"/><g class="cls-4"><g class="cls-4"><path class="cls-3" d="m124.84,97.05c2.78,3.55,7.13,6.94,11.39,8.8-.9.77-2.11,2.3-2.75,3.3-3.77-1.95-7.48-5.15-10.39-8.8v10.17h-4.06v-9.98c-2.91,3.52-6.65,6.62-10.39,8.58-.64-.96-1.89-2.5-2.78-3.29,4.25-1.82,8.6-5.22,11.42-8.77h-10.36v-3.78h12.12v-4.1h-9.72v-3.78h9.72v-4.77h4.06v4.77h10.01v3.78h-10.01v4.1h12.31v3.78h-10.55Z"/><path class="cls-3" d="m159.25,98.14c2.75,3.33,6.84,6.4,10.84,8.06-.86.77-2.08,2.27-2.65,3.2-3.84-1.92-7.58-5.12-10.46-8.77v9.82h-4.03v-9.76c-2.91,3.58-6.65,6.72-10.49,8.64-.61-.93-1.79-2.43-2.69-3.2,4.03-1.66,8.16-4.7,10.94-8h-10.04v-3.65h6.04c-.35-1.54-1.38-3.78-2.4-5.5l3.29-1.25h-5.44v-3.65h10.78v-3.49h4.03v3.49h11.07v3.65h-5.31l3.68,1.09c-1.12,2.08-2.33,4.22-3.36,5.66h6.2v3.65h-10.01Zm-11.51-10.4c1.12,1.73,2.3,4,2.72,5.57l-3.04,1.18h5.53v-6.75h-5.21Zm9.24,0v6.75h5.37l-2.69-.93c.93-1.57,2.08-3.97,2.72-5.82h-5.41Z"/></g><g class="cls-4"><path class="cls-3" d="m190.95,85.24c3.04-.16,6.24-.45,9.05-.93l-.03,3.71c-3.04.45-6.97.7-10.43.8-.54,1.18-1.18,2.34-1.82,3.26.83-.38,2.56-.64,3.61-.64,1.95,0,3.55.83,4.25,2.46,1.66-.77,3.01-1.31,4.32-1.89,1.25-.54,2.37-1.06,3.55-1.66l1.6,3.71c-1.02.29-2.72.93-3.81,1.34-1.44.58-3.26,1.28-5.21,2.18.03,1.79.1,4.16.13,5.63h-3.84c.1-.96.13-2.5.16-3.9-2.4,1.38-3.68,2.62-3.68,4.22,0,1.76,1.5,2.24,4.64,2.24,2.72,0,6.27-.35,9.08-.9l-.13,4.13c-2.11.29-6.04.54-9.05.54-5.02,0-8.73-1.22-8.73-5.34s3.84-6.66,7.48-8.54c-.48-.8-1.34-1.09-2.24-1.09-1.79,0-3.77,1.02-4.99,2.21-.96.96-1.89,2.11-2.97,3.52l-3.42-2.56c3.36-3.1,5.63-5.95,7.07-8.83h-.42c-1.31,0-3.65-.06-5.41-.19v-3.74c1.63.26,4,.38,5.63.38h1.54c.35-1.28.58-2.53.64-3.68l4.22.35c-.16.8-.38,1.86-.8,3.2Z"/><path class="cls-3" d="m223.41,96.76c-1.25.45-2.53.9-3.81,1.31v8.13c0,1.86-.32,2.78-1.41,3.33-1.05.61-2.59.7-4.86.7-.1-.99-.58-2.5-1.05-3.46,1.28.03,2.59.03,3.01.03.45,0,.61-.16.61-.61v-6.88c-1.12.38-2.17.74-3.2,1.06l-1.09-3.62c1.21-.32,2.69-.77,4.29-1.22v-5.34h-4.03v-3.52h4.03v-6.05h3.71v6.05h3.39v3.52h-3.39v4.16c1.06-.35,2.08-.7,3.13-1.06l.67,3.46Zm8.7-10.46c-.7,2.5-1.54,5.09-2.62,7.52h11v16.51h-3.74v-1.63h-7.45v1.79h-3.58v-10.11c-.74.96-1.5,1.82-2.3,2.62-.61-.83-1.76-2.21-2.5-2.94,3.55-3.26,5.95-8.83,7.16-13.76h-4.92v-3.62h18.39v3.62h-9.43Zm4.64,11.1h-7.45v7.74h7.45v-7.74Z"/><path class="cls-3" d="m261.59,91.7c-.16-.38-.29-.77-.42-1.12-.26-.74-.45-1.34-.64-1.89-3.01.16-6.75.1-10.78-.29l-.22-3.68c3.81.45,7.07.58,10.01.48-.32-1.02-.64-2.05-1.02-3.17l4.29-.48c.16,1.15.35,2.27.58,3.36,2.21-.29,4.25-.74,6.3-1.38l.51,3.68c-1.76.48-3.77.9-5.88,1.18.16.51.32,1.02.48,1.5.16.45.35.93.54,1.44,2.62-.32,4.54-.86,6.11-1.28l.64,3.78c-1.47.38-3.2.74-5.12.99.54,1.02,1.09,2.02,1.66,2.85.42.61.86,1.09,1.44,1.63l-1.95,2.94c-1.79-.35-5.25-.77-7.58-1.02l.32-3.04c1.34.13,3.07.29,4.03.38-.67-1.12-1.28-2.24-1.79-3.33-3.93.26-9.08.26-13.91-.03l-.22-3.78c4.77.45,9.08.48,12.63.26Zm-7.9,10.72c0,2.37,2.24,3.33,6.46,3.33,3.04,0,5.76-.26,8.03-.7l-.22,4.06c-2.24.38-5.15.61-7.77.61-6.4,0-10.36-1.89-10.43-6.46-.06-2.05.64-3.62,1.38-5.15l3.97.77c-.77,1.06-1.41,2.18-1.41,3.55Z"/><path class="cls-3" d="m294.69,84.09c-.03.32-.03.8-.03,1.31,2.62-.13,5.28-.38,8.09-.86l-.03,3.68c-2.11.26-5.02.54-8.12.7v3.3c3.23-.16,5.95-.42,8.54-.77l-.03,3.78c-2.88.32-5.37.54-8.44.64.06,1.22.13,2.53.22,3.81,4.03,1.15,7.1,3.29,8.96,4.83l-2.3,3.58c-1.73-1.6-3.9-3.3-6.46-4.45.03.45.03.83.03,1.18,0,2.72-2.08,4.83-6.3,4.83-5.12,0-7.8-1.95-7.8-5.34s2.97-5.5,7.9-5.5c.67,0,1.34.03,1.98.1-.06-.99-.1-2.02-.13-2.98h-1.66c-1.86,0-5.5-.16-7.61-.42l-.03-3.78c2.08.38,6.01.61,7.71.61h1.54c0-1.06,0-2.21.03-3.3h-1.18c-2.01,0-5.72-.29-7.83-.58l-.1-3.65c2.3.38,5.95.7,7.9.7h1.25v-1.5c0-.61-.06-1.6-.19-2.21h4.32c-.1.64-.16,1.44-.19,2.27Zm-6.46,21.95c1.69,0,2.81-.48,2.81-2.34,0-.35,0-.8-.03-1.38-.86-.13-1.73-.22-2.62-.22-2.27,0-3.52.9-3.52,1.98,0,1.22,1.15,1.95,3.36,1.95Z"/><path class="cls-3" d="m332.97,85.37c-.03,1.25-.03,2.4-.06,3.46.86-.06,1.66-.13,2.4-.16.9-.06,2.14-.13,3.07-.22v3.94c-.54-.03-2.24,0-3.07.03-.7.03-1.54.06-2.46.13-.1,2.43-.22,5.06-.48,6.4-.35,1.7-1.15,2.11-2.78,2.11-1.15,0-3.71-.32-4.83-.48l.1-3.55c.99.22,2.3.42,2.94.42s.93-.13.99-.74c.13-.86.22-2.34.26-3.87-2.85.22-5.98.51-8.7.8-.03,2.94-.06,5.89,0,7.26.06,3.14.35,3.84,5.15,3.84,3.13,0,7.16-.38,9.56-.8l-.16,4.35c-2.14.26-6.08.51-9.12.51-8.28,0-9.28-1.73-9.43-7.26-.03-1.38-.03-4.48-.03-7.46-.86.1-1.6.16-2.14.22-1.02.13-3.01.45-3.84.58l-.45-4.1c.93,0,2.4-.06,4.03-.22.58-.06,1.41-.13,2.43-.22v-3.23c0-1.31-.1-2.4-.26-3.55h4.51c-.16,1.09-.19,1.98-.19,3.33,0,.74-.03,1.82-.03,3.07,2.72-.26,5.82-.54,8.73-.8v-3.62c0-.8-.13-2.3-.22-2.94h4.29c-.06.51-.16,1.92-.19,2.78Z"/><path class="cls-3" d="m359.34,85.43c-1.57,2.3-3.81,6.4-5.41,9.21,1.18-.67,2.46-.96,3.68-.96,2.4,0,3.84,1.5,3.97,4.16.06,1.44-.03,4,.13,5.34.13,1.25,1.02,1.73,2.08,1.73,2.78,0,4.48-3.58,5.41-7.55l3.45,2.82c-1.66,5.47-4.64,9.12-9.53,9.12-3.55,0-5.21-2.11-5.34-4.45-.13-1.7-.1-4.32-.19-5.63-.1-1.12-.74-1.79-1.89-1.79-2.17,0-3.97,2.24-5.12,4.83-.83,1.86-1.95,5.44-2.43,7.13l-4.51-1.54c2.37-6.4,8.92-19.46,10.62-22.5.42-.86,1.02-1.92,1.57-3.26l4.54,1.82c-.32.45-.67.99-1.02,1.5Z"/><path class="cls-3" d="m390.05,85.08c-.22.96-.45,2.14-.67,3.3,1.05-.06,2.01-.13,2.69-.13,3.39,0,5.79,1.5,5.79,6.11,0,3.78-.45,8.96-1.82,11.74-1.06,2.24-2.85,2.94-5.25,2.94-1.25,0-2.75-.22-3.84-.45l-.7-4.22c1.25.35,3.07.67,3.93.67,1.06,0,1.89-.32,2.4-1.38.86-1.82,1.28-5.7,1.28-8.86,0-2.56-1.09-2.91-3.1-2.91-.51,0-1.31.06-2.21.13-1.21,4.86-3.58,12.45-6.52,17.15l-4.16-1.66c3.1-4.19,5.31-10.66,6.46-15.04-1.15.13-2.14.26-2.75.32-.9.16-2.59.38-3.55.54l-.38-4.35c1.15.1,2.24.03,3.42,0,.99-.03,2.49-.13,4.12-.26.45-2.43.7-4.77.67-6.78l4.77.48c-.19.83-.42,1.86-.58,2.66Zm17.21,12.26l-4.06,1.89c-.83-3.55-3.1-9.34-5.37-12.16l3.81-1.63c1.98,2.75,4.67,8.86,5.63,11.9Z"/><path class="cls-3" d="m427.92,90.2c0-1.92-1.54-3.01-4.03-3.01-1.98,0-3.55.86-5.12,2.53l-2.62-2.43c2.01-2.37,4.83-3.9,8.25-3.9,4.64,0,8.03,2.14,8.03,6.4,0,4.7-6.97,5.25-6.49,9.7h-4.13c-.67-5.02,6.11-6.18,6.11-9.28Zm-6.84,14.97c0-1.7,1.21-2.85,2.81-2.85s2.81,1.15,2.81,2.85-1.18,2.82-2.81,2.82-2.81-1.15-2.81-2.82Z"/></g></g><g class="cls-4"><g class="cls-4"><path class="cls-3" d="m314.25,33.82c3.04-.16,6.24-.45,9.05-.93l-.03,3.71c-3.04.45-6.97.7-10.43.8-.54,1.18-1.18,2.34-1.82,3.26.83-.38,2.56-.64,3.61-.64,1.95,0,3.55.83,4.25,2.46,1.66-.77,3.01-1.31,4.32-1.89,1.25-.54,2.37-1.06,3.55-1.66l1.6,3.71c-1.02.29-2.72.93-3.81,1.34-1.44.58-3.26,1.28-5.21,2.18.03,1.79.1,4.16.13,5.63h-3.84c.1-.96.13-2.5.16-3.9-2.4,1.38-3.68,2.62-3.68,4.22,0,1.76,1.5,2.24,4.64,2.24,2.72,0,6.27-.35,9.08-.9l-.13,4.13c-2.11.29-6.04.54-9.05.54-5.02,0-8.73-1.22-8.73-5.34s3.84-6.66,7.48-8.54c-.48-.8-1.34-1.09-2.24-1.09-1.79,0-3.77,1.02-4.99,2.21-.96.96-1.89,2.11-2.97,3.52l-3.42-2.56c3.36-3.1,5.63-5.95,7.07-8.83h-.42c-1.31,0-3.65-.06-5.41-.19v-3.74c1.63.26,4,.38,5.63.38h1.54c.35-1.28.58-2.53.64-3.68l4.22.35c-.16.8-.38,1.86-.8,3.2Z"/><path class="cls-3" d="m355.67,47.36c-.26,1.98-.8,3.87-1.76,5.57,2.94,1.41,6.62,2.3,10.94,2.69-.8.83-1.79,2.4-2.27,3.39-4.32-.54-7.96-1.66-10.94-3.36-1.54,1.41-3.71,2.59-6.56,3.42-.48-.83-1.6-2.37-2.37-3.17,2.56-.58,4.45-1.41,5.82-2.46-1.57-1.31-2.85-2.94-3.93-4.77l3.1-.96c.77,1.25,1.79,2.33,2.97,3.29.64-1.15.99-2.33,1.18-3.65h-7.13v-9.34h7.36v-2.24h-8.03v-2.94c-.58,1.25-1.21,2.46-1.92,3.68v22.62h-3.61v-17.18c-.86,1.09-1.73,2.11-2.62,3.01-.35-.93-1.38-2.98-2.01-3.9,3.04-2.88,6.01-7.39,7.74-11.93l3.52,1.15c-.29.67-.58,1.34-.86,2.05h7.8v-2.91h3.77v2.91h8.48v3.46h-8.48v2.24h7.61v9.34h-7.8Zm-3.58-3.07v-3.17h-3.93v3.17h3.93Zm3.77-3.17v3.17h3.97v-3.17h-3.97Z"/><path class="cls-3" d="m375.27,41.89c2.17-.67,7.61-2.5,11.48-2.5,5.05,0,8.44,3.01,8.44,7.84,0,5.79-5.08,9.73-15.26,10.37l-1.69-3.94c7.32-.19,12.7-2.14,12.7-6.5,0-2.4-1.79-4.06-4.57-4.06-3.71,0-10.11,2.66-12.83,3.81l-1.66-4.16c.96-.19,2.43-.58,3.39-.86Z"/><path class="cls-3" d="m404.4,34.11c2.65-.22,7.93-.7,13.78-1.22,3.29-.26,6.81-.48,9.05-.54l.03,4.1c-1.73.03-4.48.03-6.17.42-3.87,1.02-6.75,5.18-6.75,8.99,0,5.25,4.93,7.17,10.33,7.46l-1.5,4.38c-6.68-.45-13.02-4.06-13.02-10.97,0-4.61,2.59-8.26,4.73-9.89-3.01.32-9.53,1.02-13.24,1.82l-.42-4.38c1.28-.03,2.53-.1,3.17-.16Z"/><path class="cls-3" d="m432.45,51.42l3.33-2.88c2.27,1.86,5.37,5.02,6.97,7.01l-3.42,2.94c-1.95-2.4-4.67-5.15-6.88-7.07Z"/></g></g><path class="cls-2" d="m287.43,44.97v1.89c0,1.92.02,3.73.07,5.42.05,1.7.15,3.33.3,4.91-.56-.06-1.12-.09-1.67-.09h-3.33c-.55,0-1.14.03-1.76.09l.19-3.39h-.09c-.88,1.32-1.9,2.32-3.07,2.99-1.17.68-2.51,1.01-4.01,1.01-2.35,0-4.15-.66-5.42-1.98-1.27-1.32-1.9-3.5-1.9-6.56,0-1.6.03-3.02.09-4.25s.09-2.45.09-3.68c0-1.01-.02-2.1-.07-3.28-.05-1.18-.1-2.37-.16-3.56.41.06.92.12,1.55.17.63.05,1.28.07,1.97.07s1.35-.02,1.97-.07c.63-.05,1.14-.1,1.55-.17-.22,1.7-.36,3.66-.42,5.9-.06,2.23-.09,4.78-.09,7.64,0,1.98.34,3.44,1.01,4.36.67.93,1.62,1.39,2.84,1.39,1.41,0,2.44-.61,3.1-1.84.66-1.23.99-2.92.99-5.09v-1.89c0-1.92-.02-3.72-.07-5.4-.05-1.68-.15-3.37-.31-5.07.88.16,2.05.24,3.52.24.72,0,1.38-.02,1.97-.07.59-.05,1.11-.1,1.55-.17-.16,1.7-.26,3.39-.3,5.07-.05,1.68-.07,3.48-.07,5.4Zm-23.51-7.5v2.31c0,.28.02.55.05.8l-.42.38c-.31-.19-.67-.35-1.06-.47-.39-.13-.84-.19-1.34-.19-1.41,0-2.52.46-3.33,1.39-.82.93-1.22,2.02-1.22,3.28v1.89c0,1.92.02,3.73.07,5.42.05,1.7.15,3.33.31,4.91-.41-.06-.91-.09-1.52-.09h-3.94c-.59,0-1.1.03-1.54.09.14-1.57.23-3.21.27-4.91.04-1.7.06-3.5.06-5.42v-1.89c0-1.92-.02-3.72-.06-5.4-.04-1.68-.13-3.37-.27-5.07.53.06,1.06.12,1.61.17.55.05,1.08.07,1.61.07s1.06-.02,1.61-.07c.54-.05,1.08-.1,1.61-.17l-.14,5.75.09.09c.81-2.17,1.8-3.76,2.96-4.79,1.16-1.02,2.54-1.53,4.13-1.53.16,0,.29,0,.4.02.11.02.23.02.35.02-.09.47-.16.97-.21,1.51-.05.54-.07,1.17-.07,1.89Zm-30.52,8.44c0,1.26.12,2.44.38,3.54.25,1.1.63,2.05,1.15,2.85.52.8,1.17,1.43,1.97,1.89.8.46,1.73.68,2.79.68,2.16,0,4.08-.71,5.78-2.12l.56.42-1.03,2.64c-.78.6-1.72,1.08-2.82,1.44-1.1.36-2.54.54-4.32.54-1.53,0-2.99-.21-4.37-.64-1.38-.42-2.59-1.12-3.64-2.1-1.05-.97-1.88-2.21-2.49-3.7-.61-1.49-.92-3.28-.92-5.35s.27-3.82.82-5.33c.55-1.51,1.31-2.77,2.28-3.77.97-1.01,2.12-1.76,3.45-2.26,1.33-.5,2.78-.75,4.35-.75,3.1,0,5.47.91,7.11,2.74,1.64,1.82,2.47,4.4,2.47,7.73v.99c0,.28-.02.47-.05.57h-13.48Zm6.36-7.78c-.52-1.42-1.39-2.12-2.6-2.12-.69,0-1.27.23-1.74.71-.47.47-.85,1.08-1.13,1.82-.28.74-.49,1.57-.63,2.5s-.23,1.85-.26,2.76h7.23c-.06-2.36-.35-4.24-.87-5.66Zm-16.65,11.37c.06,2.58.16,5.14.28,7.69-.41-.06-.92-.09-1.55-.09h-3.78c-.58,0-1.03.03-1.34.09.03-.06.06-.27.09-.61.03-.34.07-.74.12-1.18.05-.44.09-.85.12-1.23.03-.38.05-.61.05-.71l-.09-.09c-.59,1.42-1.41,2.51-2.44,3.28-1.03.77-2.46,1.16-4.27,1.16-1.6,0-2.96-.31-4.09-.92-1.13-.61-2.05-1.47-2.77-2.57-.72-1.1-1.25-2.39-1.6-3.87s-.52-3.07-.52-4.76.23-3.26.7-4.69c.47-1.43,1.11-2.67,1.93-3.72.81-1.05,1.78-1.88,2.89-2.48,1.11-.6,2.29-.9,3.54-.9,1.41,0,2.67.33,3.78.99,1.11.66,1.93,1.49,2.47,2.5h.09c0-2.83-.03-5.49-.09-7.99-.06-2.5-.16-5.09-.28-7.76.41.06.92.12,1.55.16.63.05,1.28.07,1.97.07s1.35-.02,1.97-.07c.63-.05,1.14-.1,1.55-.16-.13,2.64-.22,5.25-.28,7.83-.06,2.58-.09,5.41-.09,8.49v3.07c0,3.08.03,5.91.09,8.49Zm-7.56-10.35c-.78-1.34-1.78-2.01-3.01-2.01-.5,0-1,.14-1.5.42-.5.28-.96.78-1.36,1.49-.41.71-.74,1.66-1.01,2.85-.27,1.2-.4,2.69-.4,4.48,0,1.6.11,2.96.33,4.06.22,1.1.52,1.99.89,2.66.38.68.81,1.16,1.29,1.46.49.3.99.45,1.53.45,1.28,0,2.34-.73,3.17-2.19s1.24-3.89,1.24-7.29c0-2.92-.39-5.05-1.17-6.39Zm-19.55,18.65c-1.16,0-2.1-.28-2.82-.85-.72-.57-1.27-1.38-1.64-2.45-.72,1-1.56,1.81-2.51,2.4-.96.6-2.15.9-3.59.9-1.19,0-2.21-.16-3.05-.47-.85-.31-1.54-.76-2.09-1.35-.55-.58-.95-1.24-1.2-1.98-.25-.74-.38-1.49-.38-2.24,0-1.04.16-1.93.49-2.69.33-.75.8-1.4,1.41-1.93.61-.53,1.34-.98,2.18-1.34.85-.36,1.8-.67,2.87-.92,1.32-.31,2.36-.59,3.12-.82.77-.24,1.34-.47,1.71-.71.38-.24.62-.49.73-.78.11-.28.16-.63.16-1.04,0-1.13-.4-2.1-1.2-2.9-.8-.8-1.9-1.2-3.31-1.2-.53,0-1.08.07-1.64.21-.56.14-1.1.34-1.62.59-.52.25-.99.53-1.41.83-.42.3-.74.62-.96.97h-.33l-.61-2.83c1.32-1.07,2.73-1.89,4.25-2.45,1.52-.57,3.03-.85,4.53-.85,1.25,0,2.4.14,3.45.43,1.05.28,1.96.73,2.73,1.34.77.61,1.36,1.41,1.78,2.38.42.97.63,2.15.63,3.54,0,2.01-.02,3.88-.07,5.59-.05,1.71-.07,3.42-.07,5.12,0,.75.05,1.35.16,1.77.11.42.27.75.49.97.22.22.51.36.87.42.36.06.77.09,1.24.09v1.13c-.91.38-1.68.66-2.3.85-.63.19-1.3.28-2.02.28Zm-6.6-11.81c-.74.24-1.41.53-2.02.89-.61.36-1.11.86-1.5,1.49-.39.63-.59,1.54-.59,2.73s.24,2.05.73,2.67,1.14.92,1.95.92c1.03,0,1.87-.39,2.51-1.18.64-.78.96-1.95.96-3.49,0-1.35,0-2.38.02-3.09.02-.71.02-1.33.02-1.86-.66.38-1.36.68-2.09.92Zm-22.3,7.52l3.47.05c2.63.03,4.56.53,5.8,1.49s1.86,2.49,1.86,4.6c0,1.89-.38,3.47-1.15,4.74-.77,1.27-1.75,2.31-2.96,3.11-1.21.8-2.54,1.37-4.01,1.72-1.47.35-2.89.52-4.27.52-2.94,0-5.24-.57-6.88-1.72-1.64-1.15-2.46-2.67-2.46-4.55,0-1.51.41-2.73,1.24-3.65.83-.93,1.95-1.66,3.36-2.19v-.09c-.82-.28-1.46-.71-1.95-1.3-.49-.58-.73-1.31-.73-2.19,0-1.04.4-2.04,1.2-3.02.8-.97,1.86-1.64,3.17-1.98v-.09c-1.91-.47-3.38-1.32-4.41-2.55-1.06-1.26-1.6-2.89-1.6-4.9,0-1.2.24-2.26.73-3.21.49-.94,1.17-1.74,2.04-2.38.88-.64,1.93-1.14,3.15-1.49,1.22-.34,2.57-.52,4.04-.52.56,0,1.14.02,1.74.07.59.05,1.17.09,1.74.12.41.03.82.05,1.24.07.42.02.88.02,1.39.02.78,0,1.6,0,2.44-.02.84-.02,1.69-.02,2.54-.02-.03.19-.05.38-.07.56-.02.19-.02.38-.02.57s0,.38.02.57c.02.19.04.38.07.57l-4.13-.19-.14.09c.78.57,1.4,1.28,1.85,2.15.45.86.68,1.89.68,3.09s-.22,2.22-.66,3.18c-.44.96-1.06,1.79-1.86,2.48-.8.69-1.75,1.23-2.87,1.6-1.11.38-2.36.57-3.73.57-.34,0-.68,0-1.01-.02-.33-.02-.7-.02-1.1-.02-.38,0-.7.17-.96.52-.27.35-.4.74-.4,1.18,0,.75.29,1.35.87,1.79.58.44,1.5.68,2.75.71Zm-3.47-8.84c.19.71.43,1.28.73,1.72.3.44.63.75.99.94s.73.28,1.1.28c1.03,0,1.8-.45,2.3-1.37.5-.91.75-2.45.75-4.62s-.28-3.64-.85-4.5c-.56-.86-1.27-1.3-2.11-1.3-2.13,0-3.19,2.08-3.19,6.23,0,1.04.09,1.91.28,2.62Zm-1.03,13.61c-.38.19-.78.64-1.2,1.37-.42.72-.63,1.63-.63,2.74,0,.91.16,1.71.49,2.38.33.68.77,1.23,1.34,1.67.56.44,1.21.78,1.95,1.02.74.23,1.53.35,2.37.35.91,0,1.72-.15,2.44-.45.72-.3,1.34-.71,1.86-1.23.52-.52.91-1.12,1.17-1.79.27-.68.4-1.39.4-2.15,0-.91-.16-1.66-.47-2.24s-.76-1.03-1.34-1.34c-.58-.31-1.29-.53-2.14-.64-.85-.11-1.8-.17-2.86-.17-1.63,0-2.76.16-3.38.47Zm-21.57-12.36c0,1.26.12,2.44.38,3.54.25,1.1.63,2.05,1.15,2.85.52.8,1.17,1.43,1.97,1.89s1.73.68,2.79.68c2.16,0,4.08-.71,5.78-2.12l.56.42-1.03,2.64c-.78.6-1.72,1.08-2.82,1.44-1.1.36-2.54.54-4.32.54-1.53,0-2.99-.21-4.36-.64-1.38-.42-2.59-1.12-3.64-2.1-1.05-.97-1.88-2.21-2.49-3.7-.61-1.49-.91-3.28-.91-5.35s.27-3.82.82-5.33c.55-1.51,1.31-2.77,2.28-3.77.97-1.01,2.12-1.76,3.45-2.26,1.33-.5,2.78-.75,4.34-.75,3.1,0,5.47.91,7.12,2.74,1.64,1.82,2.46,4.4,2.46,7.73v.99c0,.28-.02.47-.05.57h-13.48Zm6.36-7.78c-.52-1.42-1.39-2.12-2.6-2.12-.69,0-1.27.23-1.74.71-.47.47-.85,1.08-1.13,1.82-.28.74-.49,1.57-.64,2.5-.14.93-.23,1.85-.26,2.76h7.23c-.07-2.36-.35-4.24-.87-5.66Zm-19.52,18.96h-1.93c-.66,0-1.32.03-1.97.09-.16-3.24-.42-6.74-.77-10.52-.36-3.77-.73-7.51-1.1-11.22h-.09c-1.78,3.71-3.54,7.36-5.26,10.94-1.72,3.59-3.43,7.19-5.12,10.8-.16-.03-.31-.06-.45-.07-.14-.02-.29-.02-.45-.02s-.31,0-.45.02c-.14.02-.29.04-.45.07-1.69-3.52-3.37-7.04-5.05-10.56-1.67-3.52-3.4-7.09-5.19-10.71h-.09c-.5,3.62-.88,7.19-1.13,10.71-.25,3.52-.5,7.04-.75,10.56-.38-.06-.75-.09-1.13-.09h-2.18c-.36,0-.73.03-1.1.09,1-5.41,1.89-10.78,2.68-16.13.78-5.35,1.5-10.77,2.16-16.27.34.06.66.12.96.17.3.05.62.07.96.07.28,0,.58-.02.89-.07.31-.05.64-.1.99-.17.85,1.89,1.73,3.81,2.65,5.75.92,1.95,1.85,3.89,2.77,5.82.92,1.93,1.85,3.83,2.77,5.68.92,1.86,1.81,3.61,2.65,5.28,1.88-3.52,3.75-7.21,5.61-11.06,1.86-3.85,3.64-7.68,5.33-11.49.78.16,1.46.24,2.02.24.53,0,1.19-.08,1.97-.24.31,2.71.65,5.61,1.01,8.73.36,3.11.71,6.16,1.06,9.13.34,2.97.69,5.75,1.03,8.32.34,2.58.66,4.65.94,6.22-.63-.06-1.26-.09-1.9-.09h-1.9Z"/></g></svg>