<?xml version="1.0" encoding="UTF-8"?><svg id="_レイヤー_2" xmlns="http://www.w3.org/2000/svg" viewBox="0 0 455.45 449.06"><defs><style>.cls-1{stroke-width:0px;}</style></defs><g id="_アウトライン済み"><path class="cls-1" d="M124.08,422.78c-.75,0-1.47-.42-1.81-1.14-.47-1-.05-2.19.95-2.66,11.47-5.43,23.07-11.87,34.47-19.13,10.54-6.72,21.95-15.33,26.7-28.27,2.91-7.92,3.73-13.2,4.4-21.37,2.26-27.68,2.72-55.94,3.17-83.27.02-1.09.91-1.97,2-1.97h.03c1.1.02,1.99.93,1.97,2.03-.45,27.4-.91,55.73-3.18,83.54-.7,8.53-1.57,14.06-4.63,22.42-5.16,14.06-17.2,23.19-28.3,30.27-11.54,7.36-23.29,13.88-34.91,19.38-.28.13-.57.19-.85.19Z"/><path class="cls-1" d="M317.24,413.61c-.17,0-.33-.02-.5-.06-17.88-4.61-37.05-21.91-39.18-23.86-5.25-4.83-12.44-11.45-16.74-22.51-13.91-35.82-15.5-68.78-15.14-99.06.01-1.1.91-1.98,2-1.98h.02c1.1.01,1.99.92,1.98,2.02-.35,29.88,1.21,62.38,14.87,97.57,3.96,10.19,10.48,16.19,15.71,21.01,2.05,1.89,20.53,18.57,37.47,22.94,1.07.28,1.71,1.37,1.44,2.44-.23.9-1.04,1.5-1.94,1.5Z"/><path class="cls-1" d="M181.38,443.27c-.26,0-.53-.05-.79-.17-1.01-.44-1.48-1.61-1.04-2.63,6.53-15.13,10.47-31.57,12.03-50.26.09-1.1,1.05-1.93,2.16-1.83,1.1.09,1.92,1.06,1.83,2.16-1.6,19.12-5.64,35.97-12.35,51.51-.33.76-1.06,1.21-1.84,1.21Z"/><path class="cls-1" d="M138.78,427.27c-.91,0-1.74-.63-1.95-1.56-.24-1.08.43-2.15,1.51-2.39,16.31-3.69,32.22-10.01,42.56-16.92.92-.62,2.16-.37,2.77.55.61.92.37,2.16-.55,2.77-15.46,10.32-35.85,15.67-43.9,17.49-.15.03-.3.05-.44.05Z"/><path class="cls-1" d="M239.13,449.06c-.57,0-1.12-.24-1.51-.69-10.02-11.52-18.68-26.65-24.22-42.22-5.46,14.6-12.68,26.56-21.98,36.45-.76.8-2.02.84-2.83.09-.8-.76-.84-2.02-.09-2.83,10.04-10.68,17.58-23.94,23.05-40.53.27-.83,1.07-1.36,1.92-1.37.87,0,1.64.58,1.89,1.42,4.61,15.08,12.4,30.1,21.7,42.02-.14-5.62-.46-11.31-.77-16.86-.42-7.48-.85-15.21-.84-22.74,0-.84.53-1.59,1.32-1.88.79-.29,1.67-.05,2.21.59,11.25,13.34,20.4,21.95,32.66,30.72.9.64,1.11,1.89.46,2.79-.64.9-1.89,1.1-2.79.46-11.22-8.03-19.89-15.91-29.8-27.22.13,5.68.46,11.43.77,17.04.42,7.48.85,15.21.84,22.74,0,.83-.52,1.58-1.3,1.87-.23.08-.46.13-.7.13Z"/><path class="cls-1" d="M278.08,432.9c-.66,0-1.3-.32-1.69-.92-8.54-13.31-15.65-27.58-21.13-42.41-.38-1.04.15-2.19,1.18-2.57,1.04-.39,2.19.15,2.57,1.18,5.38,14.57,12.36,28.58,20.75,41.64.6.93.33,2.17-.6,2.76-.33.21-.71.32-1.08.32Z"/><path class="cls-1" d="M312.61,420.51c-.1,0-.2,0-.29-.02-14.39-2.11-28.64-7.09-41.21-14.41-.96-.55-1.28-1.78-.72-2.73.55-.95,1.78-1.28,2.73-.72,12.14,7.06,25.9,11.87,39.79,13.91,1.09.16,1.85,1.18,1.69,2.27-.15.99-1,1.71-1.98,1.71Z"/><path class="cls-1" d="M247.63,270.54c-.47,0-.93-.16-1.31-.49-.83-.72-.92-1.99-.2-2.82,9.15-10.52,19.91-17.5,32.91-21.36,13.6-4.04,33.81-4.81,48.04-1.85,1.08.22,1.78,1.28,1.55,2.37s-1.29,1.77-2.37,1.55c-13.67-2.84-33.05-2.1-46.09,1.77-12.25,3.63-22.39,10.22-31.03,20.15-.4.46-.95.69-1.51.69Z"/><path class="cls-1" d="M240.79,260.47c-.57,0-1.14-.24-1.54-.72-.71-.85-.6-2.11.25-2.82,24.32-20.33,44.36-26.33,76.56-22.93,1.1.12,1.9,1.1,1.78,2.2-.12,1.1-1.1,1.88-2.2,1.78-30.96-3.28-50.21,2.49-73.57,22.02-.37.31-.83.47-1.28.47Z"/><path class="cls-1" d="M288.24,237.18c-.43,0-.87-.19-1.16-.55-.52-.64-.43-1.59.21-2.11,3.88-3.17,7.32-6.15,10.64-9.02,3.34-2.89,6.8-5.88,10.7-9.08.64-.52,1.59-.43,2.11.21.52.64.43,1.59-.21,2.11-3.88,3.17-7.32,6.15-10.64,9.02-3.34,2.89-6.8,5.88-10.7,9.08-.28.23-.62.34-.95.34Z"/><path class="cls-1" d="M300.78,235.87c-.41,0-.82-.17-1.11-.5-.56-.61-.51-1.56.11-2.12,3.71-3.35,8.01-7.41,11.7-12.08.52-.65,1.46-.76,2.11-.25.65.51.76,1.46.25,2.11-3.83,4.84-8.24,9.01-12.04,12.44-.29.26-.65.39-1,.39Z"/><path class="cls-1" d="M194.02,268.75c-.54,0-1.07-.21-1.46-.64-17.09-18.39-40.12-29.64-64.85-31.67-1.1-.09-1.92-1.06-1.83-2.16.09-1.1,1.05-1.94,2.16-1.83,25.72,2.11,49.68,13.81,67.45,32.93.75.81.71,2.07-.1,2.83-.38.36-.87.54-1.36.54Z"/><path class="cls-1" d="M197.36,254.68c-.42,0-.85-.13-1.22-.41-21.16-16.23-48.67-24.56-66.54-25.62-1.1-.07-1.94-1.01-1.88-2.11.07-1.1,1.03-1.97,2.11-1.88,18.48,1.1,46.91,9.7,68.74,26.44.88.67,1.04,1.93.37,2.8-.39.51-.99.78-1.59.78Z"/><path class="cls-1" d="M197.53,254.54c-.92,0-1.75-.64-1.95-1.57-5.05-23.15-12.9-40-24.71-53.02-.74-.82-.68-2.08.14-2.83.82-.74,2.08-.68,2.83.14,12.3,13.56,20.45,30.99,25.65,54.85.24,1.08-.45,2.14-1.53,2.38-.14.03-.29.05-.43.05Z"/><path class="cls-1" d="M209.16,245.96c-.88,0-1.67-.58-1.92-1.45-3.37-11.75-10.03-28.54-22.65-41.81-.76-.8-.73-2.07.07-2.83.8-.76,2.07-.73,2.83.07,8.3,8.73,15.17,20.03,20.14,33.08,1.32-12.24,5.23-24.5,11.39-35.41.54-.96,1.76-1.3,2.72-.76.96.54,1.3,1.76.76,2.72-7.66,13.57-11.69,29.31-11.34,44.33.02,1.01-.7,1.87-1.7,2.02-.1.02-.2.02-.3.02Z"/><path class="cls-1" d="M224.6,250.55c-1.08,0-1.96-.85-2-1.94-.7-21.67,9.61-43.9,20.13-56.31.71-.84,1.98-.95,2.82-.23.84.71.95,1.98.23,2.82-11.86,13.99-19.75,36.03-19.19,53.6.04,1.1-.83,2.03-1.93,2.06-.02,0-.04,0-.07,0Z"/><path class="cls-1" d="M229.75,252.29c-.39,0-.78-.11-1.13-.35-.91-.62-1.14-1.87-.52-2.78,11.53-16.81,23.57-29.26,36.81-38.05.92-.61,2.16-.36,2.77.56.61.92.36,2.16-.56,2.77-12.8,8.51-24.49,20.6-35.72,36.98-.39.57-1.01.87-1.65.87Z"/><path class="cls-1" d="M130.95,256.4c-.67,0-1.27-.45-1.45-1.12-.21-.8.27-1.62,1.07-1.83,9.5-2.49,19.37-3.91,28.91-5.28,3.28-.47,6.56-.94,9.82-1.46.82-.13,1.59.43,1.71,1.25.13.82-.43,1.59-1.25,1.71-3.28.52-6.57.99-9.86,1.46-9.46,1.36-19.24,2.77-28.58,5.22-.13.03-.26.05-.38.05Z"/><path class="cls-1" d="M139.87,260.24c-.75,0-1.39-.56-1.49-1.32-.1-.82.49-1.57,1.31-1.67,3-.37,5.8-.72,8.46-1.07,11.11-1.43,19.88-2.55,31.66-2.7h.02c.82,0,1.49.66,1.5,1.48,0,.83-.65,1.51-1.48,1.52-11.61.14-20.31,1.26-31.32,2.68-2.67.34-5.47.7-8.48,1.07-.06,0-.12.01-.18.01Z"/><path class="cls-1" d="M152.79,298.44c-4.83,0-8.81-2.24-12.4-4.91-5.37,2.02-11.52,1.76-16.7-.73-4.96-2.39-8.87-6.76-10.74-11.91-5.55.92-11.74-.71-17.16-4.52-4.36,4.8-12.73,8.76-22.63,7.13-8.02-1.32-15.02-7.1-17.93-14.66-5.9.88-12.52-1.44-16.68-3.9-5.24-3.1-9.05-8.28-10.44-14.21-.25-1.08.42-2.15,1.49-2.4,1.07-.25,2.15.42,2.4,1.49,1.12,4.8,4.33,9.17,8.58,11.68,4.24,2.5,10.65,4.44,15.42,3.1,1.06-.3,2.15.31,2.46,1.37,1.99,6.85,8.3,12.44,15.34,13.59,6.71,1.11,15.73-.98,19.99-7.09.32-.46.81-.76,1.36-.84.55-.08,1.11.08,1.54.42,5.38,4.34,11.76,6.05,17.07,4.56.52-.15,1.07-.08,1.54.19.46.27.8.71.94,1.23,1.26,4.83,4.69,9,9.18,11.16,4.49,2.16,9.9,2.25,14.45.22.67-.3,1.45-.21,2.04.25,4.58,3.54,8.41,5.53,13.36,4.52,5.27-1.07,9.98-4.51,12.61-9.21.27-.47.71-.82,1.24-.96.53-.14,1.08-.05,1.55.23,6,3.66,14.62,3.4,20.51-.63.91-.62,2.16-.39,2.78.52s.39,2.16-.52,2.78c-6.69,4.58-15.92,5.19-23.11,1.7-3.31,4.83-8.51,8.32-14.26,9.49-1.14.23-2.23.34-3.28.34Z"/><path class="cls-1" d="M25.16,243.4c-4.52,0-9.05-1.78-12.26-4.97-3.85-3.82-5.68-9.55-4.85-14.9-6.47-5.76-9.49-15.2-7.38-23.4,2.23-8.65,9.94-15.74,18.75-17.23,1.09-.19,2.12.55,2.31,1.64.18,1.09-.55,2.12-1.64,2.31-7.31,1.24-13.7,7.11-15.55,14.28-1.83,7.11,1.02,15.36,6.93,20.07.61.48.88,1.27.7,2.02-1.03,4.36.36,9.22,3.54,12.38,3.18,3.16,8.04,4.51,12.4,3.46,1.07-.27,2.15.4,2.42,1.47s-.4,2.16-1.47,2.42c-1.28.31-2.59.46-3.9.46Z"/><path class="cls-1" d="M23.35,182.83c-.1,0-.2,0-.3-.02-1.09-.16-1.85-1.18-1.68-2.27,1.18-7.91,5.33-15.45,11.37-20.68,6.04-5.24,14.09-8.26,22.09-8.31h.01c1.1,0,1.99.89,2,1.99,0,1.1-.88,2.01-1.99,2.01-7.06.04-14.16,2.71-19.49,7.33-5.33,4.62-8.99,11.27-10.04,18.25-.15.99-1,1.7-1.97,1.7Z"/><path class="cls-1" d="M31.49,162.42c-.52,0-1.03-.2-1.42-.6-3.27-3.32-4.89-8.24-4.22-12.85.56-3.9,2.76-7.56,5.89-9.95-3.94-6.83-3.98-16.72.13-23.49,4.46-7.33,13.47-11.49,21.95-10.1,1.09.18,1.83,1.21,1.65,2.3-.18,1.09-1.2,1.83-2.3,1.65-6.9-1.12-14.25,2.25-17.88,8.23-3.64,5.99-3.27,15.32.82,20.79.35.46.47,1.05.35,1.62-.12.56-.48,1.05-.99,1.33-3,1.66-5.17,4.81-5.67,8.2-.49,3.4.7,7.03,3.11,9.47.78.79.77,2.05-.02,2.83-.39.38-.9.58-1.4.58Z"/><path class="cls-1" d="M63.54,106.72c-1.04,0-1.92-.81-1.99-1.87-.14-2.15.76-4.33,2.69-6.48,4.29-4.77,11.12-7.02,17.4-5.86,2.55-4.29,6.71-8.08,11.38-10.33,5.07-2.44,10.9-3.13,16.4-1.95,1.08.23,1.77,1.29,1.54,2.37-.23,1.08-1.3,1.77-2.37,1.54-4.64-.99-9.55-.41-13.83,1.64-4.4,2.12-8.25,5.82-10.3,9.9-.43.86-1.41,1.29-2.33,1.03-5.26-1.48-11.26.26-14.91,4.33-.81.9-1.76,2.25-1.68,3.54.07,1.1-.76,2.06-1.86,2.13-.04,0-.09,0-.13,0Z"/><path class="cls-1" d="M95.52,83.9c-.9,0-1.71-.61-1.94-1.51-2-8.01-.84-15.84,3.19-21.46,4.52-6.3,12.36-9.77,22.08-9.77,1.1,0,2,.9,2,2s-.9,2-2,2c-8.39,0-15.08,2.88-18.83,8.1-3.35,4.67-4.28,11.29-2.56,18.16.27,1.07-.38,2.16-1.46,2.43-.16.04-.33.06-.49.06Z"/><path class="cls-1" d="M115.03,45.68c-1.08,0-1.97-.87-2-1.95-.2-8.71,9.2-16.26,17.43-16.95,7.22-.6,12.11,1.82,15.77,4.02,2.25-4.47,5.47-8.59,11.88-10.53,6.25-1.88,14.13-.05,18.75,4.38.8.76.83,2.03.06,2.83-.76.8-2.03.83-2.83.06-3.52-3.37-10.04-4.88-14.83-3.43-5.54,1.67-8.07,5.22-10.35,10.39-.23.53-.69.93-1.24,1.1-.55.17-1.15.09-1.65-.21l-.41-.26c-3.52-2.2-7.9-4.94-14.83-4.36-6.32.52-13.91,6.57-13.76,12.87.03,1.1-.85,2.02-1.95,2.04-.02,0-.03,0-.05,0Z"/><path class="cls-1" d="M255.33,42.77c-.07,0-.14,0-.22-.01-1.1-.12-1.89-1.1-1.77-2.2.51-4.73-1.37-9.64-4.92-12.81-3.36-3.01-9.81-4.52-14.69-3.44-1.03.23-2.05-.38-2.35-1.38-2.82-9.52-11.65-17.19-21.48-18.65-9.82-1.46-20.5,3.31-25.97,11.6-.61.92-1.85,1.18-2.77.57-.92-.61-1.18-1.85-.57-2.77,6.39-9.7,18.41-15.07,29.9-13.36,10.9,1.62,20.41,9.47,24.17,19.79,5.78-.67,12.55,1.19,16.42,4.66,4.49,4.02,6.87,10.23,6.22,16.22-.11,1.03-.98,1.79-1.99,1.79Z"/><path class="cls-1" d="M316.64,70.51c-.95,0-1.8-.68-1.97-1.66-.45-2.54-2.67-4.86-5.66-5.92-2.71-.96-6.22-1.19-9.87-.65-.57.09-1.15-.08-1.59-.46-.44-.38-.7-.92-.7-1.5-.06-7.41-3.73-14.83-9.58-19.37-5.85-4.54-13.95-6.27-21.14-4.49-1.07.26-2.16-.39-2.42-1.46-.26-1.07.39-2.16,1.46-2.42,8.47-2.09,17.66-.14,24.55,5.22,6.31,4.9,10.33,12.37,11.02,20.29,3.51-.27,6.86.11,9.61,1.08,4.33,1.53,7.57,5.07,8.26,9,.19,1.09-.54,2.12-1.62,2.31-.12.02-.23.03-.35.03Z"/><path class="cls-1" d="M367.91,100.43c-.14,0-.29-.01-.43-.05-1.08-.24-1.76-1.3-1.53-2.38,1.55-7.07-.06-14.79-4.29-20.66-4.23-5.87-11.06-9.83-18.25-10.59-7.19-.77-14.7,1.68-20.07,6.53-.82.74-2.08.67-2.83-.14-.74-.82-.68-2.08.14-2.83,6.2-5.6,14.85-8.42,23.17-7.54,8.31.88,16.19,5.45,21.08,12.23s6.74,15.69,4.96,23.86c-.21.94-1.03,1.57-1.95,1.57Z"/><path class="cls-1" d="M386.97,130.35c-.24,0-.48-.04-.71-.13-1.03-.39-1.55-1.55-1.16-2.58,3.09-8.15,1.85-18.02-3.16-25.15-1.05-1.5-3.85-4.94-7.17-4.6-1.09.12-2.08-.69-2.19-1.78-.11-1.1.69-2.08,1.78-2.19,3.83-.4,7.77,1.9,10.85,6.28,5.85,8.31,7.24,19.37,3.63,28.87-.3.8-1.06,1.29-1.87,1.29Z"/><path class="cls-1" d="M394.49,157.16c-.33,0-.66-.08-.96-.25-.97-.53-1.32-1.75-.79-2.72,2.8-5.1,2.94-11.52.37-16.74-2.58-5.22-7.75-9.02-13.5-9.9-1.09-.17-1.84-1.19-1.67-2.28s1.19-1.84,2.28-1.67c7.02,1.08,13.34,5.71,16.49,12.08,3.14,6.38,2.97,14.21-.45,20.44-.36.66-1.05,1.04-1.75,1.04Z"/><path class="cls-1" d="M403.94,166.97c-.62,0-1.23-.29-1.62-.83-3.53-4.89-8.91-8.51-14.77-9.93-6.41-1.55-13.24-.96-18.26,1.59-.57.29-1.25.29-1.83,0-.57-.3-.97-.85-1.06-1.49-.49-3.4-2.64-6.57-5.62-8.28-.96-.55-1.29-1.77-.74-2.73.55-.96,1.77-1.28,2.73-.74,3.33,1.91,5.83,5.05,7,8.67,5.52-2.09,12.33-2.44,18.72-.89,6.77,1.64,12.99,5.83,17.07,11.48.65.9.44,2.15-.45,2.79-.35.25-.76.38-1.17.38Z"/><path class="cls-1" d="M256.83,288.2c-3.49,0-6.72-1.18-8.99-3.43-.78-.78-.79-2.04-.01-2.83.78-.79,2.04-.79,2.83-.01,2.75,2.73,7.36,2.68,10.7,1.42,3.9-1.47,6.94-4.09,10.23-7.11.79-.73,2.02-.7,2.77.07,4.62,4.67,11.81,6.38,17.1,4.07.58-.25,1.24-.22,1.79.09,4.22,2.39,9.37,3.24,14.13,2.33,5.26-1,10.45-3.86,13.23-7.3.53-.65,1.41-.9,2.2-.63,3.22,1.1,6.89,1.04,10.08-.18,3.12-1.19,6.5-4.14,8.2-7.16.3-.53.83-.9,1.43-.99.6-.1,1.22.09,1.67.51,4.01,3.7,9.63,5.49,15.04,4.78,5.7-.74,11.36-4.12,14.08-8.4.29-.46.76-.78,1.29-.89.54-.11,1.09,0,1.54.32,4.42,3.09,10.76,3.34,15.41.6,4.78-2.8,7.85-8.7,7.31-14.02-.06-.62.16-1.23.61-1.65.45-.43,1.07-.62,1.68-.53,6.99,1.1,14.59-2.59,18.06-8.76,3.51-6.23,2.72-15-1.84-20.42-.67-.79-.62-1.97.11-2.7,5.95-5.96,7.96-15.59,4.9-23.44-3.06-7.84-11.07-13.57-19.48-13.92-1.1-.05-1.96-.98-1.91-2.08.05-1.11,1.02-1.95,2.08-1.91,9.95.42,19.42,7.19,23.04,16.46,3.41,8.73,1.5,19.33-4.6,26.43,4.69,6.72,5.24,16.34,1.18,23.55-3.94,7-11.83,11.31-19.81,10.98-.31,6.1-3.97,12.33-9.32,15.47-5.48,3.22-12.5,3.27-18.04.26-3.6,4.5-9.59,7.8-15.79,8.61-5.81.76-11.8-.85-16.47-4.32-2.3,3.04-5.68,5.71-8.96,6.96-3.67,1.4-7.71,1.61-11.49.62-3.48,3.7-8.98,6.6-14.69,7.68-5.36,1.01-11.13.17-15.99-2.32-6.16,2.23-13.7.65-19.2-3.99-3.04,2.71-6.19,5.17-10.16,6.67-1.98.75-3.99,1.11-5.93,1.11Z"/><path class="cls-1" d="M51.19,438.89c-.14,0-.29-.02-.43-.06-10.27-3.08-21.26-3.65-31.79-1.65-.81.15-1.6-.38-1.75-1.19-.16-.81.38-1.6,1.19-1.75,10.76-2.05,21.98-1.53,32.5,1.51,12.92-9.18,31.1-13.59,47.82-11.58,14.17-10.93,30.35-18.9,48.12-23.7.8-.22,1.62.26,1.84,1.06s-.26,1.62-1.06,1.84c-17.58,4.74-33.58,12.66-47.55,23.55-.32.25-.71.36-1.12.3-16.4-2.13-34.37,2.23-46.88,11.39-.26.19-.57.29-.89.29Z"/><path class="cls-1" d="M453.95,435.04c-.11,0-.23-.01-.34-.04-13.05-3.07-24.48-2.89-38.69-1.63-.32.03-.62-.04-.88-.19-13.06-7.53-29.43-10.62-44.91-8.49-.4.05-.8-.05-1.12-.3-5-3.85-10.19-7.42-15.42-10.63-.71-.43-.93-1.36-.5-2.06.43-.71,1.36-.93,2.06-.5,5.15,3.16,10.26,6.67,15.18,10.43,15.79-2.03,32.41,1.13,45.78,8.71,13.91-1.22,25.93-1.38,39.17,1.74.81.19,1.31,1,1.12,1.8-.16.69-.78,1.16-1.46,1.16Z"/><path class="cls-1" d="M339.04,406.16c-.22,0-.44-.05-.65-.15-14.16-6.79-27.89-10.6-40.82-11.32-.83-.05-1.46-.75-1.41-1.58.04-.8.71-1.42,1.5-1.42.03,0,.06,0,.08,0,13.32.74,27.43,4.65,41.94,11.61.75.36,1.06,1.25.7,2-.26.54-.79.85-1.35.85Z"/><path class="cls-1" d="M200.88,355.87h0c-.55,0-1-.46-.99-1.01l.24-24.38c0-.55.45-.99,1-.99h0c.55,0,1,.46.99,1.01l-.24,24.38c0,.55-.45.99-1,.99Z"/><path class="cls-1" d="M207.25,357.3c-.55,0-1-.45-1-1v-21.27c0-.55.45-1,1-1s1,.45,1,1v21.27c0,.55-.45,1-1,1Z"/><path class="cls-1" d="M103.4,197.06c-.26,0-.52-.05-.76-.15-.49-.2-.88-.59-1.09-1.08-8.21-19.73-14.47-39.01-19.7-60.67-.22-.93.24-1.88,1.1-2.28,1.85-.86,3.72-1.72,5.6-2.58,1.81-.83,3.63-1.66,5.41-2.49.79-.37,1.73-.18,2.32.47,2.68,2.96,5.86,6.1,8.93,9.14,1.86,1.84,3.75,3.71,5.56,5.57-.05-5.56-.17-14.33-.42-19.25-.04-.77.36-1.49,1.04-1.86,3.74-2.04,11.34-4.3,11.66-4.39.88-.26,1.83.12,2.3.91,5.09,8.78,10.37,18.4,16.62,30.29.51.98.14,2.19-.84,2.7-.98.52-2.19.14-2.7-.84-5.89-11.22-10.92-20.41-15.74-28.77-2.04.65-5.74,1.87-8.28,3.05.34,8.09.4,23.05.4,23.21,0,.83-.5,1.57-1.28,1.87-.77.3-1.65.09-2.21-.52-2.68-2.96-5.86-6.1-8.93-9.14-2.74-2.71-5.56-5.51-8.08-8.21-1.36.63-2.73,1.25-4.1,1.88-1.37.63-2.74,1.25-4.09,1.88,4.94,20.15,10.81,38.25,18.38,56.67,1.52-.54,3.04-.97,4.52-1.39,1.5-.43,2.94-.84,4.35-1.34-1.13-4.51-2.43-9.28-3.7-13.9-1.43-5.23-2.91-10.65-4.14-15.71-.2-.83.15-1.7.87-2.16.72-.46,1.66-.41,2.33.13,2.6,2.1,5.22,4.03,7.75,5.9,1.6,1.18,3.23,2.38,4.88,3.64.11-1.78.24-3.76.37-5.73.23-3.47.45-6.94.59-9.33.05-.89.69-1.64,1.57-1.83.88-.2,1.77.22,2.19,1.01,2.49,4.64,4.96,9.43,7.36,14.07,2.12,4.1,4.3,8.32,6.5,12.45,4.18-1.63,8.14-3.19,11.69-5.63.91-.62,2.16-.39,2.78.52.62.91.39,2.16-.52,2.78-3.98,2.73-8.38,4.45-12.64,6.11l-1.51.59c-.94.38-2.02-.02-2.5-.92-2.49-4.64-4.96-9.43-7.36-14.07-1.32-2.55-2.67-5.15-4.02-7.75-.05.75-.1,1.5-.15,2.26-.23,3.53-.46,7.07-.61,9.51-.04.75-.5,1.41-1.19,1.71-.68.3-1.48.2-2.06-.27-2.6-2.1-5.22-4.03-7.75-5.9-1.08-.79-2.17-1.6-3.27-2.42.87,3.31,1.79,6.68,2.69,9.99,1.43,5.24,2.91,10.65,4.15,15.71.23.95-.26,1.94-1.17,2.32-2.15.91-4.31,1.52-6.4,2.12-2.06.59-4.01,1.15-5.94,1.96-.25.1-.51.16-.78.16Z"/><path class="cls-1" d="M158.37,175.05c-1.23,0-2.5-.12-3.81-.35-3.45-.62-6.68-2.68-9.08-5.8-3.46-4.5-4.61-10.58-2.98-15.87,1.69-5.49,6.3-9.86,11.77-11.14,5.66-1.32,11.83.79,15.36,5.26,1.81,2.29,2.54,4.8,2.07,7.08-.47,2.27-2.1,4.24-4.98,6.03-2.97,1.85-6.21,3.2-9.62,4-1.08.25-2.15-.41-2.41-1.49-.25-1.07.41-2.15,1.49-2.41,2.99-.71,5.83-1.88,8.43-3.51,1.9-1.18,2.94-2.31,3.17-3.45.22-1.08-.25-2.46-1.29-3.78-2.54-3.22-7.2-4.8-11.31-3.84-4.1.96-7.58,4.26-8.85,8.42-1.25,4.07-.36,8.77,2.33,12.26,1.77,2.3,4.18,3.86,6.62,4.3,3.93.71,11.09.64,14.83-7.7.45-1.01,1.64-1.46,2.64-1.01,1.01.45,1.46,1.64,1.01,2.64-3.01,6.71-8.5,10.35-15.38,10.35Z"/><path class="cls-1" d="M154.25,157.86c-.35,0-.7-.09-1.01-.28-.58-.34-.95-.96-.98-1.63-.04-.87-.16-3.52,2.35-4.74,1.8-.88,4.07-.56,5.64.79.51.44.76,1.1.68,1.76-.08.66-.49,1.24-1.09,1.54l-4.68,2.34c-.28.14-.59.21-.89.21Z"/><path class="cls-1" d="M284.02,178.31c-4.49,0-8.78-1.95-12.44-5.79-2.42-2.54-3.81-6.1-3.9-10.04-.14-5.68,2.53-11.26,6.96-14.57,4.6-3.43,10.91-4.24,16.07-2.04,5.35,2.27,9.08,7.62,9.29,13.32.11,2.92-.78,5.38-2.51,6.93-1.72,1.55-4.2,2.19-7.58,1.93-3.49-.26-6.9-1.09-10.13-2.45-1.02-.43-1.49-1.6-1.06-2.62.43-1.02,1.61-1.49,2.62-1.06,2.83,1.2,5.81,1.92,8.87,2.15,2.23.17,3.73-.13,4.6-.91.82-.74,1.25-2.13,1.19-3.82-.15-4.11-2.97-8.13-6.86-9.78-3.88-1.65-8.63-1.03-12.11,1.56-3.41,2.55-5.47,6.87-5.36,11.27.07,2.9,1.09,5.58,2.8,7.38,2.76,2.89,8.57,7.06,16.51,2.54.96-.55,2.18-.21,2.73.75.55.96.21,2.18-.75,2.73-2.98,1.7-6,2.54-8.94,2.54Z"/><path class="cls-1" d="M287.61,160c-.11,0-.22,0-.33-.03l-5.16-.88c-.67-.11-1.23-.56-1.5-1.18s-.2-1.34.17-1.9c.48-.73,1.96-2.94,4.69-2.44,1.97.36,3.61,1.95,4.08,3.97.15.65-.03,1.34-.49,1.83-.38.41-.91.63-1.46.63Z"/><path class="cls-1" d="M186.12,178.84c-4.61,0-9.01-2.86-11.63-7.62-3.63-6.61-2.99-15.41,1.57-21.42,4.23-5.57,10.27-8.37,16.52-7.79.03-.7.06-1.31.1-1.92.01-.19.02-.38.03-.57-2.19,1.01-5,1.84-8.31,1.79-5.8-.06-11.4-5.29-12.24-11.42-.79-5.84,2.65-11.85,8.18-14.3,4.13-1.83,8.37-1.74,12.06.17.01-.15.03-.31.04-.46.11-1.29.21-2.52.21-3.82,0-.54.22-1.06.61-1.44.39-.38.88-.59,1.46-.56,1.6.05,3.78.19,5.88.32,2.06.13,4.2.26,5.73.32,1.07.04,1.92.9,1.93,1.97.07,4.64-.02,9.88-.1,14.95-.08,5.05-.17,10.27-.1,14.85.02,1.1-.87,2.01-1.97,2.03h-.03c-1.09,0-1.98-.88-2-1.97-.07-4.65.02-9.9.1-14.98.07-4.36.14-8.85.12-12.94-1.23-.06-2.6-.15-3.93-.24-1.28-.08-2.59-.16-3.76-.23-.04.7-.1,1.39-.15,2.06-.11,1.29-.21,2.52-.21,3.82,0,.79-.47,1.51-1.19,1.83-.72.32-1.57.19-2.15-.35-3.12-2.82-6.99-3.42-10.92-1.69-3.88,1.72-6.39,6.06-5.84,10.11.57,4.2,4.46,7.92,8.32,7.96,4.13.06,7.14-1.54,9.3-2.93.62-.4,1.4-.42,2.05-.07.64.35,1.04,1.03,1.04,1.76,0,1.84-.08,3.06-.15,4.25s-.13,2.31-.14,4.04c0,.61-.28,1.18-.76,1.56-.48.38-1.11.52-1.69.38-5.58-1.31-10.99.85-14.83,5.91-3.63,4.79-4.15,11.81-1.25,17.07,1.58,2.88,4.7,5.84,8.69,5.53,3.83-.3,7.43-1.83,9.18-3.9,2.9-3.44,4.49-7.24,4.84-11.63.09-1.1,1.04-1.93,2.16-1.83,1.1.09,1.92,1.05,1.83,2.16-.43,5.25-2.32,9.79-5.77,13.89-2.44,2.89-7.01,4.93-11.92,5.31-.29.02-.58.03-.87.03Z"/><path class="cls-1" d="M186.75,168c-.72,0-1.44-.14-2.11-.43-2.18-.94-3.24-3.17-2.82-5.96h0c.96-6.37,7.41-7.98,10.66-7.94,1.04.01,1.89.81,1.97,1.84.02.24.43,6.01-2.64,9.93-1.27,1.63-3.19,2.54-5.06,2.54ZM185.78,162.22c-.1.64-.1,1.45.44,1.69.62.27,1.75-.03,2.44-.91,1.17-1.5,1.6-3.55,1.75-5.07-1.8.4-4.2,1.47-4.63,4.29h0Z"/><path class="cls-1" d="M186.17,131.76c-1,0-1.92-.42-2.56-1.18h0c-.6-.72-.88-1.73-.76-2.75.19-1.61,1.3-3,2.82-3.56,1.04-.38,2.11-.3,2.96.21.74.45,1.27,1.2,1.5,2.12.27,1.09.09,2.25-.49,3.21-.67,1.09-1.93,1.85-3.21,1.95-.09,0-.18,0-.27,0Z"/><path class="cls-1" d="M231.37,171.96c-.31,0-.62-.07-.91-.22-2.42-1.24-4.2-2.92-5.22-4.89-5.75,3.64-11.65,1.32-13.5.41-3.93-1.93-6.74-5.99-7.15-10.35-.41-4.36,1.59-8.88,5.1-11.51,1.18-.89,2.51-1.58,3.98-2.07-.4-.12-.75-.36-1.01-.69-1.64-2.11-4.04-7.05-4.31-7.6-.48-1-.06-2.19.93-2.67.99-.48,2.19-.06,2.67.93.47.97,1.58,3.17,2.6,4.94.99-.77,2.11-1.32,3.28-1.62,2.32-.58,4.76-.09,6.54,1.32,2.09,1.66,2.21,4.92,1.66,7.21-.24,1-1.19,1.66-2.21,1.52-5.24-.69-9.09-.06-11.75,1.93-2.42,1.81-3.79,4.92-3.51,7.93s2.22,5.81,4.93,7.14c1.95.96,6.96,2.71,11.38-1.62.55-.54,1.36-.71,2.08-.45.72.26,1.23.91,1.31,1.67.22,2.08,1.69,3.51,3.16,4.43,1.15-.59,2.79-1.46,4.39-2.31,2.25-1.2,4.38-2.33,5.5-2.87,1-.49,2.19-.07,2.67.92.49.99.07,2.19-.92,2.67-1.05.51-3.25,1.68-5.37,2.81-2.23,1.19-4.34,2.31-5.44,2.85-.28.14-.58.2-.88.2ZM219.76,140.39c-.32,0-.64.04-.96.12-1.11.28-2.18,1.04-2.96,2.09-.05.07-.11.14-.17.21,1.97-.4,4.18-.5,6.64-.31-.04-.72-.21-1.25-.42-1.41-.57-.45-1.34-.69-2.13-.69Z"/><path class="cls-1" d="M242.18,166.31s-.08,0-.12,0c-3.39-.2-6.4-1.92-8.05-4.61-1.74-2.82-1.95-6-1.81-8.18.08-1.38.22-2.77.35-4.12.32-3.3.63-6.41.26-9.45-.46-3.77-3.45-7.58-7.1-9.05-3.58-1.45-9.97-.11-14.05,4.58-.73.83-1.99.92-2.82.2-.83-.73-.92-1.99-.2-2.82,4.75-5.46,12.91-7.95,18.57-5.67,5,2.02,8.94,7.07,9.58,12.27.43,3.47.08,6.96-.25,10.32-.13,1.31-.26,2.67-.34,3.97-.14,2.26.3,4.33,1.22,5.84,1.15,1.86,3.27,2.62,4.88,2.71,1.1.07,1.94,1.01,1.88,2.11-.06,1.06-.94,1.88-2,1.88Z"/><path class="cls-1" d="M218.79,159.9c-1.34,0-2.97-.32-4.02-1.25h0c-.91-.8-1.46-1.95-1.54-3.24-.08-1.32.35-2.62,1.19-3.56,1.58-1.79,4.38-2.23,6.52-1.02,1.35.76,2.5,2.46,2.79,4.14.23,1.3-.07,2.51-.84,3.4-.97,1.12-2.46,1.44-3.54,1.51-.17.01-.36.02-.54.02ZM217.39,155.63c.45.29,1.87.35,2.4.12-.02-.41-.48-1.24-.83-1.44-.49-.28-1.23-.19-1.56.19-.13.15-.21.41-.19.66.01.2.08.38.18.47Z"/><path class="cls-1" d="M266.1,175.11c-1.49,0-2.98-.47-4.2-1.35-1.14-.83-2.08-2.07-2.63-3.4-5.07.5-10.12-.6-14.12-3.1-4.95-3.1-8.26-8.42-8.64-13.9-.43-6.21,2.57-12.14,7.47-14.76,5.21-2.78,12.21-3.46,16.71-.68.94-3.99,1.86-7.5,2.76-10.93,1.14-4.33,2.32-8.82,3.51-14.21.21-.93,1.01-1.61,1.99-1.57,4.12.07,8.71.85,12.92,2.2,1,.32,1.59,1.37,1.33,2.39-1.87,7.38-3.76,14.45-5.6,21.28-1.83,6.81-3.72,13.84-5.57,21.18-.27,1.07-1.36,1.72-2.43,1.45-1.07-.27-1.72-1.36-1.45-2.43,1.86-7.36,3.76-14.42,5.59-21.24,1.68-6.24,3.41-12.68,5.11-19.36-2.76-.75-5.64-1.24-8.35-1.41-1.08,4.75-2.15,8.8-3.18,12.73-1.14,4.33-2.32,8.82-3.51,14.21-.17.79-.81,1.4-1.6,1.54-.8.15-1.6-.21-2.04-.89-2.58-4.02-10.1-2.99-14.31-.74-3.48,1.86-5.68,6.36-5.36,10.95.29,4.22,2.89,8.36,6.77,10.79,3.65,2.29,8.44,3.12,13.14,2.3.56-.1,1.13.05,1.58.39.45.35.72.87.76,1.44.06.83.73,1.96,1.5,2.52.72.52,1.71.71,2.58.5,1.07-.27,2.16.38,2.43,1.45.27,1.07-.38,2.16-1.45,2.43-.56.14-1.13.21-1.7.21Z"/><path class="cls-1" d="M254.67,159.76c-.33,0-.67-.03-1.01-.09-2.57-.48-5.03-2.53-5.85-4.88-.64-1.82-.29-3.64.99-5.12h0c1.1-1.27,2.79-2.01,4.65-2.03h.07c2.17,0,4.27,1.03,5.5,2.69,1.44,1.95,1.51,4.71.16,6.87-1.02,1.64-2.7,2.57-4.51,2.57ZM251.83,152.29c-.33.39-.4.73-.25,1.18.35.99,1.66,2.05,2.81,2.26.21.04.88.16,1.39-.66.4-.64.54-1.66.01-2.37-.49-.66-1.38-1.1-2.32-1.07-.68,0-1.32.26-1.66.65h0Z"/><path class="cls-1" d="M308.39,185.8c-.19,0-.38-.03-.57-.08-3.98-1.18-7.66-3.15-11.22-5.06l-1.4-.75c-.48-.25-.83-.69-.98-1.21s-.08-1.08.19-1.55c5.97-10.34,10.02-21.55,12.04-33.33.09-.55.41-1.03.88-1.33.46-.31,1.03-.4,1.57-.27,1.67.41,3.45.55,5.34.7,1.97.15,4.01.31,6,.8.6.15,1.1.56,1.35,1.13.25.56.23,1.21-.06,1.76l-4.26,7.96c3.8.44,7.38,1.92,10.5,4.37.61.48.88,1.26.71,2.01-.33,1.47-.69,3.01-1.05,4.54-.37,1.57-.73,3.14-1.07,4.65-.14.63-.58,1.16-1.18,1.41-.6.25-1.28.19-1.83-.15-2.49-1.56-5.24-2.15-7.36-1.59-2.51.67-4.14,3.16-4.82,5.27-.88,2.71-.82,5.75-.77,8.7.01.64-.28,1.24-.79,1.63-.35.27-.78.41-1.21.41ZM298.89,177.34c2.44,1.31,4.94,2.63,7.49,3.64.03-2.34.22-4.79.99-7.15,1.31-4.03,4.15-6.98,7.59-7.9,2.44-.65,5.33-.35,8.08.8.17-.71.33-1.44.5-2.16.25-1.09.5-2.18.75-3.24-3.03-2.06-6.54-3.05-10.2-2.89-.73.03-1.4-.33-1.78-.93-.38-.61-.41-1.38-.07-2.01l4.47-8.35c-.89-.1-1.81-.18-2.76-.25-1.28-.1-2.6-.2-3.91-.4-2.07,10.83-5.82,21.19-11.14,30.84Z"/><path class="cls-1" d="M331.93,197.6c-4.71,0-9.81-2.51-12.05-6.22-2.07-3.43-3.03-8.31-2.4-12.13.65-3.95,2.02-7.11,2.08-7.24.44-1.01,1.62-1.48,2.63-1.03,1.01.44,1.47,1.62,1.03,2.63-.01.03-1.23,2.85-1.8,6.3-.47,2.86.32,6.81,1.88,9.41,1.79,2.96,6.73,4.92,10.37,4.1,3.68-.83,6.62-2.91,8.98-6.37,2.13-3.12,5.03-7.54,6.65-11.3-.72-.62-1.5-1.3-2.28-1.98-.41-.36-.82-.72-1.22-1.06-2.44,5.17-7.26,11.44-10.36,13.11-2.95,1.6-4.92.77-5.83.13-1.73-1.22-2.55-3.7-2.14-6.47.78-5.2,5.18-11.6,7.98-15.23-1.67-1.34-3.99-3.12-4.99-3.42-1.06-.32-1.65-1.44-1.33-2.5.32-1.06,1.44-1.65,2.5-1.33,1.87.57,4.65,2.76,7.57,5.14l.31.25c.41.33.67.82.73,1.35.05.53-.11,1.06-.44,1.47-4.71,5.77-7.84,11.33-8.37,14.86-.21,1.4.16,2.38.48,2.61.19.13.73.12,1.63-.37,2.31-1.25,8-8.55,9.54-13.53.2-.64.71-1.14,1.35-1.33.64-.19,1.34-.04,1.85.39,1,.84,2.19,1.88,3.38,2.92,1.17,1.02,2.35,2.05,3.33,2.88.64.54.87,1.42.59,2.21-1.59,4.37-4.91,9.49-7.62,13.46-2.92,4.27-6.75,6.97-11.4,8.02-.85.19-1.73.28-2.63.28Z"/><path class="cls-1" d="M329.58,391.14c-16.42,0-27.65-12.42-29.05-16.67-.47-1.41-.27-2.77.54-3.83.83-1.07,2.21-1.7,3.54-1.62,1.25.08,2.38.44,3.47.79.24.08.48.15.72.23,7.65,2.33,21.57-.79,24.88-4.59.83-.96.7-1.6.49-2.05-.22-.49-.87-1.26-1.61-2.16-2.87-3.46-8.22-9.89-7.75-21.82.71-18.19,16.53-27.57,31.04-27.15,18.63.53,29.76,14.15,32.21,26.58,2.51,12.73-3.09,23.82-14.62,28.94-.76.33-1.64,0-1.98-.76-.34-.76,0-1.64.76-1.98,12.16-5.4,14.63-16.78,12.89-25.62-2.23-11.3-12.36-23.67-29.35-24.16-13.13-.4-27.33,8-27.96,24.27-.42,10.78,4.27,16.42,7.06,19.79.92,1.1,1.64,1.97,2.03,2.82.81,1.76.47,3.64-.96,5.28-4.43,5.07-19.61,8.05-28.02,5.48-.25-.08-.51-.16-.77-.24-.96-.31-1.87-.6-2.75-.65-.24-.02-.71.12-.97.46-.07.09-.29.38-.07,1.05.92,2.76,11.69,15.83,28.48,14.53.81-.07,1.55.56,1.61,1.38.06.83-.56,1.55-1.38,1.61-.85.06-1.68.1-2.5.1Z"/><path class="cls-1" d="M348.79,419.31c-2,0-3.32-1.68-3.88-2.4-7.62-9.69-11.49-22.31-10.62-34.61.06-.83.79-1.47,1.6-1.39.83.06,1.45.78,1.39,1.6-.81,11.57,2.83,23.43,9.99,32.54.65.83,1.17,1.26,1.53,1.26h.01c.22,0,.81-.23,1.54-2.11l4.58-11.73c.3-.77,1.17-1.15,1.94-.85.77.3,1.15,1.17.85,1.94l-4.58,11.73c-.38.97-1.53,3.94-4.25,4.02-.04,0-.07,0-.11,0Z"/><path class="cls-1" d="M373.39,418.08c-.05,0-.11,0-.16,0-1.7-.06-3.44-.69-5.03-1.81-7.42-5.23-12.41-11.97-15.28-20.59-.26-.79.17-1.63.95-1.9.79-.26,1.63.17,1.9.95,2.69,8.1,7.19,14.17,14.16,19.09.78.55,2,1.21,3.42,1.27.78.05,2.1-.73,2.14-1.69.08-1.75-1.09-9.32-2.26-15.64-.1-.55.11-1.12.56-1.46.45-.34,1.05-.41,1.56-.17,8.9,4.23,19.21,4.83,29.05,1.68.76-.24,1.55-.52,2.1-.99.41-.34.65-.83.6-1.17-.11-.66-1.17-1.23-2.09-1.65l-22.3-10.32c-.75-.35-1.08-1.24-.73-1.99.35-.75,1.24-1.08,1.99-.73l22.3,10.32c1.11.51,3.41,1.58,3.79,3.89.23,1.4-.39,2.92-1.62,3.95-.97.82-2.12,1.23-3.12,1.55-9.62,3.08-19.68,2.82-28.63-.69.85,4.83,1.91,11.51,1.81,13.56-.12,2.65-2.75,4.55-5.09,4.55Z"/><path class="cls-1" d="M400.06,382.93c-.5,0-.98-.25-1.27-.7-.44-.7-.23-1.63.47-2.07,5.17-3.28,9.37-7.89,12.14-13.36.51-1,.99-2.08,1.09-3.17.09-.97-.18-1.88-.71-2.39-.56-.53-1.54-.76-2.61-.61-1.04.15-2.08.6-3.18,1.07l-.34.15c-9.46,4.04-19.88,5.9-30.15,5.38-.83-.04-1.46-.75-1.42-1.57s.75-1.45,1.57-1.42c9.81.49,19.78-1.29,28.82-5.15l.34-.14c1.23-.53,2.5-1.08,3.93-1.28,2.01-.29,3.87.22,5.11,1.4,1.2,1.14,1.81,2.95,1.63,4.84-.15,1.59-.79,3.04-1.4,4.24-3.01,5.95-7.58,10.98-13.21,14.54-.25.16-.53.23-.8.23Z"/><path class="cls-1" d="M368.24,317.7c-.18,0-.36-.03-.54-.1-.77-.3-1.16-1.17-.86-1.94.63-1.62,1.22-3.22,1.81-4.82.59-1.61,1.19-3.22,1.82-4.86.26-.68.98-1.07,1.68-.93,3.47.67,7.15.69,10.63.05,1.25-.23,2.66-.59,3.58-1.45,1.29-1.21,1.43-3.57.3-5.16-1.11-1.57-3.3-2.42-5.46-2.15-1.99.26-4.04,1.48-5.64,3.35-.46.53-1.22.68-1.84.35-.62-.33-.93-1.04-.75-1.72.73-2.69,1.55-5.74,1.05-8.52-.41-2.3-2.16-4.85-4.6-5.03-1.75-.15-3.35.98-4.14,1.66-2.56,2.19-3.99,5.77-3.64,9.12.36,3.4,2.57,6.76,5.5,8.36.4.22.68.6.76,1.05.08.45-.04.91-.34,1.25-2,2.31-3.33,5.12-3.85,8.13-.14.82-.93,1.35-1.73,1.22-.82-.14-1.36-.92-1.22-1.73.51-2.98,1.71-5.8,3.48-8.24-3.04-2.26-5.17-5.91-5.57-9.73-.46-4.37,1.33-8.86,4.68-11.71,1.97-1.68,4.21-2.52,6.31-2.37,3.99.3,6.71,4,7.33,7.5.33,1.84.22,3.67-.08,5.43,1.25-.71,2.57-1.17,3.91-1.34,3.27-.43,6.53.9,8.29,3.39,1.98,2.79,1.67,6.86-.7,9.08-1.49,1.4-3.5,1.92-5.09,2.21-3.48.64-7.01.7-10.5.17-.47,1.23-.92,2.45-1.37,3.67-.59,1.61-1.19,3.22-1.82,4.86-.23.6-.8.96-1.4.96Z"/><path class="cls-1" d="M350.55,340.21c-.39,0-.76-.23-.92-.6-.22-.51.01-1.1.52-1.31,1.88-.81,2.98-3.18,2.41-5.17-.57-1.99-2.73-3.44-4.81-3.22-2.08.21-3.92,2.01-4.2,4.11-.17,1.32.23,2.72,1.09,3.75.36.42.3,1.05-.12,1.41-.42.36-1.05.3-1.41-.12-1.21-1.44-1.79-3.42-1.54-5.29.4-3.03,2.97-5.54,5.98-5.84,3.06-.31,6.09,1.74,6.93,4.66.85,2.96-.74,6.35-3.54,7.56-.13.06-.26.08-.4.08Z"/><path class="cls-1" d="M370.88,345.17c-.4,0-.79-.25-.94-.65-.19-.52.07-1.09.58-1.29,1.51-.57,2.63-2.09,2.73-3.71.09-1.61-.85-3.25-2.29-3.99-1.44-.73-3.32-.53-4.57.49-1.25,1.02-1.82,2.83-1.39,4.38.15.53-.16,1.08-.7,1.23-.53.15-1.08-.16-1.23-.7-.64-2.3.21-4.96,2.05-6.47,1.88-1.53,4.59-1.82,6.75-.73,2.16,1.1,3.52,3.46,3.38,5.88-.14,2.42-1.75,4.62-4.02,5.47-.12.04-.23.06-.35.06Z"/><path class="cls-1" d="M370.4,341.09c-.27,0-.54-.11-.74-.33-1.13-1.23-2.56-2.16-4.15-2.68-.52-.17-.81-.74-.64-1.26.17-.52.73-.81,1.26-.64,1.91.63,3.64,1.74,5,3.23.37.41.34,1.04-.06,1.41-.19.18-.43.26-.67.26Z"/><path class="cls-1" d="M342.98,337.05c-.36,0-.71-.19-.89-.54-.26-.49-.07-1.09.42-1.35,1.91-1,4.03-1.55,6.22-1.5.55,0,1,.46.99,1.01,0,.55-.45.99-1,.99-.01,0-.06,0-.09,0-1.8,0-3.6.44-5.19,1.28-.15.08-.31.11-.46.11Z"/><path class="cls-1" d="M365.83,354.36c-.29,0-.58-.13-.78-.37l-1.83-2.28-2.43,1.76c-.22.16-.5.22-.77.17-.27-.05-.51-.21-.66-.43l-1.88-2.85-3.29,1.82c-.24.13-.52.16-.78.08-.26-.08-.48-.26-.6-.5l-1.48-2.93-3.14,1.76c-.24.14-.53.16-.79.08-.26-.08-.48-.27-.6-.52l-2.35-4.85c-.24-.5-.03-1.1.46-1.34.5-.24,1.1-.03,1.34.46l1.89,3.9,3.12-1.76c.24-.13.52-.16.78-.08.26.08.48.26.6.51l1.48,2.93,3.19-1.76c.46-.25,1.03-.11,1.32.33l1.81,2.75,2.35-1.71c.43-.31,1.03-.23,1.37.18l1.87,2.33,2.48-1.55c.47-.29,1.08-.15,1.38.32.29.47.15,1.08-.32,1.38l-3.23,2.02c-.16.1-.35.15-.53.15Z"/><path class="cls-1" d="M356.13,359.2c-.49,0-1.01-.06-1.55-.2-5.13-1.32-5.67-7.55-5.84-9.6-.05-.55.36-1.03.91-1.08.53-.07,1.04.36,1.08.91.4,4.62,1.82,7.18,4.35,7.83,3.05.78,5.06-1.81,7.32-6.24.25-.49.85-.69,1.34-.44.49.25.69.85.44,1.34-1.37,2.7-3.8,7.48-8.04,7.48Z"/><path class="cls-1" d="M369.59,302.44s-.06,0-.1,0c-.55-.05-.95-.54-.9-1.09.33-3.4-.21-6.85-1.55-9.99-.22-.51.02-1.1.53-1.31.5-.22,1.09.02,1.31.53,1.48,3.45,2.07,7.24,1.7,10.97-.05.52-.49.9-.99.9Z"/><path class="cls-1" d="M363.6,377.86c-.62,0-1.26-.07-1.9-.21-2.02-.44-4.03-1.57-6.12-3.43-.62-.55-.68-1.5-.12-2.12.55-.62,1.5-.68,2.12-.12,1.7,1.51,3.26,2.41,4.77,2.74,1.72.38,3.46-.05,4.44-1.09,1.22-1.29,1.23-3.68.02-5.22-1.19-1.52-3.43-2.31-5.59-1.96-2.11.33-4.11,1.5-5.62,3.29-.3.36-.75.53-1.23.53.16.1.3.24.42.41.47.68.29,1.62-.39,2.08-1.96,1.34-4.11,2.63-6.57,3.07-2.94.53-5.89-.43-7.5-2.44-2.39-2.99-1.43-7.24.69-9.72,1.24-1.45,2.81-2.4,4.42-2.69,2.18-.39,4.55.38,6.52,2.11,1.1.97,1.98,2.13,2.75,3.28,1.75-1.53,3.83-2.53,6.03-2.88,3.26-.52,6.56.69,8.43,3.08,2.13,2.73,2.04,6.74-.21,9.13-1.32,1.4-3.28,2.17-5.37,2.17ZM346.56,363.88c-.2,0-.4.02-.59.05-.93.17-1.88.77-2.67,1.69-1.33,1.56-1.95,4.25-.63,5.9.93,1.17,2.75,1.7,4.63,1.36,1.8-.32,3.46-1.27,5.4-2.6.28-.19.6-.27.93-.26-.18-.12-.34-.28-.45-.47-.93-1.52-1.9-3.08-3.19-4.21-1.07-.94-2.32-1.46-3.43-1.46Z"/><path class="cls-1" d="M361.24,371.81c-.09,0-.19-.01-.28-.04-1.87-.55-3.92-.56-5.79-.01-.54.15-1.09-.15-1.24-.68-.15-.53.15-1.09.68-1.24,2.23-.65,4.69-.64,6.92.02.53.16.83.71.68,1.24-.13.44-.53.72-.96.72Z"/><path class="cls-1" d="M352.69,371.1c-.2,0-.39-.06-.57-.18-1.38-.95-3.06-1.49-4.73-1.51-.55,0-1-.46-.99-1.01,0-.55.45-.99,1-.99h.01c2.07.02,4.14.69,5.84,1.87.45.32.57.94.25,1.39-.19.28-.51.43-.82.43Z"/><path class="cls-1" d="M380.38,373.51c-.21,0-.42-.06-.6-.2-.44-.33-.53-.96-.2-1.4,1.15-1.54,1.95-3.34,2.33-5.22.11-.54.63-.9,1.18-.79.54.11.89.63.79,1.18-.43,2.17-1.36,4.26-2.69,6.03-.2.26-.5.4-.8.4Z"/><path class="cls-1" d="M386.11,371.79s-.04,0-.06,0c-.55-.03-.97-.51-.94-1.06l.23-3.99c.03-.55.52-.96,1.06-.94.55.03.97.51.94,1.06l-.23,3.99c-.03.53-.47.94-1,.94Z"/><path class="cls-1" d="M424.29,374.25c-6.18,0-10.42-1.86-11.42-3.01l-.98-1.13c-.54-.63-.48-1.57.15-2.12.62-.54,1.57-.48,2.12.15l.98,1.13c.79.76,7.01,3.13,15.6,1.26,8.47-1.84,13.27-5.6,13.64-8.36.22-1.67-.62-5.09-.96-6.27-.09-.31-.08-.65.04-.96l8.07-21.13-1.68.41-11.65,16.53c-.39.55-1.11.78-1.74.54-5.59-2.04-14.62-.93-18.95,2.35-1.26.96-2.05,2.44-2.01,3.77.03.83-.62,1.52-1.45,1.55-.81.05-1.52-.62-1.55-1.45-.07-2.31,1.15-4.71,3.2-6.26,4.91-3.72,14.11-5.06,20.69-3.14l11.34-16.08c.21-.3.52-.51.87-.59l5-1.21c.54-.13,1.11.05,1.48.47s.47,1.01.28,1.53l-8.92,23.33c.36,1.33,1.21,4.82.92,7.01-.62,4.64-6.89,8.92-15.97,10.9-2.56.56-4.94.78-7.09.78Z"/><path class="cls-1" d="M424.53,358c-2.1,0-4.19-.47-6.08-1.38-.75-.36-1.06-1.26-.7-2s1.25-1.06,2-.7c2.04.99,4.4,1.32,6.64.92,2.24-.39,4.34-1.51,5.93-3.14.58-.59,1.53-.61,2.12-.03.59.58.61,1.53.03,2.12-2.02,2.08-4.7,3.5-7.56,4-.79.14-1.59.21-2.39.21Z"/><path class="cls-1" d="M402.63,361.37c-.5,0-.99-.25-1.28-.71-1.63-2.64-1.5-6.24.32-8.76,1.82-2.52,5.19-3.77,8.21-3.06,3.02.71,5.47,3.35,5.97,6.42.13.82-.42,1.59-1.24,1.72-.83.14-1.59-.42-1.72-1.24-.3-1.87-1.86-3.54-3.7-3.98-1.84-.44-3.98.36-5.09,1.89-1.11,1.53-1.19,3.82-.2,5.43.43.71.21,1.63-.49,2.06-.25.15-.52.22-.79.22Z"/><path class="cls-1" d="M104.64,395.54c-13.31,0-24.13-9.2-24.13-20.51s10.83-20.51,24.13-20.51,24.13,9.2,24.13,20.51-10.83,20.51-24.13,20.51ZM104.64,357.52c-11.65,0-21.13,7.86-21.13,17.51s9.48,17.51,21.13,17.51,21.13-7.85,21.13-17.51-9.48-17.51-21.13-17.51Z"/><path class="cls-1" d="M66.15,420.37c-.83,0-1.5-.67-1.5-1.5s.67-1.5,1.5-1.5c6.66,0,12.08-4.44,12.08-9.91s-5.42-9.91-12.08-9.91-12.08,4.44-12.08,9.91c0,3.51,2.3,6.79,6.01,8.56.75.36,1.06,1.25.7,2s-1.25,1.06-2,.7c-4.76-2.28-7.71-6.6-7.71-11.27,0-7.12,6.76-12.91,15.08-12.91s15.08,5.79,15.08,12.91-6.76,12.91-15.08,12.91Z"/><path class="cls-1" d="M101.04,356.58c-.75,0-1.39-.56-1.49-1.32l-1.11-9.15c-.1-.82.49-1.57,1.31-1.67.83-.09,1.57.49,1.67,1.31l1.11,9.15c.1.82-.49,1.57-1.31,1.67-.06,0-.12.01-.18.01Z"/><path class="cls-1" d="M116.68,359.14c-.33,0-.66-.11-.93-.32-.65-.51-.76-1.46-.24-2.11l4.82-6.08c.52-.65,1.46-.76,2.11-.24.65.51.76,1.46.24,2.11l-4.82,6.08c-.3.37-.73.57-1.18.57Z"/><path class="cls-1" d="M125.73,367.14c-.45,0-.9-.2-1.2-.59-.5-.66-.37-1.6.29-2.1l5.22-3.96c.66-.5,1.6-.37,2.1.29.5.66.37,1.6-.29,2.1l-5.22,3.96c-.27.21-.59.31-.91.31Z"/><path class="cls-1" d="M136.61,377.3h-8.24c-.83,0-1.5-.67-1.5-1.5s.67-1.5,1.5-1.5h8.24c.83,0,1.5.67,1.5,1.5s-.67,1.5-1.5,1.5Z"/><path class="cls-1" d="M128.07,391.77c-.2,0-.4-.04-.6-.12l-5.49-2.38c-.76-.33-1.11-1.21-.78-1.97.33-.76,1.21-1.11,1.97-.78l5.49,2.38c.76.33,1.11,1.21.78,1.97-.25.57-.8.9-1.38.9Z"/><path class="cls-1" d="M112.47,401.47c-.7,0-1.33-.5-1.47-1.21l-1.24-6.33c-.16-.81.37-1.6,1.18-1.76.81-.16,1.6.37,1.76,1.18l1.24,6.33c.16.81-.37,1.6-1.18,1.76-.1.02-.19.03-.29.03Z"/><path class="cls-1" d="M93.81,400.51c-.2,0-.41-.04-.61-.13-.76-.33-1.1-1.22-.77-1.98.43-.98.82-1.78,1.2-2.58.37-.78.75-1.57,1.17-2.53.33-.76,1.22-1.1,1.98-.77.76.33,1.1,1.22.77,1.98-.44.99-.82,1.79-1.21,2.6-.37.78-.74,1.56-1.16,2.51-.25.56-.8.89-1.37.89Z"/><path class="cls-1" d="M79.19,392.38c-.46,0-.9-.21-1.2-.6-.5-.66-.37-1.6.3-2.1.95-.72,1.86-1.39,2.76-2.05.9-.67,1.8-1.33,2.75-2.05.66-.5,1.6-.37,2.1.3.5.66.37,1.6-.3,2.1-.96.72-1.87,1.39-2.78,2.06-.9.66-1.79,1.33-2.74,2.04-.27.2-.59.3-.9.3Z"/><path class="cls-1" d="M80.71,376.98s-.06,0-.09,0l-8.45-.51c-.83-.05-1.46-.76-1.41-1.59.05-.83.76-1.45,1.59-1.41l8.45.51c.83.05,1.46.76,1.41,1.59-.05.8-.71,1.41-1.5,1.41Z"/><path class="cls-1" d="M84.62,365.4c-.28,0-.56-.08-.81-.24l-5.93-3.78c-.7-.45-.9-1.37-.46-2.07s1.37-.9,2.07-.46l5.93,3.78c.7.45.9,1.37.46,2.07-.29.45-.77.69-1.27.69Z"/><path class="cls-1" d="M59.83,398.55c-.67,0-1.28-.45-1.45-1.13l-1.21-4.82c-.2-.8.29-1.62,1.09-1.82.8-.2,1.62.29,1.82,1.09l1.21,4.82c.2.8-.29,1.62-1.09,1.82-.12.03-.25.04-.37.04Z"/><path class="cls-1" d="M53.21,403.84c-.14,0-.29-.02-.43-.06l-4.69-1.39c-.79-.24-1.25-1.07-1.01-1.86.24-.79,1.07-1.25,1.86-1.01l4.69,1.39c.79.24,1.25,1.07,1.01,1.86-.19.65-.79,1.07-1.44,1.07Z"/><path class="cls-1" d="M47.36,412.38c-.66,0-1.26-.43-1.44-1.1-.22-.8.25-1.62,1.04-1.85l4.6-1.28c.8-.22,1.62.25,1.85,1.04.22.8-.25,1.62-1.04,1.85l-4.59,1.28c-.13.04-.27.05-.4.05Z"/><path class="cls-1" d="M96.42,375.37c-2.1,0-4.17-1.51-4.88-3.7-.85-2.64.21-5.9,2.52-7.74,2.06-1.64,4.59-1.77,6.94-.37,1.33.79,2.29,2.13,2.65,3.68.41,1.75.02,3.66-1.09,5.36-.3.46-.92.59-1.38.29-.46-.3-.59-.92-.29-1.38,1.04-1.6,1.02-2.96.82-3.82-.24-1.02-.87-1.89-1.73-2.41-2.19-1.31-3.86-.42-4.67.22-1.66,1.32-2.46,3.71-1.86,5.56.49,1.51,2.1,2.57,3.47,2.26.54-.12,1.07.22,1.19.76.12.54-.22,1.07-.76,1.19-.3.07-.61.1-.92.1Z"/><path class="cls-1" d="M105.47,372.91c-.22,0-.43-.07-.62-.21-1.55-1.22-2.53-3.01-2.7-4.9-.17-1.97.6-3.99,2.01-5.29,1.49-1.36,3.67-1.88,5.55-1.33,2.05.6,3.67,2.41,4.14,4.61.42,1.98-.11,4.2-1.42,5.93-.33.44-.96.53-1.4.19-.44-.33-.53-.96-.19-1.4.96-1.27,1.36-2.88,1.06-4.3-.31-1.47-1.42-2.71-2.75-3.1-1.23-.36-2.66-.01-3.64.88-.96.88-1.49,2.27-1.37,3.63.12,1.33.85,2.64,1.95,3.51.43.34.51.97.17,1.4-.2.25-.49.38-.79.38Z"/><path class="cls-1" d="M62.44,408.62c-.47,0-.89-.34-.98-.82-.27-1.45.03-2.84.81-3.81,1.02-1.27,2.83-1.66,4.11-.88.2.12.41.27.62.44.14-.81.55-1.51,1.15-1.93,1.02-.72,2.5-.6,3.6.3.85.69,1.33,1.67,1.72,2.45.24.5.04,1.09-.46,1.34-.49.24-1.1.04-1.34-.46-.33-.67-.67-1.37-1.18-1.78-.38-.31-.92-.41-1.19-.22-.18.13-.31.42-.34.76-.01.15-.03.33-.06.53-.05.43-.15,1.24-.09,1.51.11.52-.22,1.04-.74,1.17-.52.12-1.05-.17-1.2-.69-.16-.54-.85-1.32-1.51-1.72-.43-.26-1.14-.06-1.53.42-.41.51-.56,1.33-.4,2.19.1.54-.26,1.06-.8,1.17-.06.01-.12.02-.18.02Z"/><circle class="cls-1" cx="97.87" cy="367.32" r="3.02"/><circle class="cls-1" cx="108.2" cy="365.64" r="3.02"/><path class="cls-1" d="M72.63,356.29c-.46,0-.87-.32-.97-.78-.6-2.61-2.19-7.23-6.09-8.83-.45-.19-.7-.67-.59-1.15.11-.47.56-.81,1.03-.78.33.01.7-.16,1.02-.46.38-.37.68-.9.92-1.36,1.23-2.34,2.08-4.83,2.53-7.42.03-.53.11-1.07.23-1.59.12-.52.62-.84,1.14-.76.52.09.88.57.82,1.1-.06.5-.13.99-.21,1.48-.08,1.55.31,3.08,1.15,4.42,1.08,1.74,2.84,3.02,4.83,3.49.46.11.78.53.77,1.01-.02.47-.36.87-.83.95-1.67.28-3.2,1.65-3.99,3.56-.81,1.95-.83,4.17-.76,6.08.02.52-.35.96-.87,1.03-.04,0-.09,0-.13,0ZM68.23,345.89c1.47,1.06,2.72,2.58,3.7,4.48.14-.66.34-1.32.6-1.97.65-1.59,1.72-2.9,3.01-3.75-1.47-.81-2.74-2-3.63-3.44-.22-.35-.41-.71-.58-1.08-.44,1.28-.98,2.52-1.62,3.73-.32.6-.71,1.3-1.31,1.87-.06.05-.12.11-.17.16Z"/><path class="cls-1" d="M59.35,368.66s-.09,0-.14,0c-.54-.08-.92-.57-.85-1.12.15-1.17-.24-2.47-1.04-3.48-.76-.96-2.03-1.67-3.24-1.8-.42-.05-.76-.34-.86-.75s.06-.83.4-1.07c2.56-1.78,4.14-4.81,4.12-7.93,0-.54.42-.98.95-1,.56-.01,1,.38,1.04.91.28,3.16,2.16,6.23,4.79,7.82.39.23.57.7.45,1.13-.12.43-.5.71-.98.72-1.15,0-2.09.91-2.58,1.78-.64,1.16-.86,2.57-1.07,3.94-.08.49-.5.85-.99.85ZM56.27,360.81c1.02.46,1.94,1.15,2.61,2.01.17.22.33.45.47.68.09-.2.19-.41.3-.6.55-.98,1.29-1.74,2.13-2.22-1.19-1.07-2.17-2.41-2.88-3.88-.59,1.5-1.49,2.87-2.64,4.01Z"/><path class="cls-1" d="M180.11,256.22c-1.69,7.19-7.77,13.16-14.99,14.73-1.13,4.23-4.13,8.09-8.31,9.38-4.18,1.29-8.99.29-12.31-2.56-2.63,4.52-7.8,7.59-13.03,7.83s-12.4-2.22-15.44-6.47l1.28,7.27,11.72,6.09,12.54-1.63,11.71,5.59,9.23-3.08,7.01-6.55,13.95,1.78,9.41-3.73v-19.31l-12.79-9.34Z"/><path class="cls-1" d="M255.56,260.34c2.33,4,6.72,6.73,11.34,7.06,4.62.33,9.35-1.76,12.22-5.39,1.93,3.19,3.86,5.3,7.34,6.05,3.48.75,6.11.07,9.79-2,1.45,3.23,4.3,5.98,7.83,6.27s7.15-1.48,9.1-4.44c3.54,3.17,7.71,5.36,12.43,5.9s9.6-.43,13.76-2.72l-5.79,5.5-11.44.2-12.15,7.46-11.84.29-7.48-1.74-11.57-.9-7.31-4.44-9.73,7.08h-10.63l-3.81-1.96v-13.57l7.93-8.65Z"/></g></svg>