<?xml version="1.0" encoding="UTF-8"?><svg id="_レイヤー_2" xmlns="http://www.w3.org/2000/svg" viewBox="0 0 1039 117.01"><defs><style>.cls-1{fill-rule:evenodd;}.cls-1,.cls-2,.cls-3{stroke-width:0px;}.cls-1,.cls-3{fill:#fff;}.cls-4{isolation:isolate;}.cls-2{fill:#608b47;}</style></defs><g id="Livello_9"><rect class="cls-2" x="0" y="0" width="1039" height="117.01" rx="58.51" ry="58.51"/><path class="cls-1" d="m353.31,57.47v2.65c0,2.69.03,5.23.1,7.61.07,2.38.21,4.68.43,6.88-.79-.09-1.57-.13-2.34-.13h-4.68c-.77,0-1.59.04-2.47.13l.26-4.76h-.13c-1.23,1.85-2.67,3.25-4.31,4.2-1.65.95-3.52,1.42-5.63,1.42-3.29,0-5.83-.93-7.61-2.78-1.78-1.85-2.67-4.92-2.67-9.19,0-2.25.04-4.23.13-5.95s.13-3.44.13-5.16c0-1.41-.03-2.94-.1-4.6-.07-1.65-.14-3.32-.23-5,.57.09,1.29.17,2.17.23.88.07,1.8.1,2.77.1s1.89-.03,2.77-.1c.88-.07,1.6-.14,2.17-.23-.31,2.38-.5,5.14-.59,8.27-.09,3.13-.13,6.7-.13,10.72,0,2.78.47,4.82,1.42,6.12.94,1.3,2.27,1.95,3.98,1.95,1.98,0,3.43-.86,4.35-2.58.92-1.72,1.38-4.1,1.38-7.15v-2.65c0-2.69-.03-5.21-.1-7.57-.07-2.36-.21-4.73-.43-7.11,1.23.22,2.88.33,4.94.33,1.01,0,1.93-.03,2.77-.1.83-.07,1.56-.14,2.17-.23-.22,2.38-.36,4.75-.43,7.11-.07,2.36-.1,4.89-.1,7.57Zm-32.98-10.52v3.24c0,.4.02.77.07,1.12l-.59.53c-.44-.26-.93-.49-1.48-.66-.55-.18-1.18-.26-1.88-.26-1.98,0-3.53.65-4.68,1.95-1.14,1.3-1.71,2.84-1.71,4.6v2.65c0,2.69.03,5.23.1,7.61.07,2.38.21,4.68.43,6.88-.57-.09-1.28-.13-2.13-.13h-5.53c-.83,0-1.55.04-2.16.13.19-2.21.32-4.5.37-6.88.06-2.38.09-4.92.09-7.61v-2.65c0-2.69-.03-5.21-.09-7.57-.06-2.36-.18-4.73-.37-7.11.74.09,1.49.17,2.25.23.76.07,1.51.1,2.26.1s1.49-.03,2.26-.1c.76-.07,1.51-.14,2.26-.23l-.2,8.07.13.13c1.14-3.04,2.52-5.28,4.15-6.71,1.62-1.43,3.56-2.15,5.8-2.15.22,0,.41,0,.56.03.15.02.32.03.49.03-.13.66-.23,1.37-.3,2.11-.07.75-.1,1.63-.1,2.65Zm-42.81,11.84c0,1.76.17,3.42.53,4.96.35,1.54.89,2.88,1.61,4,.72,1.12,1.65,2.01,2.77,2.65,1.12.64,2.42.96,3.92.96,3.03,0,5.73-.99,8.1-2.97l.79.6-1.45,3.7c-1.1.84-2.42,1.51-3.95,2.02-1.54.51-3.56.76-6.06.76-2.15,0-4.19-.3-6.12-.89-1.93-.59-3.63-1.58-5.1-2.94-1.47-1.37-2.63-3.1-3.49-5.2-.86-2.09-1.28-4.6-1.28-7.51s.38-5.36,1.15-7.47c.77-2.12,1.83-3.88,3.2-5.29,1.36-1.41,2.97-2.47,4.84-3.18,1.87-.7,3.9-1.06,6.09-1.06,4.35,0,7.67,1.28,9.98,3.84,2.31,2.56,3.46,6.18,3.46,10.85v1.39c0,.4-.02.66-.07.79h-18.9Zm8.92-10.91c-.73-1.98-1.94-2.97-3.65-2.97-.97,0-1.78.33-2.44.99-.66.66-1.19,1.51-1.58,2.55-.39,1.04-.69,2.2-.89,3.5s-.32,2.59-.36,3.87h10.15c-.09-3.31-.5-5.95-1.22-7.94Zm-23.35,15.94c.09,3.62.22,7.21.39,10.78-.57-.09-1.3-.13-2.17-.13h-5.3c-.81,0-1.44.04-1.88.13.04-.09.09-.37.13-.86.04-.48.1-1.03.16-1.65.07-.62.12-1.19.17-1.72.04-.53.06-.86.06-.99l-.13-.13c-.83,1.98-1.98,3.52-3.42,4.6-1.45,1.08-3.45,1.62-5.99,1.62-2.24,0-4.15-.43-5.73-1.29-1.58-.86-2.88-2.06-3.88-3.61-1.01-1.54-1.76-3.35-2.24-5.42s-.73-4.3-.73-6.68.33-4.58.99-6.58c.66-2.01,1.56-3.75,2.7-5.22,1.14-1.48,2.49-2.63,4.05-3.47,1.56-.84,3.22-1.26,4.97-1.26,1.98,0,3.74.47,5.3,1.39,1.56.92,2.71,2.09,3.46,3.5h.13c0-3.97-.04-7.71-.13-11.21-.09-3.51-.22-7.13-.4-10.88.57.09,1.3.16,2.17.23.88.07,1.8.1,2.77.1s1.89-.03,2.77-.1c.88-.07,1.6-.14,2.17-.23-.18,3.71-.31,7.37-.39,10.98-.09,3.62-.13,7.59-.13,11.91v4.3c0,4.32.04,8.29.13,11.91Zm-10.61-14.52c-1.1-1.87-2.5-2.81-4.21-2.81-.7,0-1.41.2-2.11.6-.7.4-1.34,1.09-1.91,2.09-.57.99-1.04,2.33-1.41,4-.37,1.68-.56,3.77-.56,6.29,0,2.25.15,4.15.46,5.69.3,1.54.72,2.79,1.25,3.74.53.95,1.13,1.63,1.81,2.05.68.42,1.39.63,2.14.63,1.8,0,3.28-1.02,4.45-3.08s1.74-5.46,1.74-10.22c0-4.1-.55-7.09-1.65-8.96Zm-27.43,26.16c-1.62,0-2.94-.4-3.95-1.19-1.01-.79-1.78-1.94-2.31-3.44-1.01,1.41-2.19,2.54-3.52,3.37-1.34.84-3.02,1.26-5.04,1.26-1.67,0-3.09-.22-4.28-.66-1.19-.44-2.17-1.07-2.93-1.89-.77-.81-1.33-1.74-1.68-2.78-.35-1.03-.53-2.08-.53-3.14,0-1.46.23-2.71.69-3.77.46-1.06,1.12-1.96,1.98-2.71.86-.75,1.88-1.38,3.06-1.88,1.19-.51,2.53-.94,4.02-1.29,1.85-.44,3.3-.83,4.38-1.16,1.08-.33,1.88-.66,2.4-.99.53-.33.87-.69,1.02-1.09.15-.4.23-.88.23-1.46,0-1.59-.56-2.95-1.68-4.07-1.12-1.12-2.67-1.69-4.64-1.69-.75,0-1.51.1-2.31.3-.79.2-1.55.48-2.27.83-.73.35-1.38.74-1.98,1.16-.59.42-1.04.87-1.35,1.36h-.46l-.86-3.97c1.85-1.5,3.83-2.64,5.96-3.44,2.13-.79,4.25-1.19,6.36-1.19,1.75,0,3.37.2,4.84.6,1.47.39,2.75,1.02,3.82,1.88,1.07.86,1.91,1.97,2.5,3.34.59,1.37.89,3.02.89,4.96,0,2.82-.03,5.44-.1,7.84-.07,2.4-.1,4.8-.1,7.18,0,1.06.08,1.89.23,2.48.15.6.38,1.05.69,1.36.31.31.71.51,1.22.6.5.09,1.09.13,1.74.13v1.59c-1.27.53-2.35.93-3.23,1.19-.88.26-1.82.4-2.83.4Zm-9.25-16.57c-1.03.33-1.98.75-2.83,1.25-.86.51-1.56,1.2-2.11,2.09-.55.88-.82,2.16-.82,3.84s.34,2.88,1.02,3.74,1.59,1.29,2.73,1.29c1.45,0,2.62-.55,3.52-1.65.9-1.1,1.35-2.73,1.35-4.89,0-1.9,0-3.34.03-4.33.02-.99.03-1.86.03-2.61-.92.53-1.9.96-2.93,1.29Zm-31.28,10.55l4.87.07c3.69.04,6.4.74,8.13,2.09s2.6,3.49,2.6,6.45c0,2.64-.54,4.86-1.61,6.65-1.08,1.79-2.46,3.24-4.15,4.36-1.69,1.12-3.57,1.93-5.63,2.42-2.06.49-4.06.73-5.99.73-4.13,0-7.34-.81-9.65-2.41-2.3-1.61-3.46-3.74-3.46-6.39,0-2.11.58-3.83,1.74-5.13,1.16-1.3,2.73-2.33,4.71-3.08v-.13c-1.14-.4-2.05-1-2.73-1.82-.68-.82-1.02-1.84-1.02-3.08,0-1.45.56-2.86,1.68-4.23,1.12-1.37,2.6-2.29,4.45-2.78v-.13c-2.68-.66-4.74-1.85-6.19-3.57-1.49-1.76-2.24-4.06-2.24-6.88,0-1.68.34-3.18,1.02-4.5.68-1.32,1.64-2.44,2.86-3.34,1.23-.9,2.7-1.6,4.41-2.09,1.72-.48,3.6-.73,5.67-.73.79,0,1.6.03,2.44.1.83.07,1.64.12,2.44.17.57.04,1.15.08,1.74.1.59.02,1.24.03,1.94.03,1.1,0,2.24-.01,3.43-.03,1.18-.02,2.37-.03,3.56-.03-.04.26-.08.53-.1.79-.02.27-.03.53-.03.79s0,.53.03.79c.02.27.05.53.1.79l-5.8-.26-.2.13c1.1.79,1.96,1.8,2.6,3.01.64,1.21.96,2.66.96,4.33s-.31,3.12-.92,4.46c-.62,1.35-1.48,2.5-2.6,3.47-1.12.97-2.46,1.72-4.02,2.25-1.56.53-3.3.79-5.24.79-.48,0-.96-.01-1.41-.03-.46-.02-.98-.03-1.55-.03-.53,0-.98.24-1.35.73-.37.49-.56,1.04-.56,1.65,0,1.06.41,1.89,1.22,2.51.81.62,2.1.95,3.85.99Zm-4.87-12.4c.26.99.6,1.8,1.02,2.41.42.62.88,1.06,1.38,1.32s1.02.4,1.55.4c1.45,0,2.52-.64,3.23-1.92.7-1.28,1.05-3.44,1.05-6.48s-.4-5.1-1.19-6.32c-.79-1.21-1.78-1.82-2.97-1.82-2.99,0-4.48,2.91-4.48,8.73,0,1.45.13,2.68.39,3.67Zm-1.45,19.08c-.53.26-1.09.9-1.68,1.92-.59,1.01-.89,2.29-.89,3.84,0,1.28.23,2.39.69,3.34.46.95,1.09,1.73,1.88,2.35.79.62,1.7,1.09,2.73,1.42,1.03.33,2.14.49,3.33.49,1.27,0,2.42-.21,3.43-.63,1.01-.42,1.88-.99,2.6-1.72.72-.73,1.27-1.57,1.65-2.51.37-.95.56-1.95.56-3.01,0-1.28-.22-2.33-.66-3.14s-1.06-1.45-1.87-1.88c-.82-.44-1.81-.74-3-.89-1.19-.16-2.52-.23-4.02-.23-2.28,0-3.86.22-4.74.66Zm-30.26-17.33c0,1.76.17,3.42.53,4.96.35,1.54.89,2.88,1.61,4,.72,1.12,1.64,2.01,2.76,2.65s2.43.96,3.92.96c3.03,0,5.73-.99,8.1-2.97l.79.6-1.45,3.7c-1.1.84-2.41,1.51-3.95,2.02-1.54.51-3.56.76-6.06.76-2.15,0-4.19-.3-6.12-.89-1.94-.59-3.64-1.58-5.1-2.94-1.47-1.37-2.64-3.1-3.49-5.2-.86-2.09-1.28-4.6-1.28-7.51s.38-5.36,1.15-7.47c.77-2.12,1.83-3.88,3.2-5.29,1.36-1.41,2.97-2.47,4.84-3.18,1.86-.7,3.9-1.06,6.09-1.06,4.35,0,7.67,1.28,9.98,3.84,2.3,2.56,3.46,6.18,3.46,10.85v1.39c0,.4-.02.66-.06.79h-18.9Zm8.92-10.91c-.73-1.98-1.95-2.97-3.65-2.97-.97,0-1.78.33-2.44.99-.66.66-1.19,1.51-1.58,2.55-.4,1.04-.69,2.2-.89,3.5-.2,1.3-.32,2.59-.36,3.87h10.15c-.09-3.31-.5-5.95-1.22-7.94Zm-27.37,26.59h-2.7c-.92,0-1.85.04-2.77.13-.22-4.54-.58-9.46-1.09-14.75-.51-5.29-1.02-10.54-1.55-15.74h-.13c-2.5,5.2-4.96,10.32-7.38,15.34-2.42,5.03-4.81,10.08-7.18,15.15-.22-.04-.43-.08-.62-.1-.2-.02-.41-.03-.63-.03s-.43,0-.62.03c-.2.02-.41.06-.63.1-2.37-4.94-4.73-9.88-7.08-14.82-2.35-4.94-4.77-9.94-7.28-15.02h-.13c-.7,5.07-1.23,10.08-1.58,15.02-.35,4.94-.7,9.88-1.05,14.82-.53-.09-1.05-.13-1.58-.13h-3.06c-.51,0-1.02.04-1.55.13,1.4-7.58,2.65-15.13,3.75-22.62,1.1-7.5,2.11-15.1,3.03-22.82.48.09.93.17,1.35.23.42.07.87.1,1.35.1.4,0,.81-.03,1.25-.1.44-.07.9-.14,1.38-.23,1.19,2.65,2.43,5.34,3.72,8.07,1.3,2.73,2.59,5.46,3.88,8.17,1.3,2.71,2.59,5.37,3.89,7.97,1.29,2.6,2.53,5.07,3.72,7.41,2.64-4.94,5.26-10.11,7.87-15.51,2.61-5.4,5.11-10.77,7.47-16.11,1.1.22,2.04.33,2.84.33.74,0,1.67-.11,2.76-.33.44,3.8.91,7.87,1.42,12.24.5,4.36,1,8.63,1.48,12.8.48,4.17.97,8.06,1.45,11.68.48,3.61.92,6.53,1.32,8.73-.88-.09-1.77-.13-2.67-.13h-2.67Z"/><g class="cls-4"><path class="cls-3" d="m395.7,47.59c3.77-.2,7.75-.56,11.24-1.15l-.04,4.61c-3.77.56-8.66.87-12.95.99-.67,1.47-1.47,2.9-2.26,4.05,1.03-.48,3.18-.79,4.49-.79,2.42,0,4.41,1.03,5.28,3.06,2.07-.95,3.73-1.63,5.36-2.34,1.55-.68,2.94-1.31,4.41-2.07l1.99,4.61c-1.27.36-3.38,1.15-4.73,1.67-1.79.71-4.05,1.59-6.47,2.7.04,2.22.12,5.16.16,6.99h-4.77c.12-1.19.16-3.1.2-4.85-2.98,1.71-4.57,3.26-4.57,5.24,0,2.18,1.87,2.78,5.76,2.78,3.38,0,7.79-.44,11.28-1.11l-.16,5.12c-2.62.36-7.51.67-11.24.67-6.24,0-10.84-1.51-10.84-6.63s4.77-8.26,9.29-10.61c-.6-.99-1.67-1.35-2.78-1.35-2.22,0-4.69,1.27-6.2,2.74-1.19,1.19-2.34,2.62-3.69,4.37l-4.25-3.18c4.17-3.85,6.99-7.39,8.78-10.96h-.52c-1.63,0-4.53-.08-6.71-.24v-4.65c2.03.32,4.96.48,6.99.48h1.91c.44-1.59.71-3.14.79-4.57l5.24.44c-.2.99-.48,2.3-.99,3.97Z"/><path class="cls-3" d="m443.96,64.39c-.32,2.46-.99,4.81-2.18,6.91,3.65,1.75,8.22,2.86,13.58,3.34-.99,1.03-2.22,2.98-2.82,4.21-5.36-.67-9.89-2.07-13.58-4.17-1.91,1.75-4.61,3.22-8.14,4.25-.6-1.03-1.99-2.94-2.94-3.93,3.18-.71,5.52-1.75,7.23-3.06-1.95-1.63-3.54-3.65-4.89-5.92l3.85-1.19c.95,1.55,2.22,2.9,3.69,4.09.79-1.43,1.23-2.9,1.47-4.53h-8.86v-11.6h9.14v-2.78h-9.97v-3.65c-.71,1.55-1.51,3.06-2.38,4.57v28.08h-4.49v-21.33c-1.07,1.35-2.15,2.62-3.26,3.73-.44-1.15-1.71-3.69-2.5-4.85,3.77-3.57,7.47-9.17,9.61-14.81l4.37,1.43c-.36.83-.71,1.67-1.07,2.54h9.69v-3.61h4.69v3.61h10.53v4.29h-10.53v2.78h9.45v11.6h-9.69Zm-4.45-3.81v-3.93h-4.89v3.93h4.89Zm4.69-3.93v3.93h4.93v-3.93h-4.93Z"/><path class="cls-3" d="m465.13,57.6c2.7-.83,9.45-3.1,14.26-3.1,6.28,0,10.49,3.73,10.49,9.73,0,7.19-6.32,12.07-18.95,12.87l-2.1-4.89c9.1-.24,15.77-2.66,15.77-8.06,0-2.98-2.22-5.04-5.68-5.04-4.61,0-12.55,3.3-15.93,4.73l-2.07-5.16c1.19-.24,3.02-.71,4.21-1.07Z"/><path class="cls-3" d="m498.93,47.94c3.3-.28,9.85-.87,17.12-1.51,4.09-.32,8.46-.6,11.24-.68l.04,5.08c-2.14.04-5.56.04-7.67.52-4.81,1.27-8.38,6.43-8.38,11.16,0,6.51,6.12,8.9,12.83,9.25l-1.87,5.44c-8.3-.56-16.17-5.04-16.17-13.62,0-5.72,3.22-10.25,5.88-12.27-3.73.4-11.84,1.27-16.44,2.26l-.52-5.44c1.59-.04,3.14-.12,3.93-.2Z"/><path class="cls-3" d="m530.58,69.43l4.13-3.58c2.82,2.3,6.67,6.24,8.66,8.7l-4.25,3.65c-2.42-2.98-5.8-6.39-8.54-8.78Z"/></g><g class="cls-4"><path class="cls-3" d="m589.25,62.24c3.46,4.41,8.86,8.62,14.14,10.92-1.11.95-2.62,2.86-3.42,4.09-4.69-2.42-9.29-6.39-12.91-10.92v12.63h-5.04v-12.39c-3.61,4.37-8.26,8.22-12.91,10.64-.79-1.19-2.34-3.1-3.46-4.09,5.28-2.26,10.68-6.47,14.18-10.88h-12.87v-4.69h15.05v-5.08h-12.07v-4.69h12.07v-5.92h5.04v5.92h12.43v4.69h-12.43v5.08h15.29v4.69h-13.11Z"/><path class="cls-3" d="m630.4,63.59c3.42,4.13,8.5,7.94,13.46,10.01-1.07.95-2.58,2.82-3.3,3.97-4.77-2.38-9.41-6.36-12.99-10.88v12.19h-5v-12.11c-3.61,4.45-8.26,8.34-13.03,10.72-.75-1.15-2.22-3.02-3.34-3.97,5-2.07,10.13-5.84,13.58-9.93h-12.47v-4.53h7.51c-.44-1.91-1.71-4.69-2.98-6.83l4.09-1.55h-6.75v-4.53h13.39v-4.33h5v4.33h13.74v4.53h-6.59l4.57,1.35c-1.39,2.58-2.9,5.24-4.17,7.03h7.71v4.53h-12.43Zm-14.3-12.91c1.39,2.14,2.86,4.96,3.38,6.91l-3.77,1.47h6.87v-8.38h-6.47Zm11.48,0v8.38h6.67l-3.34-1.15c1.15-1.95,2.58-4.92,3.38-7.23h-6.71Z"/></g><g class="cls-4"><path class="cls-3" d="m668.65,47.59c3.77-.2,7.75-.56,11.24-1.15l-.04,4.61c-3.77.56-8.66.87-12.95.99-.67,1.47-1.47,2.9-2.26,4.05,1.03-.48,3.18-.79,4.49-.79,2.42,0,4.41,1.03,5.28,3.06,2.07-.95,3.73-1.63,5.36-2.34,1.55-.68,2.94-1.31,4.41-2.07l1.99,4.61c-1.27.36-3.38,1.15-4.73,1.67-1.79.71-4.05,1.59-6.47,2.7.04,2.22.12,5.16.16,6.99h-4.77c.12-1.19.16-3.1.2-4.85-2.98,1.71-4.57,3.26-4.57,5.24,0,2.18,1.87,2.78,5.76,2.78,3.38,0,7.79-.44,11.28-1.11l-.16,5.12c-2.62.36-7.51.67-11.24.67-6.24,0-10.84-1.51-10.84-6.63s4.77-8.26,9.29-10.61c-.6-.99-1.67-1.35-2.78-1.35-2.22,0-4.69,1.27-6.2,2.74-1.19,1.19-2.34,2.62-3.69,4.37l-4.25-3.18c4.17-3.85,6.99-7.39,8.78-10.96h-.52c-1.63,0-4.53-.08-6.71-.24v-4.65c2.03.32,4.96.48,6.99.48h1.91c.44-1.59.71-3.14.79-4.57l5.24.44c-.2.99-.48,2.3-.99,3.97Z"/><path class="cls-3" d="m708.21,61.89c-1.55.56-3.14,1.11-4.73,1.63v10.09c0,2.3-.4,3.46-1.75,4.13-1.31.75-3.22.87-6.04.87-.12-1.23-.71-3.1-1.31-4.29,1.59.04,3.22.04,3.73.04.56,0,.75-.2.75-.75v-8.54c-1.39.48-2.7.91-3.97,1.31l-1.35-4.49c1.51-.4,3.34-.95,5.32-1.51v-6.63h-5v-4.37h5v-7.51h4.61v7.51h4.21v4.37h-4.21v5.16c1.31-.44,2.58-.87,3.89-1.31l.83,4.29Zm10.8-12.99c-.87,3.1-1.91,6.31-3.26,9.33h13.66v20.5h-4.65v-2.03h-9.25v2.22h-4.45v-12.55c-.91,1.19-1.87,2.26-2.86,3.26-.75-1.03-2.18-2.74-3.1-3.65,4.41-4.05,7.39-10.96,8.9-17.08h-6.12v-4.49h22.84v4.49h-11.72Zm5.76,13.78h-9.25v9.61h9.25v-9.61Z"/><path class="cls-3" d="m754.44,55.61c-.2-.48-.36-.95-.52-1.39-.32-.91-.56-1.67-.79-2.34-3.73.2-8.38.12-13.38-.36l-.28-4.57c4.73.56,8.78.71,12.43.6-.4-1.27-.79-2.54-1.27-3.93l5.32-.6c.2,1.43.44,2.82.71,4.17,2.74-.36,5.28-.91,7.82-1.71l.64,4.57c-2.18.6-4.69,1.11-7.31,1.47.2.64.4,1.27.6,1.87.2.56.44,1.15.68,1.79,3.26-.4,5.64-1.07,7.59-1.59l.79,4.69c-1.83.48-3.97.91-6.36,1.23.68,1.27,1.35,2.5,2.07,3.54.52.75,1.07,1.35,1.79,2.03l-2.42,3.65c-2.22-.44-6.51-.95-9.41-1.27l.4-3.77c1.67.16,3.81.36,5,.48-.83-1.39-1.59-2.78-2.22-4.13-4.89.32-11.28.32-17.28-.04l-.28-4.69c5.92.56,11.28.6,15.69.32Zm-9.81,13.31c0,2.94,2.78,4.13,8.02,4.13,3.77,0,7.15-.32,9.97-.87l-.28,5.04c-2.78.48-6.39.75-9.65.75-7.94,0-12.87-2.34-12.95-8.02-.08-2.54.79-4.49,1.71-6.4l4.92.95c-.95,1.31-1.75,2.7-1.75,4.41Z"/><path class="cls-3" d="m793.76,46.16c-.04.4-.04.99-.04,1.63,3.26-.16,6.55-.48,10.05-1.07l-.04,4.57c-2.62.32-6.24.67-10.09.87v4.09c4.01-.2,7.39-.52,10.61-.95l-.04,4.69c-3.57.4-6.67.67-10.49.79.08,1.51.16,3.14.28,4.73,5,1.43,8.82,4.09,11.12,6l-2.86,4.45c-2.14-1.99-4.85-4.09-8.02-5.52.04.56.04,1.03.04,1.47,0,3.38-2.58,6-7.82,6-6.36,0-9.69-2.42-9.69-6.63s3.69-6.83,9.81-6.83c.83,0,1.67.04,2.46.12-.08-1.23-.12-2.5-.16-3.69h-2.07c-2.3,0-6.83-.2-9.45-.52l-.04-4.69c2.58.48,7.47.75,9.57.75h1.91c0-1.31,0-2.74.04-4.09h-1.47c-2.5,0-7.11-.36-9.73-.71l-.12-4.53c2.86.48,7.39.87,9.81.87h1.55v-1.87c0-.75-.08-1.99-.24-2.74h5.36c-.12.79-.2,1.79-.24,2.82Zm-8.02,27.25c2.1,0,3.5-.6,3.5-2.9,0-.44,0-.99-.04-1.71-1.07-.16-2.14-.28-3.26-.28-2.82,0-4.37,1.11-4.37,2.46,0,1.51,1.43,2.42,4.17,2.42Z"/><path class="cls-3" d="m838.16,47.75c-.04,1.55-.04,2.98-.08,4.29,1.07-.08,2.07-.16,2.98-.2,1.11-.08,2.66-.16,3.81-.28v4.88c-.68-.04-2.78,0-3.81.04-.87.04-1.91.08-3.06.16-.12,3.02-.28,6.28-.6,7.94-.44,2.11-1.43,2.62-3.46,2.62-1.43,0-4.61-.4-6-.6l.12-4.41c1.23.28,2.86.52,3.65.52s1.15-.16,1.23-.91c.16-1.07.28-2.9.32-4.81-3.54.28-7.43.63-10.8.99-.04,3.65-.08,7.31,0,9.02.08,3.89.44,4.77,6.39,4.77,3.89,0,8.9-.48,11.88-.99l-.2,5.4c-2.66.32-7.55.64-11.32.64-10.29,0-11.52-2.14-11.72-9.02-.04-1.71-.04-5.56-.04-9.25-1.07.12-1.99.2-2.66.28-1.27.16-3.73.56-4.77.72l-.56-5.08c1.15,0,2.98-.08,5-.28.71-.08,1.75-.16,3.02-.28v-4.01c0-1.63-.12-2.98-.32-4.41h5.6c-.2,1.35-.24,2.46-.24,4.13,0,.91-.04,2.26-.04,3.81,3.38-.32,7.23-.67,10.84-.99v-4.49c0-.99-.16-2.86-.28-3.65h5.32c-.08.63-.2,2.38-.24,3.46Z"/><path class="cls-3" d="m868.58,47.83c-1.95,2.86-4.73,7.94-6.71,11.44,1.47-.83,3.06-1.19,4.57-1.19,2.98,0,4.77,1.87,4.92,5.16.08,1.79-.04,4.96.16,6.63.16,1.55,1.27,2.15,2.58,2.15,3.46,0,5.56-4.45,6.71-9.37l4.29,3.5c-2.07,6.79-5.76,11.32-11.84,11.32-4.41,0-6.47-2.62-6.63-5.52-.16-2.1-.12-5.36-.24-6.99-.12-1.39-.91-2.22-2.34-2.22-2.7,0-4.93,2.78-6.36,6-1.03,2.3-2.42,6.75-3.02,8.86l-5.6-1.91c2.94-7.94,11.08-24.15,13.19-27.92.52-1.07,1.27-2.38,1.95-4.05l5.64,2.26c-.4.56-.83,1.23-1.27,1.87Z"/><path class="cls-3" d="m904.29,47.39c-.28,1.19-.56,2.66-.83,4.09,1.31-.08,2.5-.16,3.34-.16,4.21,0,7.19,1.87,7.19,7.59,0,4.69-.56,11.12-2.26,14.58-1.31,2.78-3.54,3.65-6.51,3.65-1.55,0-3.42-.28-4.77-.56l-.87-5.24c1.55.44,3.81.83,4.89.83,1.31,0,2.34-.4,2.98-1.71,1.07-2.26,1.59-7.07,1.59-11,0-3.18-1.35-3.61-3.85-3.61-.64,0-1.63.08-2.74.16-1.51,6.04-4.45,15.45-8.1,21.29l-5.16-2.07c3.85-5.2,6.59-13.23,8.02-18.67-1.43.16-2.66.32-3.42.4-1.11.2-3.22.48-4.41.67l-.48-5.4c1.43.12,2.78.04,4.25,0,1.23-.04,3.1-.16,5.12-.32.56-3.02.87-5.92.83-8.42l5.92.6c-.24,1.03-.52,2.3-.71,3.3Zm21.37,15.21l-5.04,2.34c-1.03-4.41-3.85-11.6-6.67-15.09l4.73-2.03c2.46,3.42,5.8,11,6.99,14.78Z"/><path class="cls-3" d="m949.33,53.74c0-2.38-1.91-3.73-5-3.73-2.46,0-4.41,1.07-6.36,3.14l-3.26-3.02c2.5-2.94,6-4.85,10.25-4.85,5.76,0,9.97,2.66,9.97,7.94,0,5.84-8.66,6.51-8.06,12.03h-5.12c-.83-6.24,7.59-7.67,7.59-11.52Zm-8.5,18.59c0-2.11,1.51-3.54,3.5-3.54s3.5,1.43,3.5,3.54-1.47,3.5-3.5,3.5-3.5-1.43-3.5-3.5Z"/></g></g></svg>