<?xml version="1.0" encoding="UTF-8"?><svg id="_レイヤー_2" xmlns="http://www.w3.org/2000/svg" viewBox="0 0 539.75 386.89"><defs><style>.cls-1{stroke-width:0px;}</style></defs><g id="_アウトライン済み"><path class="cls-1" d="M184.9,210.71c-15.88,0-31.34-2.8-44.33-8.2-1.02-.42-1.5-1.59-1.08-2.61s1.59-1.5,2.61-1.08c17.91,7.44,40.78,9.76,62.73,6.36,3.31-.51,5.9-1.39,7.28-2.47,1.34-1.05,1.84-2.03,1.84-2.41,0-.03,0-.1-.2-.25-23.09-18.09-33.57-47.18-27.33-75.91,6.02-27.74,30.7-49.39,62.87-55.14,1.09-.2,2.13.53,2.32,1.62.19,1.09-.53,2.13-1.62,2.32-30.57,5.47-53.99,25.9-59.67,52.05-5.9,27.22,4.02,54.77,25.89,71.91,1.12.87,1.73,2.08,1.73,3.4,0,2.64-2.37,4.76-3.38,5.56-2.45,1.92-6.32,2.84-9.13,3.28-6.82,1.05-13.72,1.57-20.55,1.57h.02Z"/><path class="cls-1" d="M194.55,258.69c-11.27,0-23.46-3.14-33.75-9.01-15.02-8.57-27.7-26.63-28.26-40.25-.07-1.68-.06-4.13.84-6.02.47-1,1.67-1.42,2.66-.95,1,.47,1.42,1.67.95,2.66-.38.8-.54,2.2-.46,4.14.51,12.41,12.28,28.98,26.25,36.94,13.98,7.97,31.61,10.62,44.92,6.73,1.06-.31,2.17.3,2.48,1.36s-.3,2.17-1.36,2.48c-4.41,1.29-9.25,1.91-14.27,1.91h0Z"/><path class="cls-1" d="M181.36,323.6c-6.93,0-12.63-1.74-15.01-5.76-1.14-1.92-2.56-7.58,8.67-18.62,15.08-14.83,29.18-36.57,39.7-61.2.43-1.02,1.61-1.49,2.62-1.05,1.02.43,1.49,1.61,1.05,2.62-10.72,25.1-25.12,47.29-40.57,62.48-4.95,4.87-9.45,11.33-8.03,13.73,3.05,5.16,19.31,5.55,34.92-1.71,15.16-7.05,28.64-17.53,41.22-32.06.72-.83,1.99-.93,2.82-.2.84.72.93,1.99.2,2.82-12.95,14.96-26.87,25.78-42.55,33.07-7.88,3.67-17.24,5.88-25.04,5.88h0Z"/><path class="cls-1" d="M276.27,351.59h0c-4.07,0-8.18-4.26-9.81-6.94-12.14-19.93-19.07-42.8-21.83-71.97-.1-1.1.7-2.08,1.8-2.18,1.12-.1,2.08.7,2.18,1.8,2.7,28.55,9.46,50.87,21.27,70.27,1.44,2.37,4.48,5.02,6.4,5.02h0c2.82,0,8.89-6.96,13.16-25.66,2.79-12.2,3.75-21.31,5.07-33.91.36-3.39.74-7,1.18-10.97.12-1.1,1.12-1.89,2.21-1.76,1.1.12,1.89,1.11,1.76,2.21-.45,3.95-.83,7.55-1.18,10.94-1.29,12.26-2.31,21.95-5.15,34.38-4.06,17.75-10.59,28.77-17.06,28.77h0Z"/><path class="cls-1" d="M348.74,322.75c-3.99,0-9.03-1.67-14.9-4.98-15.12-8.52-27.82-20.51-37.75-35.64-.61-.92-.35-2.16.57-2.77.92-.6,2.16-.35,2.77.57,9.58,14.59,21.81,26.15,36.37,34.35,7.23,4.08,13.08,5.45,16.04,3.78,1.6-.9,2.46-2.83,2.54-5.72.1-3.5-10.89-37.76-16.88-54.99-.36-1.04.19-2.18,1.23-2.55,1.05-.37,2.18.19,2.55,1.23,2.27,6.52,17.26,50.98,17.1,56.42-.16,5.46-2.58,7.96-4.57,9.08-1.42.8-3.13,1.2-5.08,1.2v.02Z"/><path class="cls-1" d="M362.02,274.02c-5.78,0-11.61-.57-17.49-1.71-1.08-.21-1.79-1.26-1.58-2.34.21-1.08,1.25-1.79,2.34-1.58,19.52,3.79,38.56.97,56.6-8.35,6.49-3.36,9.66-6.54,9.42-9.46-.14-1.7-2.7-2.31-6.3-3-.84-.16-1.66-.32-2.43-.5-19.8-4.69-39.05-13.15-55.66-24.49-.91-.62-1.15-1.87-.52-2.78.62-.91,1.87-1.15,2.78-.52,16.21,11.06,34.99,19.33,54.32,23.9.71.17,1.48.31,2.25.46,3.86.73,9.14,1.74,9.54,6.6.58,7.06-8.57,11.79-11.57,13.34-13.44,6.95-27.41,10.43-41.72,10.43h.02Z"/><path class="cls-1" d="M366.08,226.88c-.6,0-1.2-.27-1.59-.79-.67-.88-.5-2.13.38-2.8,23.27-17.78,33.57-39.08,33.42-69.08,0-1.1.88-2,1.99-2.01h0c1.1,0,1.99.89,2,1.99.16,31.38-10.63,53.67-34.99,72.28-.36.28-.79.41-1.21.41h0Z"/><path class="cls-1" d="M329,192.73c-3.44,0-6.19-.89-8.16-2.65-2.54-2.27-3.21-6.19-1.57-9.12,12.34-22,13.96-51.72,3.92-72.28-11.21-22.98-37.25-38.36-61.92-36.61-1.11.08-2.06-.75-2.14-1.85-.08-1.1.75-2.06,1.85-2.14,26.21-1.86,53.9,14.46,65.8,38.84,10.57,21.67,8.92,52.92-4.03,75.99-.74,1.32-.41,3.15.74,4.18,1.53,1.37,3.88,1.68,5.57,1.63,8.23-.04,15.63-5.62,21.79-11.07,11.71-10.38,22.22-22.13,31.24-34.91.64-.9,1.88-1.12,2.79-.48.9.64,1.12,1.88.48,2.79-9.2,13.04-19.92,25.01-31.86,35.6-6.71,5.95-14.86,12.04-24.42,12.08h-.09,0Z"/><path class="cls-1" d="M250.24,74.17c-.1,0-.2,0-.3-.02-1.09-.17-1.84-1.18-1.68-2.28,1.05-6.96,1.5-14.04,1.32-21.09-6.85,2.83-15.73,1.73-21.77-1.18-6.7-3.23-12.29-9.33-15.76-17.17-2.68-6.06-3.56-12.06-2.55-17.35,1.25-6.53,5.48-11.9,11.03-14.02,4.23-1.62,9.37-1.37,14.09.7,3.76,1.64,7.32,4.35,10.87,8.29,7.03,7.8,9.57,16.66,11.13,24.3.22,1.08-.48,2.14-1.56,2.36-1.09.22-2.14-.48-2.36-1.56-2.06-10.08-5.11-16.79-10.19-22.42-3.16-3.5-6.26-5.89-9.49-7.3-3.77-1.64-7.8-1.87-11.06-.63-4.2,1.61-7.55,5.94-8.53,11.04-1.08,5.67.64,11.28,2.28,14.98,3.08,6.97,8,12.37,13.84,15.18,5.79,2.79,15.05,3.7,20.8-.13.6-.4,1.37-.44,2.01-.12s1.06.97,1.1,1.68c.43,8.35.02,16.77-1.24,25.04-.15.99-1,1.7-1.97,1.7h0Z"/><path class="cls-1" d="M260.04,73.33c-1.09,0-1.98-.87-2-1.97-.05-3.15-.18-6.61-.31-9.96-.13-3.36-.25-6.83-.31-10.01-.02-1.1.86-2.01,1.97-2.03h.03c1.09,0,1.98.87,2,1.97.05,3.14.18,6.59.31,9.93.13,3.37.26,6.86.31,10.05.02,1.1-.86,2.01-1.97,2.03h-.03Z"/><path class="cls-1" d="M260.13,54.75c-1.07,0-1.96-.85-2-1.93-.04-1.1.83-2.03,1.93-2.07,14.44-.5,26.64-6.85,32.64-17,2.72-4.61,4.25-11.58,3.55-16.22-.73-4.86-4.61-9.2-8.82-9.9-4.3-.71-8.61,1.96-11.47,4.32-9,7.43-14.44,19.3-14.21,30.97.02,1.1-.86,2.02-1.96,2.04h-.04c-1.09,0-1.98-.87-2-1.96-.26-12.86,5.74-25.94,15.66-34.14,5.02-4.14,10.09-5.94,14.67-5.18,5.92.97,11.13,6.67,12.12,13.25.95,6.26-1.33,14.22-4.06,18.85-6.7,11.33-20.13,18.42-35.95,18.96h-.07.01Z"/><path class="cls-1" d="M258.68,47.88c-.72,0-1.41-.39-1.77-1.07-.51-.98-.14-2.19.84-2.7,9.32-4.91,17.55-11.97,23.8-20.44.66-.89,1.91-1.08,2.8-.42.89.66,1.08,1.91.42,2.8-6.61,8.95-15.31,16.42-25.16,21.6-.3.16-.62.23-.93.23Z"/><path class="cls-1" d="M248.68,44.61c-.45,0-.91-.15-1.28-.47-6.81-5.71-12.56-12.9-16.63-20.79-.51-.98-.12-2.19.86-2.7s2.19-.12,2.7.86c3.83,7.42,9.25,14.19,15.65,19.56.85.71.96,1.97.25,2.82-.4.47-.96.71-1.53.71h-.02Z"/><path class="cls-1" d="M221.39,148.51c-.33,0-.66-.11-.94-.33-3.59-2.87-5.8-7.23-5.91-11.66-.11-4.44,1.88-8.89,5.32-11.91,2.66-2.34,6.08-3.7,9.37-3.73h.12c5.23,0,10.43,3.45,12.67,8.43,1.94,4.3,1.82,9.67-.34,14.72-.33.76-1.21,1.12-1.97.79s-1.12-1.21-.79-1.97c1.83-4.28,1.96-8.77.36-12.31-1.77-3.93-5.85-6.66-9.94-6.66h-.09c-2.58.03-5.29,1.11-7.42,2.99-2.78,2.45-4.39,6.03-4.3,9.58.09,3.56,1.88,7.07,4.78,9.39.65.52.75,1.46.24,2.11-.3.37-.73.56-1.17.56h0Z"/><path class="cls-1" d="M228.45,151.04c-1.28,0-2.56-.12-3.83-.36-.81-.15-1.35-.94-1.19-1.75s.94-1.35,1.75-1.19c2.75.52,5.61.37,8.29-.42.79-.24,1.63.22,1.87,1.01.24.79-.22,1.63-1.01,1.87-1.9.57-3.89.85-5.87.85h0Z"/><path class="cls-1" d="M272.91,145.51c-.36,0-.71-.13-1-.38-3.92-3.52-5.19-9.93-3.14-15.95,1.8-5.31,7.17-9.08,13.36-9.38,5.67-.29,10.55,2.61,13.35,7.94,2.67,5.07,2.23,11.11-1.17,16.17-.46.69-1.39.87-2.08.41-.69-.46-.87-1.39-.41-2.08,2.77-4.13,3.15-9.03,1-13.1-2.27-4.31-6.03-6.56-10.55-6.34-4.97.24-9.25,3.2-10.66,7.35-1.66,4.9-.74,10.02,2.31,12.75.62.55.67,1.5.11,2.12-.3.33-.71.5-1.12.5h0Z"/><path class="cls-1" d="M282.15,148.9c-.52,0-1.04-.03-1.56-.08-.82-.09-1.42-.83-1.34-1.65.09-.82.84-1.4,1.65-1.34,2.44.26,4.97-.25,7.13-1.41.73-.39,1.64-.12,2.03.61.39.73.12,1.64-.61,2.03-2.23,1.2-4.78,1.84-7.31,1.84h0Z"/><path class="cls-1" d="M233.51,170.66c-.34,0-.68-.12-.95-.34l-8.95-7.3c-.64-.52-.74-1.47-.21-2.11.52-.64,1.47-.74,2.11-.21l7.77,6.34,7.09-8.85c.27-.34.68-.55,1.12-.56.44-.03.86.16,1.16.48l7.26,7.9,5.57-7.3c.26-.35.67-.56,1.1-.59s.86.14,1.17.45c1.34,1.37,2.68,2.73,4.02,4.08.94.95,1.89,1.9,2.83,2.86l4.77-6.24c.26-.34.65-.55,1.07-.58s.84.11,1.15.41c1.44,1.36,2.89,2.92,4.18,4.29.95,1.01,2.07,2.21,2.79,2.88,1.28-1.13,2.59-2.38,3.87-3.6,1.6-1.52,3.25-3.1,4.86-4.47.63-.54,1.58-.46,2.11.17.54.63.46,1.58-.17,2.11-1.55,1.32-3.17,2.86-4.74,4.36-1.6,1.52-3.25,3.1-4.86,4.47-.38.32-.89.43-1.37.3-.96-.26-1.99-1.29-4.69-4.18-.89-.95-1.87-2-2.86-2.99l-4.8,6.27c-.26.35-.67.56-1.1.59s-.86-.14-1.16-.45c-1.34-1.37-2.68-2.73-4.02-4.08-.94-.95-1.89-1.9-2.83-2.86l-5.6,7.34c-.27.35-.68.57-1.12.59-.46.02-.87-.16-1.17-.48l-7.29-7.93-6.95,8.67c-.25.31-.62.51-1.01.55h-.16,0Z"/><path class="cls-1" d="M258.9,182.95c-.44,0-.88-.03-1.32-.1-4.31-.67-10.51-4.89-15.58-21.22-.25-.79.2-1.63.99-1.88.79-.25,1.63.2,1.88.99,4.85,15.63,10.33,18.7,13.17,19.14,3.51.54,6.06-2.28,7.26-4,3.02-4.34,4.37-10.83,4.81-13.41.14-.82.91-1.37,1.73-1.23s1.37.91,1.23,1.73c-.47,2.79-1.94,9.79-5.31,14.62-2.41,3.46-5.58,5.36-8.87,5.36h0Z"/><path class="cls-1" d="M240.2,231.45c-5.25,0-9.72-2.5-12.08-6.91-3.13-5.86-.05-17.79,7.87-22.84,5.14-3.28,10.45-3.87,15.78-1.76,4.29,1.69,7.62,4.91,10.13,9.78,5.5-8.38,14.05-13.66,22.5-13.6,6.98.03,12.75,3.69,16.27,10.3,2.71,5.09.89,12.36-4.34,17.27-7.79,7.33-19.91,7.12-32.42-.56-.71-.43-.93-1.36-.49-2.06.43-.71,1.36-.93,2.06-.49,11.29,6.93,22.05,7.27,28.79.93,4.19-3.94,5.8-9.82,3.74-13.68-2.97-5.59-7.82-8.68-13.64-8.71h-.08c-8.12,0-16.45,5.69-21.26,14.53-.28.51-.83.8-1.4.78-.58-.03-1.09-.39-1.31-.93-2.29-5.58-5.46-9.1-9.67-10.77-4.45-1.76-8.72-1.27-13.06,1.5-5.4,3.44-9.76,13.41-6.83,18.9,2.21,4.13,6.7,6.04,12.01,5.09,5.33-.95,10.2-4.25,14.49-7.15.68-.46,1.62-.29,2.08.4.46.69.28,1.62-.4,2.08-4.54,3.07-9.69,6.56-15.65,7.62-1.06.19-2.09.28-3.1.28h.01Z"/><path class="cls-1" d="M265.14,218.11c-.48,0-.96-.23-1.25-.67-.46-.69-.27-1.62.42-2.08,5.12-3.42,11.08-5.44,17.22-5.83.82-.05,1.54.57,1.59,1.4.05.83-.57,1.54-1.4,1.59-5.62.36-11.06,2.21-15.75,5.33-.26.17-.55.25-.83.25h0Z"/><path class="cls-1" d="M257.18,218.04c-.14,0-.28-.02-.42-.06-5.21-1.51-10.78-1.76-16.1-.73-.82.15-1.6-.37-1.76-1.19-.16-.81.37-1.6,1.19-1.76,5.79-1.13,11.85-.85,17.51.79.8.23,1.25,1.06,1.02,1.86-.19.66-.79,1.08-1.44,1.08h0Z"/><path class="cls-1" d="M385.93,160.15c-.29,0-.58-.08-.83-.25-.44-.29-.69-.8-.67-1.32.74-14.84-4.01-30.13-13.02-41.94-.5-.66-.38-1.6.28-2.1s1.6-.38,2.1.28c8.93,11.72,13.86,26.7,13.7,41.45,4.04-1.83,8.41-3.58,12.66-5.27,4.17-1.67,8.47-3.38,12.42-5.16-9.91-7.64-18.62-19.43-26.59-35.92-.36-.75-.05-1.64.7-2,.74-.36,1.64-.05,2,.7,8.29,17.16,17.34,29.03,27.67,36.29.44.31.68.82.63,1.35s-.37,1-.85,1.23c-4.63,2.22-9.84,4.29-14.88,6.3-4.99,1.99-10.16,4.05-14.69,6.22-.21.1-.43.15-.65.15h.02Z"/><path class="cls-1" d="M362.71,121.69c-.31,0-.61-.09-.88-.28-10.71-7.71-16.78-19.84-15.85-31.66.06-.83.79-1.44,1.61-1.38.83.06,1.44.79,1.38,1.61-.83,10.45,4.41,21.22,13.72,28.33,18.95-14.22,47.4-19.04,74.59-12.57.81.19,1.3,1,1.11,1.81-.19.8-.99,1.31-1.81,1.11-26.77-6.37-54.73-1.5-72.96,12.71-.27.21-.6.32-.92.32h.01Z"/><path class="cls-1" d="M352.2,87.42c-.6,0-1.17-.37-1.4-.96-.3-.77.09-1.64.87-1.94,13.59-5.2,41.86-16.01,72.86-47.93.58-.59,1.53-.61,2.12-.03s.61,1.53.03,2.12c-31.46,32.4-60.15,43.37-73.94,48.64-.18.07-.36.1-.54.1Z"/><path class="cls-1" d="M447.22,106.43c-1.27,0-2.54-.45-3.66-1.32-19.55-15.34-28.17-50.29-20.59-66.18,1.97-4.13,5.32-4.83,7.14-4.89,4.03-.13,8.27,2.78,12.68,8.61,9.45,12.49,17.18,36.2,11.85,58.75-.19.8-1,1.31-1.81,1.11-.81-.19-1.3-1-1.11-1.81,5.11-21.6-2.29-44.3-11.32-56.25-3.74-4.94-7.26-7.47-10.2-7.42-2.02.06-3.54,1.13-4.52,3.18-6.98,14.63,1.5,48.22,19.73,62.53,1.34,1.05,2.53.66,3.12.32.72-.41,1.64-.15,2.04.57.41.72.15,1.64-.57,2.04-.89.5-1.84.75-2.78.75h0Z"/><path class="cls-1" d="M443.29,82.15c-1.54,0-3.18-.85-4.72-2.49-1.7-1.8-3.17-4.42-4.14-7.38s-1.33-5.94-1.01-8.4c.03-.26.07-.52.12-.76-3.35,1.05-6.88,1.59-10.09,2.01-.82.11-1.58-.47-1.68-1.29-.11-.82.47-1.57,1.29-1.68,4.18-.55,8.92-1.29,12.85-3.17.31-.2.63-.36.99-.48.74-.25,1.54.12,1.85.84.3.72,0,1.55-.68,1.91-.19.1-.39.2-.59.3-.52.43-.92,1.41-1.08,2.7-.25,2,.07,4.58.89,7.09s2.08,4.79,3.47,6.25c1.08,1.15,2.18,1.72,2.87,1.5,1.4-.46,2.32-4.58.55-9.99-.82-2.51-2.08-4.78-3.47-6.25-.57-.6-.54-1.55.06-2.12s1.55-.54,2.12.06c1.71,1.8,3.17,4.42,4.14,7.38,2.18,6.68,1.12,12.6-2.47,13.78-.41.13-.83.2-1.26.2h-.01Z"/><path class="cls-1" d="M431.56,88.64c-.44,0-.87-.19-1.17-.56-.52-.64-.42-1.59.22-2.11,3.22-2.6,6.86-4.64,11.45-6.44.77-.3,1.64.08,1.94.85s-.08,1.64-.85,1.94c-4.3,1.68-7.69,3.58-10.66,5.98-.28.22-.61.33-.94.33h.01Z"/><path class="cls-1" d="M419.25,98.34c-.48,0-.96-.23-1.25-.66-8.85-13.13-12.63-27.52-11.22-42.77.08-.83.81-1.42,1.63-1.36.83.08,1.43.81,1.36,1.63-1.34,14.55,2.26,28.28,10.72,40.82.46.69.28,1.62-.41,2.08-.26.17-.55.26-.84.26h.01Z"/><path class="cls-1" d="M366.78,109.97c-.38,0-.75-.14-1.05-.43-6.69-6.52-10-16.47-8.64-25.98.12-.82.88-1.39,1.7-1.27s1.39.88,1.27,1.7c-1.23,8.57,1.74,17.54,7.76,23.4.59.58.61,1.53.03,2.12-.29.3-.68.45-1.07.45h0Z"/><path class="cls-1" d="M467.43,63.75c-.63,0-1.21-.39-1.42-1.02-.27-.79.16-1.64.94-1.9l12.85-4.34c.79-.27,1.64.16,1.9.94.27.78-.16,1.64-.94,1.9l-12.85,4.34c-.16.05-.32.08-.48.08h0Z"/><path class="cls-1" d="M461.42,55.85c-.17,0-.35-.03-.53-.1-.78-.29-1.17-1.15-.88-1.93l4.26-11.38c.29-.78,1.15-1.17,1.93-.88.78.29,1.17,1.15.88,1.93l-4.26,11.38c-.23.6-.8.97-1.4.97h0Z"/><path class="cls-1" d="M480,76.89c-.16,0-.32-.03-.48-.08l-10.92-3.7c-.78-.27-1.21-1.12-.94-1.9s1.11-1.21,1.9-.94l10.92,3.7c.78.27,1.21,1.12.94,1.9-.21.62-.8,1.02-1.42,1.02h0Z"/><path class="cls-1" d="M76.72,339.61c-.45,0-.9-.2-1.2-.59-.5-.66-.37-1.6.29-2.1,11.07-8.41,22.39-17.09,33.34-25.48,6.98-5.35,13.95-10.69,20.89-15.99-12.71-2.07-23.62-11.05-26.72-22.45-1.62-5.97-1.62-12.21-1.61-18.23,0-2.1,0-4.27-.06-6.38-.33-10.18-3.12-16.65-9.04-20.97-.67-.49-.82-1.43-.33-2.1s1.43-.82,2.1-.33c6.74,4.92,9.91,12.1,10.27,23.29.07,2.16.07,4.36.07,6.48,0,5.83-.01,11.85,1.5,17.44,3.08,11.32,14.77,20,27.8,20.65.63.03,1.17.45,1.36,1.05.19.6-.02,1.25-.52,1.64-7.93,6.05-15.9,12.16-23.88,18.27-10.95,8.39-22.28,17.07-33.35,25.49-.27.21-.59.31-.91.31h0Z"/><path class="cls-1" d="M68.35,341.23c-.15,0-.3-.02-.44-.07-7.77-2.41-18.68-11.86-26.02-31.17-4.58-12.04-5.69-23.78-6.77-35.13-.27-2.86-.55-5.82-.89-8.75-.13-1.14-.31-2.25-.55-3.31-3.23,1.36-16.59,7.04-31.53,14.11-.49.23-1.08.18-1.52-.14-.44-.32-.68-.86-.61-1.4.9-7.03,1.91-14.99,6.45-21.37,4.46-6.27,13.75-10.47,20.97-6.31,7.44,4.28,9.31,14.08,9.77,18.09.34,2.95.62,5.93.89,8.8,1.11,11.67,2.16,22.68,6.59,34.35,5.73,15.08,15.19,26.61,24.11,29.37.79.25,1.23,1.08.99,1.88-.2.64-.79,1.06-1.43,1.06h0ZM21.11,249.05c-4.61,0-9.48,2.87-12.2,6.69-3.55,4.99-4.75,11.34-5.56,17.29,14.6-6.84,27.21-12.17,29.53-13.14-1.47-4.43-3.9-7.85-6.94-9.6-1.49-.86-3.14-1.24-4.83-1.24h0Z"/><path class="cls-1" d="M14.54,250.62c-.53,0-1.04-.28-1.31-.77-.4-.72-.14-1.64.58-2.04,7.93-4.4,17.18-7.44,26.98-10.65,8.3-2.72,16.89-5.53,24.61-9.26.74-.36,1.64-.05,2,.7s.05,1.64-.7,2c-7.9,3.81-16.58,6.66-24.98,9.41-9.66,3.17-18.78,6.15-26.46,10.42-.23.13-.48.19-.73.19h0Z"/><path class="cls-1" d="M79.04,239c-3.87,0-7.36-2.26-8.57-4.58-.19-.36-.22-.79-.09-1.18l18.9-55.38c.14-.42.47-.76.89-.92,5.02-1.91,10.05-.17,11.96,4.15.15.34.17.73.05,1.08l-18.36,55.07c-.13.4-.42.72-.8.89-1.32.6-2.67.86-3.98.86h0ZM73.45,233.53c1.25,1.58,4.54,3.22,7.74,2.12l17.94-53.82c-1.32-2.32-4.17-3.22-7.26-2.29l-18.43,53.99h.01Z"/><path class="cls-1" d="M70.92,251.66c-.19,0-.39-.04-.57-.11-.58-.24-.96-.83-.92-1.46.13-2.67.21-5.29.28-7.82.08-2.53.16-5.15.29-7.83.04-.83.76-1.45,1.57-1.43.83.04,1.47.74,1.43,1.57-.13,2.66-.21,5.26-.28,7.78-.04,1.19-.07,2.4-.12,3.63.94-1.1,1.9-2.22,2.84-3.33,1.9-2.24,3.86-4.56,5.67-6.56.56-.62,1.51-.66,2.12-.11.61.56.66,1.5.11,2.12-1.78,1.96-3.72,4.26-5.61,6.48-1.9,2.25-3.87,4.57-5.68,6.57-.29.32-.7.49-1.11.49h-.02Z"/><path class="cls-1" d="M42.46,250.64c-.58,0-1.14-.34-1.38-.91-.33-.76.03-1.64.79-1.97l22.72-9.75c.76-.33,1.64.03,1.97.79s-.03,1.64-.79,1.97l-22.72,9.75c-.19.08-.39.12-.59.12h0Z"/><path class="cls-1" d="M45.74,262.74c-.55,0-1.08-.3-1.34-.83-.37-.74-.07-1.64.67-2.01,3.96-1.99,7.96-3.72,11.83-5.39,2.5-1.08,5.09-2.2,7.65-3.38.75-.35,1.64-.02,1.99.73s.02,1.64-.73,1.99c-2.59,1.2-5.2,2.32-7.72,3.41-3.83,1.66-7.79,3.37-11.68,5.32-.22.11-.45.16-.67.16Z"/><path class="cls-1" d="M79.51,249.01c-.59,0-1.15-.35-1.39-.93-.31-.77.05-1.64.82-1.96l11.04-4.51,1.13,2.78-11.04,4.51c-.19.08-.38.11-.57.11h.01Z"/><path class="cls-1" d="M50.24,273.81c-.56,0-1.1-.32-1.36-.86-.36-.75-.04-1.64.71-2,3.29-1.57,6.6-3.17,9.88-4.76,10.89-5.28,21.18-10.27,30.1-13.57.78-.29,1.64.11,1.93.89s-.11,1.64-.89,1.93c-8.79,3.25-19.01,8.21-29.84,13.46-3.29,1.6-6.6,3.2-9.9,4.77-.21.1-.43.15-.64.15h0Z"/><path class="cls-1" d="M53.04,284.89c-.56,0-1.1-.32-1.36-.86-.36-.75-.04-1.64.71-2,2.74-1.3,5.48-2.63,8.21-3.96,9.09-4.41,17.68-8.57,25.14-11.33.78-.29,1.64.11,1.93.89.29.78-.11,1.64-.89,1.93-7.32,2.71-15.85,6.84-24.88,11.22-2.74,1.33-5.49,2.66-8.24,3.97-.21.1-.43.15-.64.15h.02Z"/><path class="cls-1" d="M80.86,310.19c-.46,0-.92-.21-1.22-.62-.49-.67-.34-1.61.33-2.09,1.82-1.32,3.65-2.66,5.46-4,6.06-4.46,11.79-8.66,16.88-11.7.71-.42,1.63-.19,2.06.52s.19,1.63-.52,2.06c-4.97,2.96-10.64,7.12-16.64,11.54-1.82,1.34-3.66,2.69-5.48,4.01-.27.19-.57.29-.88.29h.01Z"/><path class="cls-1" d="M81.75,299.21c-.5,0-.98-.25-1.27-.7-.44-.7-.23-1.63.47-2.07,1.31-.83,2.63-1.67,3.94-2.52,4.38-2.81,8.51-5.46,12.18-7.33.74-.38,1.64-.09,2.02.65s.09,1.64-.65,2.02c-3.53,1.81-7.61,4.42-11.92,7.19-1.32.84-2.64,1.69-3.96,2.53-.25.16-.53.23-.8.23h-.01Z"/><path class="cls-1" d="M441.66,313.61c-16.28,0-40.49-2.72-40.49-10.2,0-.83.67-1.5,1.5-1.5s1.5.67,1.5,1.5c0,2.51,12.88,7.2,37.49,7.2,6.08,0,11.45-.29,16.08-.75.22-.39,1.62-2.74,4.07-5.44,4.13-4.54,8.56-7.76,8.75-7.9.36-.26.83-.35,1.26-.23,6.96,1.83,10.34,4.17,10.34,7.13,0,7.48-24.22,10.2-40.5,10.2h0ZM471.75,299.37c-1.3,1-4.64,3.67-7.72,7.06-.99,1.09-1.8,2.13-2.4,2.97,11.57-1.56,17.53-4.28,17.53-5.99,0-.7-1.57-2.4-7.41-4.04Z"/><path class="cls-1" d="M451.94,296.49h-.09c-2.3-.13-4.68-.22-7.08-.25-.83-.01-1.49-.69-1.48-1.52.01-.82.68-1.48,1.5-1.48h.02c2.44.04,4.86.12,7.21.26.83.05,1.46.76,1.41,1.58-.05.8-.71,1.41-1.5,1.41h.01Z"/><path class="cls-1" d="M415.08,298.54c-.7,0-1.32-.49-1.47-1.2-.17-.81.35-1.6,1.16-1.77,4.22-.88,9.12-1.53,14.56-1.93.82-.07,1.54.56,1.61,1.39.06.83-.56,1.55-1.39,1.61-5.23.39-10.13,1.03-14.17,1.87-.1.02-.21.03-.31.03h.01Z"/><path class="cls-1" d="M441.18,386.73c-16.41,0-32.82-5.68-46.39-16.08-.66-.5-.78-1.45-.28-2.1.5-.66,1.45-.78,2.1-.28,13.45,10.3,29.8,15.81,46.01,15.44,16.23-.34,32.38-6.52,45.47-17.39.64-.53,1.58-.44,2.11.2s.44,1.58-.2,2.11c-13.62,11.3-30.42,17.72-47.32,18.08-.5.01-1.01.02-1.51.02h.01Z"/><path class="cls-1" d="M392.72,363.93c-.07,0-.15,0-.22-.02-.82-.12-1.39-.88-1.27-1.7.69-4.72,1.33-9.32,1.95-13.84,2.09-15.11,4.07-29.39,7.58-44.98.18-.81.97-1.32,1.79-1.13.81.18,1.32.98,1.13,1.79-3.49,15.47-5.45,29.68-7.54,44.73-.63,4.53-1.26,9.13-1.95,13.86-.11.75-.75,1.28-1.48,1.28h.01Z"/><path class="cls-1" d="M489.74,362.28c-.72,0-1.36-.53-1.48-1.26l-9.21-57.45c-.13-.82.43-1.59,1.24-1.72s1.59.43,1.72,1.24l9.21,57.45c.13.82-.43,1.59-1.24,1.72-.08.01-.16.02-.24.02h0Z"/><path class="cls-1" d="M505.22,368.84h-.24c-5.56-.08-11.28-2.42-15.69-6.42-.61-.56-.66-1.5-.1-2.12.56-.61,1.51-.66,2.12-.1,3.88,3.52,8.88,5.57,13.72,5.64,4.28.04,10.6-1.73,14.33-5.26,4.03-3.81,5.84-7.05,5.87-10.5.03-3.48-1.68-6.55-3.11-8.52-1.96-2.68-4.58-4.98-6.89-7.01-8.48-7.44-17.21-14.84-25.94-21.99-2.14-1.75-4.4-3.44-6.75-3.29-.83.03-1.54-.57-1.6-1.4-.05-.83.57-1.54,1.4-1.6,3.43-.24,6.25,1.83,8.84,3.96,8.76,7.17,17.51,14.6,26.02,22.06,2.43,2.13,5.19,4.55,7.34,7.5,1.7,2.33,3.72,6.01,3.69,10.31-.04,5.55-3.66,9.68-6.81,12.65-4.44,4.2-11.44,6.08-16.19,6.08h0Z"/><path class="cls-1" d="M519.53,363.91c-.43,0-.86-.19-1.16-.55-.53-.64-.44-1.58.2-2.11,2.18-1.79,2.61-6.05,1.65-8.89-1.04-3.08-3.4-5.71-5.73-8.13-9.37-9.76-17.2-16.53-27.01-23.36-.68-.47-.85-1.41-.37-2.09.47-.68,1.41-.85,2.09-.37,9.99,6.96,17.95,13.84,27.46,23.75,2.56,2.67,5.17,5.59,6.41,9.25,1.3,3.86.7,9.46-2.58,12.17-.28.23-.62.34-.95.34h-.01Z"/><path class="cls-1" d="M505.6,363.01c-.31,0-.63,0-.94-.03-7.04-.38-13.8-4.66-17.62-11.16-.42-.71-.18-1.63.53-2.05.71-.42,1.63-.18,2.05.53,3.27,5.56,9.24,9.37,15.2,9.69,6.49.36,12.72-3.62,14.21-9.04.22-.8,1.04-1.27,1.84-1.05.8.22,1.27,1.05,1.05,1.84-1.78,6.46-8.84,11.27-16.33,11.27h0Z"/><path class="cls-1" d="M421.45,311.84c-.54,0-1.06-.29-1.33-.81l-15.08-28.99c-1.16-2.24-2.37-4.55-4.21-6.15-1.51-1.31-3.92-2.25-5.88-1.39-2.3,1.01-3.1,4.07-2.68,6.44.5,2.85,2.37,5.48,4.02,7.8,1.87,2.62,3.97,5.7,6.01,8.68,2.02,2.95,4.11,6.01,5.95,8.6.48.67.32,1.61-.35,2.09s-1.61.32-2.09-.35c-1.86-2.61-3.96-5.68-5.98-8.65-2.03-2.97-4.12-6.03-5.97-8.63-1.83-2.58-3.91-5.5-4.53-9.02-.63-3.58.69-8.06,4.43-9.71,2.78-1.22,6.33-.49,9.05,1.87,2.27,1.97,3.67,4.66,4.9,7.03l15.08,28.99c.38.73.1,1.64-.64,2.02-.22.11-.46.17-.69.17h0Z"/><path class="cls-1" d="M429.02,312.19h-.17c-.82-.09-1.42-.83-1.33-1.66.79-7.08,1.37-25.84.43-37.96-.06-.83.55-1.55,1.38-1.61.81-.07,1.55.55,1.61,1.38.95,12.29.36,31.33-.44,38.52-.09.77-.74,1.33-1.49,1.33h.01Z"/><path class="cls-1" d="M441.25,313.33c-.08,0-.17,0-.25-.02-.82-.14-1.37-.91-1.23-1.73,2.37-14.14,6.28-29.43,10.21-39.9.29-.78,1.16-1.17,1.93-.88.78.29,1.17,1.16.88,1.93-3.87,10.3-7.73,25.38-10.06,39.34-.12.73-.76,1.25-1.48,1.25h0Z"/><path class="cls-1" d="M440.45,280.29c-2.34,0-4.74-.39-6.53-1.13-3.14-1.29-5.13-3.42-5.92-6.32-.22-.8.25-1.62,1.05-1.84.81-.22,1.62.26,1.84,1.05.55,2.01,1.87,3.39,4.16,4.33,2.26.93,6.07,1.18,8.67.56,3.25-.78,5.52-2.53,6.05-4.68.35-1.4-.12-2.75-1.32-3.8-.81-.71-2.15-1.15-3.97-1.3-4.06-.33-6.25,1.46-6.73,2.75-.27.72-.07,1.32.61,1.82.69.51,1.56.44,2.15.21s.99-.65,1.08-1.11c.15-.81.93-1.35,1.75-1.2.81.15,1.35.94,1.2,1.75-.28,1.48-1.37,2.74-2.93,3.35-1.71.67-3.64.45-5.03-.58-1.75-1.29-2.37-3.31-1.63-5.28.96-2.56,4.42-5.13,9.79-4.69,2.52.21,4.38.87,5.71,2.04,2.05,1.8,2.88,4.27,2.25,6.78-.81,3.26-3.9,5.84-8.27,6.88-1.21.29-2.58.43-3.98.43v-.02Z"/><path class="cls-1" d="M453.41,307.5c-.32,0-.65-.1-.92-.32-.65-.51-.77-1.45-.26-2.11,7.48-9.57,18.91-17.02,33.04-21.54,12.02-3.84,25.38-5.41,37.63-4.4.83.07,1.44.79,1.37,1.62s-.78,1.43-1.62,1.37c-31.58-2.6-56.95,10.59-68.06,24.8-.3.38-.74.58-1.18.58h0Z"/><path class="cls-1" d="M444.29,313.17c-.17,0-.35-.03-.53-.09-.78-.29-1.17-1.15-.88-1.93,11.62-31.1,38.84-53.3,60.66-61.5.77-.29,1.64.1,1.93.88.29.78-.1,1.64-.88,1.93-25.06,9.42-49.29,33.98-58.91,59.74-.23.6-.8.97-1.41.97h.02Z"/><path class="cls-1" d="M475.02,254.05c-.22,0-.45-.05-.66-.15-.74-.37-1.05-1.26-.69-2.01,7.06-14.39,18.69-26.55,32.75-34.25.72-.4,1.64-.13,2.04.59.4.73.13,1.64-.59,2.04-13.52,7.41-24.7,19.1-31.49,32.94-.26.53-.79.84-1.35.84h-.01Z"/><path class="cls-1" d="M497.84,297.13c-1.23,0-2.52-.3-3.72-.89-1.49-.73-2.75-1.84-3.68-3.21-1.27,1.71-3.17,2.94-5.29,3.3-3.37.57-6.89-1.09-8.59-4.03-.42-.72-.17-1.63.55-2.05.72-.42,1.63-.17,2.05.55,1.07,1.85,3.39,2.94,5.5,2.58,2.11-.36,3.93-2.15,4.33-4.25.13-.69.73-1.2,1.43-1.22h.04c.69,0,1.29.47,1.46,1.14.49,2,1.78,3.64,3.53,4.5,1.06.52,2.18.71,3.15.52.99-.19,1.85-.79,2.24-1.57.37-.74,1.28-1.03,2.02-.66s1.04,1.28.66,2.02c-.82,1.62-2.45,2.8-4.37,3.16-.42.08-.86.12-1.3.12h0Z"/><path class="cls-1" d="M504.2,293.59c-1.11,0-2.13-.21-3.03-.63-1.65-.77-2.82-2.27-3.04-3.91-.27-2.01.96-4,2.8-4.53.79-.23,1.63.23,1.86,1.02.23.8-.23,1.63-1.02,1.86-.41.12-.73.72-.66,1.24.09.63.61,1.26,1.33,1.59s1.67.43,2.75.27c.77-.11,1.64-.91,2.02-1.85.15-.37.21-.69.17-.92-.02-.14-.09-.24-.12-.26-.74-.36-1.05-1.26-.68-2,.37-.75,1.27-1.05,2.01-.69.93.46,1.59,1.4,1.76,2.51.12.77,0,1.6-.35,2.48-.65,1.62-2.25,3.4-4.38,3.7-.49.07-.96.11-1.41.11h0Z"/><path class="cls-1" d="M516.62,295.7c-.57,0-1.15-.06-1.73-.19-1.64-.36-3.25-1.21-4.78-2.53-.63-.54-.7-1.49-.16-2.12s1.49-.7,2.12-.16c1.15.99,2.32,1.62,3.47,1.87,1.23.27,2.48.07,3.36-.53.86-.6,1.37-1.68,1.2-2.58-.14-.78-.78-1.51-1.61-1.86-.84-.35-1.89-.35-2.9,0-.79.27-1.64-.15-1.91-.93-.27-.78.15-1.64.93-1.91,1.72-.59,3.51-.57,5.04.07,1.77.74,3.08,2.31,3.4,4.09.38,2.07-.6,4.31-2.44,5.59-1.13.78-2.52,1.19-3.98,1.19h-.01Z"/><path class="cls-1" d="M530.37,291.64c-1.3,0-2.67-.4-3.98-1.17-1.2-.71-2.19-1.6-3.28-2.6-.61-.56-.64-1.51-.08-2.12.57-.61,1.51-.64,2.12-.08.98.92,1.81,1.66,2.75,2.21.68.4,1.7.85,2.78.74.83-.08,1.58-.55,1.87-1.17.29-.62.2-1.54-.24-2.45-.75-1.54-2.24-2.73-3.91-3.11-.81-.19-1.31-.99-1.12-1.8s.99-1.3,1.8-1.12c2.56.59,4.78,2.36,5.93,4.73.84,1.74.94,3.57.27,5.02-.74,1.59-2.39,2.7-4.3,2.89-.2.02-.4.03-.61.03h0Z"/><path class="cls-1" d="M536.16,283.79c-.65,0-1.28-.19-1.8-.55-.68-.47-.85-1.41-.38-2.09s1.41-.85,2.09-.38c.02.02.11.03.21,0,.16-.04.32-.15.39-.26.19-.35.07-.92-.27-1.31-.4-.45-1.09-.75-1.9-.82-.92-.09-1.88.09-2.79.28l-.42.09c-.97.2-1.97.41-3.04.44h-.04c-.63,0-1.2-.4-1.41-1-.22-.61-.01-1.3.5-1.69.2-.18.26-1.09-.02-1.52-.32-.48-1.02-.82-1.81-.84-.96-.05-1.94.3-2.79.64-1.86.73-3.62,1.71-5.23,2.89-.67.49-1.61.35-2.1-.32s-.35-1.61.32-2.1c1.82-1.34,3.8-2.43,5.9-3.26,1.14-.45,2.5-.9,4-.84,1.78.07,3.35.89,4.21,2.2.45.68.68,1.6.67,2.52.08-.02.15-.03.23-.05l.43-.09c1.08-.22,2.34-.45,3.66-.32,1.58.15,2.96.79,3.87,1.82,1.17,1.33,1.45,3.27.67,4.72-.47.86-1.33,1.52-2.33,1.76-.27.07-.54.1-.81.1v-.02Z"/><path class="cls-1" d="M501.67,281.55c-.32,0-.63-.1-.91-.31-.66-.5-.79-1.44-.29-2.1,2.54-3.34,5.83-6.17,9.52-8.17,1.42-.77,3.32-1.65,5.39-1.51,2.11.13,4.49,1.53,4.93,3.97.15.81-.39,1.6-1.21,1.74-.81.15-1.6-.39-1.74-1.21-.16-.87-1.24-1.46-2.16-1.52-1.34-.06-2.71.58-3.78,1.16-3.32,1.8-6.28,4.34-8.56,7.35-.29.39-.74.59-1.2.59h.01Z"/><path class="cls-1" d="M490.44,282.08c-.17,0-.35-.03-.52-.09-.78-.29-1.17-1.15-.88-1.93,1.63-4.39,5.27-7.89,9.72-9.35.81-.27,1.88-.54,3.02-.33,1.42.26,2.57,1.3,2.85,2.58.18.81-.34,1.61-1.15,1.79-.81.17-1.61-.34-1.79-1.15-.02-.06-.19-.22-.46-.28-.47-.08-1.07.08-1.54.23-3.54,1.16-6.55,4.05-7.84,7.55-.23.6-.8.98-1.41.98h0Z"/><path class="cls-1" d="M484.1,283.74h-.11c-.83-.06-1.45-.77-1.39-1.6.14-2.04,1.22-3.96,2.9-5.13,1.67-1.18,3.84-1.55,5.81-.99.8.23,1.26,1.05,1.04,1.85-.22.8-1.05,1.26-1.85,1.04-1.08-.31-2.34-.09-3.27.56s-1.55,1.76-1.63,2.89c-.05.79-.71,1.4-1.49,1.4v-.02Z"/><path class="cls-1" d="M488.39,270.13c-.94,0-1.87-.07-2.81-.21-.82-.12-1.38-.89-1.26-1.71s.89-1.39,1.71-1.26c2.86.43,5.78.07,8.45-1.04.9-.37,2.01-.99,2.2-1.83.13-.57-.22-1.28-.82-1.67-.64-.42-1.57-.55-2.54-.35-1.09.22-2.12.79-3,1.31-.71.42-1.63.2-2.06-.51-.43-.71-.2-1.63.51-2.06,1.09-.66,2.42-1.37,3.95-1.68,1.77-.36,3.46-.08,4.78.79,1.64,1.07,2.5,3.07,2.1,4.85-.38,1.67-1.72,3-3.97,3.93-2.3.96-4.76,1.44-7.24,1.44h0Z"/><path class="cls-1" d="M474.3,281.45c-2.36,0-4.55-1.7-4.87-3.91-.12-.82.45-1.58,1.27-1.7.81-.12,1.58.45,1.7,1.27.12.8,1.18,1.45,2.16,1.32,1.06-.15,2.11-1.02,2.74-2.27.67-1.33.87-2.93,1.02-4.45.07-.69.6-1.24,1.28-1.34.68-.09,1.35.29,1.6.93.5,1.25,1.89,1.91,3.39,1.59,1.52-.32,2.95-1.5,3.93-3.24.41-.72,1.32-.98,2.04-.57s.98,1.32.57,2.04c-1.41,2.5-3.57,4.21-5.94,4.71-1.6.33-3.14.07-4.39-.65-.19.79-.46,1.57-.83,2.32-1.08,2.15-2.95,3.61-5,3.9-.23.03-.45.05-.67.05h0Z"/><path class="cls-1" d="M501.82,264.02c-.64,0-1.24-.05-1.73-.1-.82-.09-1.42-.83-1.33-1.66.09-.82.85-1.42,1.66-1.33,1.53.17,2.66.09,3.56-.25.96-.37,1.69-1.13,1.83-1.91.11-.63-.18-1.36-.7-1.74-.52-.38-1.3-.44-1.87-.15-.74.38-1.64.09-2.02-.65-.38-.74-.09-1.64.65-2.02,1.57-.81,3.59-.65,5.02.4,1.43,1.05,2.18,2.92,1.88,4.67-.32,1.84-1.74,3.44-3.71,4.2-1.09.42-2.22.54-3.22.54h-.02Z"/><path class="cls-1" d="M511.31,259.85c-1.02,0-2-.12-2.92-.23-.82-.1-1.41-.85-1.31-1.67s.86-1.4,1.67-1.31c1.46.18,2.97.37,4.29,0,.95-.26,2.04-1,2.19-2.02.1-.7-.3-1.53-.98-2.07-.88-.68-2.03-.85-2.84-.88-1.17-.03-2.42.19-3.62.41-.81.15-1.6-.39-1.74-1.21-.15-.81.39-1.6,1.21-1.74,1.29-.24,2.76-.51,4.25-.46,1.81.06,3.4.58,4.59,1.51,1.53,1.19,2.36,3.09,2.11,4.85-.33,2.38-2.44,3.97-4.37,4.5-.84.23-1.69.31-2.52.31h-.01Z"/><path class="cls-1" d="M512.68,251.18c-.5,0-.99-.25-1.27-.7-.44-.7-.23-1.63.47-2.07.84-.53,1.7-1.1,2.25-1.84.46-.62.65-1.36.47-1.88-.2-.58-.96-1.06-1.76-1.09-.84-.04-1.79.29-2.83.97-1.47.97-2.65,2.32-3.41,3.91-.36.75-1.26,1.06-2,.7-.75-.36-1.06-1.26-.7-2,1-2.07,2.54-3.83,4.46-5.1,1.57-1.04,3.13-1.54,4.62-1.46,2.05.1,3.84,1.34,4.46,3.1.51,1.48.18,3.22-.9,4.66-.86,1.15-2.03,1.93-3.06,2.58-.25.16-.52.23-.8.23h0Z"/><path class="cls-1" d="M493.81,253.42c-.8,0-1.46-.63-1.5-1.44-.11-2.72.85-5.46,2.63-7.51,1.08-1.24,2.27-2.01,3.55-2.28,1.64-.35,3.39.17,4.58,1.35,1.19,1.18,1.72,2.93,1.38,4.58-.17.81-.97,1.33-1.77,1.17-.81-.17-1.33-.96-1.17-1.77.13-.64-.09-1.38-.56-1.84-.46-.46-1.21-.68-1.85-.54-.78.16-1.46.8-1.9,1.31-1.29,1.49-1.98,3.46-1.9,5.43.03.83-.61,1.53-1.44,1.56h-.06v-.02Z"/><path class="cls-1" d="M483.01,260.07h-.02c-.83,0-1.49-.69-1.48-1.52.03-2.54.56-4.69,1.58-6.4,1.33-2.23,3.6-3.71,5.91-3.85.93-.06,1.75.11,2.42.5,1,.58,1.6,1.65,1.53,2.72-.05.83-.78,1.44-1.59,1.4-.79-.05-1.4-.71-1.4-1.49-.14-.1-.35-.17-.77-.14-1.34.08-2.69,1-3.52,2.4-.75,1.25-1.13,2.9-1.16,4.9,0,.82-.68,1.48-1.5,1.48h0Z"/><path class="cls-1" d="M475.74,267.63c-.68,0-1.3-.47-1.46-1.16-.67-2.88-.46-5.99.59-8.75.69-1.82,1.63-3.12,2.85-3.97,1.71-1.18,3.98-1.25,5.52-.18.68.47.84,1.41.37,2.09-.48.68-1.41.84-2.09.37-.51-.36-1.42-.28-2.1.19-.7.48-1.29,1.34-1.75,2.56-.84,2.21-1.01,4.7-.48,7.01.19.81-.32,1.61-1.12,1.8-.11.03-.23.04-.34.04h.01Z"/><path class="cls-1" d="M467.55,274.65c-.67,0-1.28-.45-1.45-1.12-.36-1.37-.8-3.44-.61-5.57.21-2.22,1.09-4.18,2.5-5.52,1.71-1.63,4.15-2.24,6.23-1.54.79.26,1.21,1.11.94,1.9-.26.79-1.11,1.21-1.9.94-1.01-.34-2.3,0-3.2.87-.88.84-1.44,2.13-1.58,3.62-.12,1.28.04,2.68.53,4.54.21.8-.27,1.62-1.08,1.83-.13.03-.25.05-.38.05h0Z"/><path class="cls-1" d="M488.63,243.81c-.17,0-.34,0-.51-.02-1.8-.13-3.23-1.01-3.82-2.34-.33-.76,0-1.64.77-1.98.75-.33,1.64,0,1.98.77.12.28.67.52,1.29.56,1.36.1,2.78-.48,3.69-1.52.9-1.04,1.28-2.52.99-3.86-.17-.81.34-1.61,1.15-1.78s1.61.34,1.78,1.15c.48,2.25-.16,4.72-1.66,6.46-1.4,1.61-3.53,2.56-5.66,2.56h0Z"/><path class="cls-1" d="M495.7,237.34c-1.44,0-2.85-.58-3.79-1.67-.54-.62-.48-1.57.15-2.12.62-.54,1.57-.48,2.12.15.54.62,1.61.82,2.43.44.84-.39,1.45-1.37,1.5-2.38.04-1.02-.45-2.12-1.3-2.87-.62-.55-.68-1.5-.12-2.12.55-.62,1.5-.68,2.12-.12,1.52,1.35,2.38,3.31,2.3,5.24-.09,2.14-1.36,4.09-3.22,4.96-.69.32-1.44.48-2.17.48h-.02Z"/><path class="cls-1" d="M501.35,232.61c-.77,0-1.42-.58-1.49-1.36-.08-.83.53-1.55,1.36-1.63.97-.09,1.91-.77,2.29-1.67s.23-2.05-.38-2.81c-.52-.65-.41-1.59.24-2.11s1.59-.41,2.11.24c1.3,1.64,1.61,3.94.79,5.86-.82,1.92-2.7,3.29-4.78,3.48h-.14,0Z"/><path class="cls-1" d="M508.14,227.42c-.75,0-1.5-.15-2.21-.44-.76-.32-1.12-1.2-.8-1.97.32-.76,1.2-1.12,1.97-.8.83.35,1.87.24,2.61-.28.73-.52,1.19-1.46,1.15-2.36-.05-.89-.61-1.79-1.39-2.22-.72-.4-.99-1.31-.59-2.04s1.31-.99,2.04-.59c1.71.94,2.83,2.74,2.94,4.69.1,1.95-.82,3.86-2.42,4.98-.97.68-2.13,1.03-3.29,1.03h0Z"/><path class="cls-1" d="M498.65,218.38c-.69,0-1.31-.47-1.46-1.17-.28-1.25-.54-2.74-.34-4.25.23-1.79,1.1-3.33,2.38-4.24,2.03-1.44,5.1-1.12,6.98.72,1.64,1.6,2.3,4.11,1.73,6.54-.19.81-1,1.31-1.8,1.12-.81-.19-1.31-1-1.12-1.8.33-1.39-.03-2.85-.91-3.71-.85-.83-2.29-1.02-3.15-.41-.59.42-1.01,1.23-1.14,2.17-.13,1.05.06,2.16.3,3.21.18.81-.33,1.61-1.14,1.79-.11.02-.22.04-.33.04h0Z"/><path class="cls-1" d="M489.13,228.58c-.7,0-1.32-.49-1.47-1.2-.39-1.9-.7-3.95-.4-6.04.35-2.45,1.55-4.54,3.3-5.74,2.19-1.51,5.14-1.45,7.01.15.63.54.7,1.49.16,2.12-.54.63-1.48.7-2.12.16-.82-.7-2.3-.69-3.36.04s-1.8,2.08-2.03,3.7c-.23,1.65.04,3.39.37,5.02.17.81-.36,1.6-1.17,1.77-.1.02-.2.03-.3.03h0Z"/><path class="cls-1" d="M482.51,235.11c-.73,0-1.37-.54-1.48-1.28-.19-1.31-.39-2.67-.31-4.1.09-1.73.61-3.25,1.49-4.41,1.14-1.49,2.9-2.34,4.6-2.2.83.06,1.44.78,1.38,1.61s-.8,1.45-1.61,1.38c-.67-.04-1.47.35-1.99,1.03-.65.85-.84,1.97-.88,2.75-.06,1.13.12,2.34.29,3.51.12.82-.45,1.58-1.27,1.7-.07,0-.15.02-.22.02h0Z"/><path class="cls-1" d="M478.64,243.1c-.24,0-.49-.06-.72-.18-2.39-1.3-3.85-4.1-3.56-6.8s2.31-5.13,4.92-5.9c.8-.24,1.63.22,1.86,1.01.23.79-.22,1.63-1.01,1.86-1.45.43-2.62,1.83-2.79,3.34-.16,1.51.69,3.13,2.02,3.85.73.4,1,1.31.6,2.04-.27.5-.79.78-1.32.78h0Z"/><path class="cls-1" d="M511.44,217.73c-.66,0-1.26-.43-1.44-1.09-.22-.8.24-1.63,1.04-1.85.86-.24,1.6-.98,1.85-1.83.25-.86.02-1.88-.58-2.54-.59-.67-1.59-1.01-2.46-.86-.59.1-1.24.42-1.9.95-.65.51-1.59.4-2.11-.25-.51-.65-.4-1.59.25-2.11,1.07-.84,2.16-1.37,3.25-1.56,1.89-.33,3.93.39,5.21,1.82,1.28,1.43,1.75,3.54,1.22,5.38-.54,1.87-2.05,3.36-3.92,3.88-.14.04-.27.06-.41.06h0Z"/><ellipse class="cls-1" cx="398.83" cy="281.96" rx="2.3" ry="3.03" transform="translate(-75.45 165.21) rotate(-21.43)"/><path class="cls-1" d="M310.6,179.8c-.44,0-.84-.29-.96-.73-.15-.53.17-1.08.7-1.23,6.41-1.78,12.45-5.03,17.46-9.4.42-.36,1.05-.32,1.41.1.36.42.32,1.05-.1,1.41-5.24,4.57-11.55,7.97-18.25,9.82-.09.02-.18.04-.27.04h0Z"/><path class="cls-1" d="M309.5,188.68c-.52,0-.95-.4-1-.92-.04-.55.37-1.03.92-1.08,4.6-.37,9.04-2.53,12.18-5.92.38-.41,1.01-.43,1.41-.06.41.38.43,1.01.06,1.41-3.47,3.75-8.39,6.14-13.49,6.56h-.08Z"/><path class="cls-1" d="M174.88,255.96c-.38,0-.75-.22-.91-.59-1.46-3.28-1.98-7.04-1.45-10.58.08-.55.59-.92,1.14-.84s.92.59.84,1.14c-.47,3.18,0,6.54,1.29,9.47.23.5,0,1.1-.51,1.32-.13.06-.27.09-.41.09h.01Z"/><path class="cls-1" d="M181.93,255.16c-.27,0-.54-.11-.74-.32-1.83-1.98-3.08-4.43-3.62-7.08-.11-.54.24-1.07.78-1.18.54-.11,1.07.24,1.18.78.47,2.29,1.55,4.4,3.13,6.12.37.41.35,1.04-.06,1.41-.19.18-.43.26-.68.26h0Z"/><path class="cls-1" d="M440.66,333.07c-12.4,0-24.74-2.59-36.11-7.62-.5-.22-.73-.81-.51-1.32.22-.5.81-.73,1.32-.51,13.63,6.03,28.69,8.47,43.53,7.06.57-.07,1.04.35,1.09.9s-.35,1.04-.9,1.09c-2.8.27-5.61.4-8.41.4h0Z"/><path class="cls-1" d="M437.48,343.16h-.04c-12.83-.51-23.15-1.7-34.89-6.08-.52-.19-.78-.77-.59-1.29.19-.52.77-.78,1.29-.59,11.49,4.28,21.63,5.45,34.27,5.96.55.02.98.49.96,1.04-.02.54-.46.96-1,.96h0Z"/><path class="cls-1" d="M435.92,356.81c-7.6,0-15.16-.95-22.58-2.85-.54-.14-.86-.68-.72-1.22.14-.54.68-.86,1.22-.72,10.5,2.68,21.27,3.43,32.04,2.23.55-.06,1.04.33,1.11.88.06.55-.33,1.04-.88,1.11-3.39.38-6.79.57-10.18.57h-.01Z"/><path class="cls-1" d="M405.34,364.33s-.1,0-.15-.01c-.55-.08-.92-.59-.84-1.14,2.7-18.08,4.23-31.68,5.09-45.47.03-.55.52-.95,1.06-.94.55.04.97.51.94,1.06-.87,13.85-2.4,27.5-5.11,45.64-.07.5-.5.85-.99.85h0Z"/><path class="cls-1" d="M416.7,366.4h-.1c-.55-.05-.95-.54-.9-1.09l.68-6.89c1.4-14.15,2.42-24.38,2.88-37.76.02-.55.5-.99,1.03-.96.55.02.98.48.96,1.03-.47,13.45-1.49,23.7-2.89,37.89l-.68,6.89c-.05.52-.49.9-.99.9h.01Z"/><path class="cls-1" d="M427.42,363.94h-.07c-.55-.04-.97-.52-.93-1.07.33-4.73.6-8.8.84-12.54.61-9.21,1.1-16.49,1.93-26.71.05-.55.54-.94,1.08-.92.55.04.96.53.92,1.08-.83,10.21-1.31,17.48-1.93,26.68-.25,3.74-.52,7.81-.84,12.54-.04.53-.48.93-1,.93h0Z"/><path class="cls-1" d="M438.65,361.88h-.01c-.55,0-.99-.46-.99-1.01.05-4.11.09-7.63.13-10.88.08-7.92.15-14.18.39-22.98.02-.54.46-.97,1-.97h.03c.55.02.99.48.97,1.03-.24,8.79-.31,15.04-.39,22.95-.04,3.25-.07,6.78-.13,10.88,0,.55-.45.99-1,.99h0Z"/><ellipse class="cls-1" cx="232.62" cy="132.57" rx="7.06" ry="7.45"/><ellipse class="cls-1" cx="285.54" cy="130.33" rx="7.06" ry="7.45"/><path class="cls-1" d="M373.58,115.97s4.29-.75,8.91,0,9.35,1.97,9.35,1.97l-5.59-9.71-12.67,5.06v2.67h0Z"/><ellipse class="cls-1" cx="278.17" cy="371.14" rx="56.98" ry="15.75"/><path class="cls-1" d="M459.92,309.23l11.52-11.49s7.92,3.12,8.47,3.95-.61,3.62-2.06,4.31-14.86,4.7-14.86,4.7l-3.07-1.47h0Z"/><polygon class="cls-1" points="444.29 310.69 451.94 295.63 444.8 295.15 441.25 312.11 444.29 310.69"/><polygon class="cls-1" points="428.8 311.62 429.86 294.87 415.08 297.73 421.45 310.34 428.8 311.62"/><path class="cls-1" d="M520.48,351.34s1.75,2.48,1.72,4.46c-.02,1.98-1.82,5.86-1.82,5.86,0,0-6.25,5.54-15.38,5.67-9.14.13-14.71-6.03-14.71-6.03l-1.23-8.31s7.83,8.1,13.12,8.51,11.09-2.04,12.64-2.56,5.65-7.61,5.65-7.61h.01Z"/><path class="cls-1" d="M33.83,261.11s-.48-8.22-8.35-11.98c-7.87-3.75-13.18,0-17.16,4.9s-6.82,21.52-6.82,21.52l32.33-14.44Z"/></g></svg>