<?xml version="1.0" encoding="UTF-8"?><svg id="_レイヤー_2" xmlns="http://www.w3.org/2000/svg" viewBox="0 0 635 368"><defs><style>.cls-1{stroke-width:0px;}</style></defs><g id="_アウトライン済み"><path class="cls-1" d="M120.25,337.53c-15.7,0-28.17-2.9-40.76-9.37-6.78-3.48-6.45-7.43-5.65-9.48,1.25-3.21,4.83-3.91,7.44-4.43.3-.06.59-.12.87-.18,18.03-3.82,34.13-11.13,47.88-21.72,16.22-12.5,21.44-21.24,19.26-32.25-.8-4.03-3.66-8.32-6.69-12.87l-.72-1.08c-12.94-19.5-13.45-49.5-1.19-69.76,12.21-20.17,36.17-32.09,59.62-29.64,1.1.11,1.9,1.1,1.78,2.2-.12,1.1-1.1,1.88-2.2,1.78-21.94-2.29-44.36,8.86-55.78,27.73-11.33,18.72-10.85,47.48,1.1,65.48l.71,1.07c3.26,4.89,6.33,9.5,7.29,14.31,2.89,14.55-6.2,25-20.74,36.2-14.22,10.96-30.88,18.52-49.49,22.47-.3.06-.61.12-.92.19-1.89.37-4.03.8-4.49,1.96-.68,1.75,1.66,3.39,3.75,4.46,13.71,7.04,26.71,9.59,44.87,8.79h.09c1.06,0,1.95.84,2,1.91.05,1.1-.81,2.04-1.91,2.08-2.09.09-4.13.14-6.11.14h0Z"/><path class="cls-1" d="M129.39,363.61c-.25,0-.48,0-.69-.02-3.16-.25-5.94-1.94-7.24-4.41-2.28-4.32.13-9.11,2.48-12.8l29.56-46.35c.6-.93,1.83-1.2,2.76-.61.93.59,1.21,1.83.61,2.76l-29.56,46.35c-1.77,2.78-3.63,6.28-2.32,8.78.8,1.52,2.6,2.18,4.02,2.29,1.9.14,7.84-.9,9.86-1.54,21.3-6.84,38.53-19.11,49.83-35.48.63-.91,1.87-1.14,2.78-.51s1.14,1.87.51,2.78c-11.8,17.1-29.75,29.91-51.9,37.02-2.05.66-7.77,1.75-10.72,1.75h.02Z"/><path class="cls-1" d="M202.68,325.92c-9.95,0-18.5-3.14-26.66-9.61-.87-.69-1.01-1.94-.33-2.81.69-.87,1.94-1.01,2.81-.33,10.86,8.61,22.57,10.73,37.97,6.87,14.68-3.68,24.83-18.02,26.51-26.96.5-2.68.05-4.08-.5-4.46-1.56-1.1-4.76.92-6.88,2.26-.75.48-1.47.93-2.1,1.25-7.71,3.93-14.81,3.29-21.33,2-7.36-1.45-14.04-5.81-18.34-11.95-.63-.91-.41-2.15.49-2.79.91-.63,2.15-.41,2.79.49,3.71,5.31,9.48,9.07,15.84,10.32,6.73,1.33,12.49,1.56,18.74-1.64.47-.24,1.11-.64,1.78-1.07,3.02-1.91,7.59-4.79,11.33-2.14,2.11,1.5,2.86,4.5,2.12,8.47-1.88,10-13.16,26.02-29.47,30.11-5.28,1.32-10.17,1.99-14.76,1.99h0Z"/><path class="cls-1" d="M263.39,307.54c-1.86,0-3.72-.2-5.53-.61-1.08-.25-1.75-1.32-1.51-2.39s1.32-1.75,2.39-1.51c6.78,1.54,14.31-.42,19.63-5.12,5.36-4.74,8.52-12.26,8.25-19.63-.11-2.96-.75-5.88-1.9-8.68-.42-1.02.07-2.19,1.09-2.61,1.02-.42,2.19.07,2.61,1.09,1.33,3.24,2.08,6.62,2.2,10.05.31,8.54-3.36,17.27-9.6,22.78-4.86,4.29-11.27,6.64-17.64,6.64h.01Z"/><path class="cls-1" d="M281.79,263.14c-.55,0-1.1-.23-1.5-.67-1.02-1.15-2.14-2.19-3.34-3.09-.88-.66-1.06-1.92-.39-2.8.66-.88,1.92-1.06,2.8-.39,1.41,1.06,2.73,2.28,3.93,3.63.73.83.66,2.09-.17,2.82-.38.34-.85.5-1.33.5h0Z"/><path class="cls-1" d="M243.5,259.78c-.47,0-.95-.17-1.33-.51-.82-.74-.89-2-.16-2.82,25.03-27.99,21.4-53.71,13.94-70.36-7.05-15.73-24.75-29.16-44.05-33.41-1.08-.24-1.76-1.3-1.52-2.38.24-1.08,1.3-1.76,2.38-1.52,20.47,4.51,39.29,18.85,46.83,35.68,7.94,17.73,11.86,45.08-14.61,74.66-.4.44-.94.67-1.49.67h.01,0Z"/><path class="cls-1" d="M238.4,328.7h-.07l-46.03-2.27c-.83-.04-1.46-.74-1.42-1.57.04-.83.72-1.45,1.57-1.42l45.27,2.23,50.06-62.09-62.25-4.26-22.61,28.99c-.51.65-1.45.77-2.11.26-.65-.51-.77-1.45-.26-2.11l23.1-29.62c.31-.39.79-.62,1.29-.57l65.92,4.51c.56.04,1.05.38,1.27.9.22.51.14,1.11-.21,1.54l-52.34,64.92c-.29.35-.72.56-1.17.56h-.01Z"/><path class="cls-1" d="M200.83,282.11h-.17c-3.44-.03-8.29-2.14-10.12-5.5-2.13-3.91-2.69-9.87,1.13-13.74,3.29-3.33,8.63-4.84,13.6-3.84,4.59.93,8.76,3.82,11.43,7.95.45.7.25,1.62-.44,2.07s-1.62.25-2.07-.44c-2.21-3.4-5.76-5.89-9.51-6.64-4-.81-8.27.37-10.87,3.01-2.62,2.66-2.3,7.14-.63,10.2,1.13,2.07,4.64,3.91,7.51,3.94h.15c4.04,0,6.6-1.48,6.63-1.49.71-.43,1.63-.2,2.06.51.43.71.2,1.63-.51,2.06-.13.08-3.25,1.92-8.18,1.92h-.01Z"/><path class="cls-1" d="M209.62,273.2c-.16,0-.33-.03-.49-.08-3.02-1.04-6.3-1.39-9.48-1-.82.1-1.57-.49-1.67-1.31-.1-.82.49-1.57,1.31-1.67,3.63-.44,7.37-.04,10.82,1.15.78.27,1.2,1.12.93,1.91-.21.62-.8,1.01-1.42,1.01h0Z"/><path class="cls-1" d="M212.75,230.39h-.12c-.41-.03-.79-.23-1.04-.55-1.23-1.51-2.35-2.68-3.53-3.93-.9-.95-1.83-1.92-2.8-3.05-.83.54-1.59.99-2.34,1.44-.85.51-1.73,1.03-2.74,1.7-.69.46-1.62.26-2.08-.43-.46-.69-.26-1.62.43-2.08,1.06-.7,1.97-1.24,2.85-1.77,1.07-.64,2.09-1.25,3.3-2.09.64-.45,1.52-.32,2.02.28,1.23,1.51,2.35,2.68,3.53,3.93.87.91,1.75,1.84,2.68,2.92.85-.72,1.75-1.45,2.68-2.21,2.04-1.66,4.15-3.38,6.03-5.23.29-.29.7-.46,1.1-.43.41,0,.8.19,1.07.5,1.26,1.4,2.49,2.73,3.72,4.06.9.97,1.8,1.94,2.71,2.94.95-.91,1.9-1.78,2.83-2.63,1.28-1.18,2.61-2.39,3.88-3.66.58-.58,1.52-.58,2.11,0,.92.9,2.02,1.65,3.18,2.45.84.58,1.7,1.16,2.51,1.83.78-.73,1.5-1.39,2.21-2.05,1.03-.95,2.05-1.9,3.25-3.02.61-.57,1.55-.53,2.12.07.57.61.53,1.55-.07,2.12-1.21,1.13-2.24,2.08-3.27,3.03-1.01.93-2.02,1.87-3.2,2.97-.58.55-1.5.54-2.07-.02-.92-.9-2.02-1.65-3.18-2.45-.83-.57-1.68-1.15-2.48-1.8-.99.95-1.99,1.86-2.96,2.76-1.28,1.17-2.61,2.39-3.87,3.65-.29.29-.69.46-1.1.43-.41,0-.8-.19-1.07-.5-1.26-1.4-2.49-2.73-3.72-4.06-.9-.97-1.8-1.95-2.72-2.95-1.66,1.53-3.41,2.96-5.11,4.34-1.34,1.09-2.6,2.12-3.74,3.13-.28.25-.63.38-1,.38v-.02h0Z"/><path class="cls-1" d="M197.27,209.94c-.2,0-.4-.04-.6-.12-3.07-1.34-5.36-4.45-5.97-8.12-.56-3.33.27-6.93,2.27-9.85,2.48-3.64,6.55-5.82,10.61-5.69,4.24.14,8.26,2.91,10,6.89,1.65,3.79,2,9.4-1.14,12.75-.57.61-1.52.64-2.12.07-.6-.57-.64-1.52-.07-2.12,2.12-2.26,1.89-6.49.58-9.5-1.29-2.94-4.24-4.99-7.35-5.1-3.05-.12-6.12,1.58-8.03,4.38-1.54,2.26-2.21,5.13-1.79,7.67.44,2.64,2.09,4.94,4.21,5.87.76.33,1.11,1.21.78,1.97-.25.56-.8.9-1.38.9Z"/><path class="cls-1" d="M236.48,207.72c-.37,0-.75-.14-1.04-.42-2.92-2.78-4.42-5.77-4.6-9.12-.31-5.74,3.5-11.44,8.66-12.98,5.22-1.55,11.24,1.27,13.71,6.44,2.43,5.09,1.13,11.93-2.98,15.58-.62.55-1.57.49-2.12-.12-.55-.62-.5-1.57.12-2.12,3.11-2.76,4.12-8.17,2.26-12.05-1.85-3.87-6.31-6-10.15-4.86-3.9,1.16-6.76,5.53-6.52,9.94.14,2.56,1.34,4.89,3.68,7.12.6.57.62,1.52.05,2.12-.29.31-.69.46-1.08.46h.01Z"/><ellipse class="cls-1" cx="245.06" cy="201.53" rx="6.55" ry="6.92"/><ellipse class="cls-1" cx="205.91" cy="203.17" rx="6.55" ry="6.92"/><path class="cls-1" d="M202.16,155.94c-.99,0-1.85-.73-1.98-1.74-1.75-13.18-4.83-28.26-14.41-40.84-5.94,2.41-12.35,4.53-19.58,3.97-8.93-.69-15.82-5.62-18.43-13.19-2.18-6.33-.66-13.1,3.88-17.25,5.75-5.26,15.28-6.67,22.65-3.33,10.84,4.9,14.27,14.21,14.41,14.61.37,1.04-.17,2.18-1.21,2.56-1.04.37-2.18-.17-2.56-1.21-.03-.07-3.05-8.13-12.29-12.31-5.98-2.7-13.68-1.59-18.31,2.64-3.36,3.08-4.46,8.18-2.8,13,2.07,6.01,7.66,9.94,14.95,10.51,6.93.55,13.01-1.71,19.14-4.26.82-.34,1.77-.1,2.33.59,10.92,13.58,14.31,29.86,16.18,44,.15,1.09-.62,2.1-1.72,2.25-.09,0-.18.02-.27.02l.02-.02h0Z"/><path class="cls-1" d="M211.48,156.5c-1,0-1.86-.75-1.98-1.76-1.91-16.06-7.7-31.64-16.74-45.05-.3-.45-.41-1-.3-1.53s.43-.99.89-1.28c8.83-5.59,13.7-14.75,13.36-25.15-.12-3.57-2.04-9.01-4.44-10.97-2.99-2.44-8.27-2.16-11.29.61-5.04,4.61-3.99,14.29-3.97,14.39.13,1.1-.66,2.09-1.75,2.22-1.09.12-2.09-.65-2.22-1.75-.06-.48-1.32-11.81,5.25-17.81,4.53-4.14,11.94-4.48,16.51-.75,3.46,2.82,5.77,9.43,5.91,13.94.37,11.17-4.54,21.09-13.53,27.52,8.77,13.55,14.39,29.12,16.3,45.15.13,1.1-.65,2.09-1.75,2.22h-.25Z"/><path class="cls-1" d="M181.68,105.18c-.47,0-.94-.16-1.31-.49-5.15-4.5-12.02-7.16-18.86-7.31-1.1-.02-1.98-.94-1.96-2.04.02-1.09.91-1.96,2-1.96h.04c7.76.17,15.56,3.19,21.4,8.29.83.73.92,1.99.19,2.82-.39.45-.95.68-1.51.68h.01Z"/><path class="cls-1" d="M240.63,367.72c-1.25,0-2.62-.19-4.08-.57-4.43-1.16-23.97-11.51-38.61-41.02-.49-.99-.09-2.19.9-2.68.99-.49,2.19-.09,2.68.9,15.57,31.39,35.85,38.88,36.04,38.93,5.97,1.56,6.9-1.33,7.2-2.28.76-2.36-.31-11.2-1.25-18.99-.89-7.39-1.81-15.03-1.79-20.55,0-1.1.9-1.99,2-1.99h0c1.1,0,2,.9,1.99,2.01-.02,5.27.88,12.79,1.76,20.06,1.31,10.85,2.06,17.66,1.09,20.69-1.15,3.6-3.96,5.5-7.94,5.5h.01Z"/><path class="cls-1" d="M259.76,339.14c-5.41,0-10.84-.96-15.86-2.86-1.03-.39-1.55-1.54-1.17-2.58.39-1.03,1.55-1.55,2.58-1.17,7.08,2.67,15.06,3.31,22.47,1.8s14.51-5.22,19.98-10.44c.76-.72,2.47-2.54,2.04-3.83-.31-.93-1.72-1.59-3.02-2.14-1.3-.55-2.67-1.09-4.07-1.64-5.72-2.26-12.21-4.81-17.1-9.26-.82-.74-.88-2.01-.13-2.83.74-.81,2.01-.88,2.83-.13,4.34,3.95,10.2,6.26,15.87,8.5,1.42.56,2.82,1.11,4.15,1.67,1.52.64,4.34,1.83,5.26,4.55.59,1.75.53,4.56-3.07,7.99-6.01,5.74-13.8,9.81-21.95,11.47-2.89.59-5.85.88-8.82.88v.02h.01Z"/><path class="cls-1" d="M275.04,262.47c-.27,0-.55-.07-.8-.23-.7-.44-.91-1.37-.47-2.07,2.93-4.66,5.89-8.96,9.02-13.52,1.57-2.28,3.18-4.62,4.86-7.12-1.1-.16-2.23-.48-3.29-.96-2.1-.94-3.72-2.71-4.33-4.74-.8-2.63.14-5.68,2.28-7.41,2.07-1.67,5.78-2.38,8.87-.53,2.38,1.43,3.79,4.31,3.45,7-.11.82-.87,1.4-1.68,1.3-.82-.11-1.4-.86-1.3-1.68.2-1.53-.65-3.23-2.02-4.05-1.82-1.09-4.19-.71-5.44.29-1.2.96-1.74,2.73-1.29,4.2.37,1.21,1.37,2.29,2.69,2.88,1.54.69,3.3.96,4.6.73.59-.11,1.19.15,1.52.65s.33,1.16,0,1.66c-2.28,3.42-4.39,6.5-6.44,9.48-3.11,4.53-6.06,8.8-8.96,13.42-.29.45-.77.7-1.27.7h0Z"/><path class="cls-1" d="M261.98,261.44c-.28,0-.56-.08-.81-.24-.7-.45-.9-1.37-.46-2.07,2.58-4.04,6.3-9.71,9.89-15.2,3.6-5.51,7.33-11.2,9.92-15.24.45-.7,1.37-.9,2.07-.46.7.45.9,1.37.46,2.07-2.59,4.05-6.32,9.76-9.93,15.27-3.59,5.48-7.29,11.15-9.87,15.17-.29.45-.77.69-1.26.69h-.01Z"/><path class="cls-1" d="M17.48,292.2c-1.53,0-3.02-.18-4.34-.39-3.42-.53-7.17-3.23-7.4-7.18-.03-.51.02-1,.14-1.46,0-.11,0-.21,0-.32.59-6.01,4.3-9.79,9.93-10.1,19.34-1.06,37.48-4.73,53.91-10.91,3.66-1.38,8.17,1.04,10.83,3.87,1.51,1.61,2.31,4.01,2.09,6.26-.19,1.9-1.07,3.5-2.49,4.51-1.72,1.23-3.79,1.37-5.62,1.49-17.19,1.17-32.48,3.84-51.35,13.07-1.78.87-3.76,1.16-5.68,1.16,0,0-.02,0-.02,0ZM13.96,279.94c-.9,0-1.74.21-2.32.66-1.29.99-2.99,2.47-2.91,3.86.13,2.29,2.58,4.03,4.87,4.39,2.55.4,5.79.7,8.24-.5,19.3-9.45,34.92-12.18,52.42-13.37,1.54-.11,3.09-.21,4.13-.95.9-.64,1.17-1.64,1.25-2.36.14-1.39-.37-2.93-1.29-3.91-2.03-2.17-5.43-3.92-7.58-3.11-16.71,6.28-35.15,10.02-54.8,11.1-1.47.08-3.1.48-4.44,1.58,2.49-.83,5.75-.29,7.84,1.48,2.11,1.78,2.54,4.39,1.16,6.98-1.11,2.08-3.38,2.83-5.5,1.81-2-.96-2.96-2.96-2.25-4.65.32-.76,1.2-1.12,1.97-.79.76.32,1.12,1.2.8,1.96,0,.19.42.72,1.08.89.56.15.95-.05,1.26-.63.72-1.34.57-2.41-.45-3.28-.9-.76-2.23-1.16-3.46-1.16h-.02,0Z"/><path class="cls-1" d="M91.86,306.73c-.6,0-1.17-.37-1.4-.97-3.77-9.92-9.16-19.05-16.02-27.15-.54-.63-.46-1.58.17-2.11s1.58-.46,2.11.17c7.08,8.36,12.65,17.78,16.54,28.02.29.77-.09,1.64-.87,1.94-.18.07-.36.1-.53.1h0Z"/><path class="cls-1" d="M38.11,354.26c-3.64,0-6.65-.37-8.75-1.18-7.98-3.1-15.54-7.84-22.47-14.11-2.24-2.02-4.43-4.3-5.38-7.3-1.19-3.79-.08-7.73,1.05-11.13,3.4-10.18,7.9-20.02,13.37-29.25.42-.71,1.35-.95,2.05-.53.71.42.95,1.34.53,2.05-5.36,9.05-9.77,18.7-13.1,28.67-.99,2.95-1.96,6.35-1.04,9.28.73,2.32,2.61,4.24,4.53,5.97,6.67,6.02,13.92,10.57,21.55,13.54,10.15,3.94,45.83-4.02,66.09-13.08.76-.34,1.64,0,1.98.76s0,1.64-.76,1.98c-16.98,7.59-44.09,14.32-59.65,14.32h0Z"/><path class="cls-1" d="M30.92,346.17c-.29,0-.58-.08-.84-.26-.69-.46-.87-1.4-.4-2.08,2.76-4.09,1.53-9.91.17-15.05-1.54-5.78-3.46-12.4-5.31-18.79-1.86-6.43-3.79-13.07-5.34-18.9-.21-.8.26-1.62,1.06-1.83.8-.22,1.62.26,1.83,1.06,1.54,5.8,3.46,12.43,5.32,18.84s3.78,13.04,5.32,18.85c1.54,5.78,2.89,12.37-.58,17.5-.29.43-.76.66-1.24.66h.01Z"/><path class="cls-1" d="M45.88,332.04c-.71,0-1.34-.51-1.47-1.22-1.74-9.13-4.72-17.99-8.84-26.33-.2-.4-.21-.88-.02-1.29s.55-.71.99-.83c5.95-1.56,12.98-3.39,20-5.22,6.95-1.81,13.89-3.62,19.78-5.16.72-.19,1.45.17,1.75.84l7.01,15.78c.34.76,0,1.64-.76,1.98s-1.64,0-1.98-.76l-6.5-14.61c-5.61,1.47-12.08,3.15-18.54,4.84-6.34,1.65-12.68,3.3-18.23,4.76,3.63,7.68,6.33,15.77,8.03,24.09,6.38-.74,16.16-3.31,22.62-5.52.78-.27,1.64.15,1.9.94.27.78-.15,1.64-.94,1.9-5.88,2.01-17.31,5.21-24.67,5.8h-.13Z"/><path class="cls-1" d="M13.15,336.13c-.3,0-.59-.13-.79-.39-1.79-2.3-2.72-5.3-2.54-8.21.03-.55.51-.96,1.06-.94.55.03.97.51.94,1.06-.15,2.43.63,4.94,2.12,6.86.34.44.26,1.06-.18,1.4-.18.14-.4.21-.61.21h0Z"/><path class="cls-1" d="M16.93,333.81c-.23,0-.46-.08-.65-.24-1.58-1.35-2.73-3.2-3.25-5.2-.14-.54.18-1.08.72-1.22.53-.14,1.08.18,1.22.72.42,1.61,1.35,3.1,2.61,4.19.42.36.47.99.11,1.41-.2.23-.48.35-.76.35h0Z"/><path class="cls-1" d="M161.91,271.67c-.1,0-.19-.01-.29-.04-5.77-1.76-11.28-4.72-15.92-8.57-.42-.35-.48-.98-.13-1.41.35-.42.98-.48,1.41-.13,4.44,3.68,9.7,6.52,15.22,8.2.53.16.83.72.67,1.25-.13.43-.53.71-.96.71h0Z"/><path class="cls-1" d="M160.61,278.6c-.17,0-.33-.04-.49-.13-3.53-1.98-6.68-4.53-9.35-7.57-.36-.41-.32-1.05.09-1.41.41-.36,1.04-.32,1.41.09,2.53,2.87,5.5,5.28,8.83,7.15.48.27.65.88.38,1.36-.18.33-.52.51-.87.51h0Z"/><path class="cls-1" d="M259.54,158.19c-.45,0-.85-.3-.97-.75-1.46-5.78-5.15-11-10.1-14.32-.46-.31-.58-.93-.27-1.39s.93-.58,1.39-.27c5.36,3.59,9.34,9.24,10.93,15.49.13.54-.19,1.08-.72,1.21-.08.02-.17.03-.25.03h-.01Z"/><path class="cls-1" d="M266.65,156.05c-.42,0-.81-.26-.95-.68-1.24-3.69-3.43-7.02-6.32-9.63-.41-.37-.44-1-.07-1.41s1-.44,1.41-.07c3.15,2.84,5.52,6.46,6.88,10.48.18.52-.1,1.09-.63,1.27-.11.04-.21.05-.32.05h0Z"/><path class="cls-1" d="M181.7,368.35c-.67,0-1.35-.09-2.05-.31-4.2-1.31-5.65-6.12-6.35-8.44l-4.29-14.2c-.32-1.06.28-2.17,1.33-2.49,1.06-.32,2.17.28,2.49,1.33l4.29,14.2c.8,2.65,1.81,5.18,3.71,5.78,1.62.5,3.67-.46,6.28-2.94,7.45-7.1,12.89-14.75,17.14-24.08.46-1,1.64-1.45,2.65-.99,1,.46,1.45,1.64.99,2.65-4.46,9.81-10.19,17.86-18.02,25.32-1.17,1.12-4.38,4.18-8.18,4.18h.01Z"/><path class="cls-1" d="M252.57,352.73c-1.79,0-3.59-.18-5.35-.54-1.08-.22-1.78-1.28-1.56-2.36s1.27-1.79,2.36-1.56c3.61.74,7.39.59,10.93-.46.87-.25,2.92-.98,3.18-2.22.15-.73-.33-1.75-1.31-2.8-.31-.33-.64-.65-.97-.97-.93-.91-1.99-1.93-2.71-3.29-.52-.98-.15-2.19.83-2.7.98-.52,2.19-.15,2.7.83.43.8,1.17,1.53,1.97,2.3.38.36.75.73,1.1,1.11,1.95,2.08,2.74,4.28,2.3,6.36-.36,1.69-1.68,3.98-5.96,5.24-2.44.72-4.98,1.08-7.51,1.08v-.02h0Z"/><path class="cls-1" d="M172.35,343.6s6.86-4.93,10.93-9.64,8.01-9.61,8.01-9.61l8.05,2.09,5.88,11.6s-5.77,10.49-9.98,16.34c-4.21,5.85-11.17,11.33-13.52,11.36s-5.56-3.57-6.51-6.7-2.86-15.43-2.86-15.43h0Z"/><path class="cls-1" d="M246.19,336.1l12.4,2.5s4.78,4.31,4.99,6.28-3.46,4.75-6.52,4.75-9.44-.4-9.44-.4l-1.43-13.12h0Z"/><path class="cls-1" d="M433.45,337.7c-26.2,0-47.52-18.62-47.52-41.51s21.32-41.51,47.52-41.51,47.52,18.62,47.52,41.51c0,1.85-.14,3.72-.42,5.55-.17,1.09-1.19,1.84-2.28,1.68-1.09-.17-1.84-1.19-1.68-2.28.25-1.63.38-3.29.38-4.94,0-20.68-19.52-37.51-43.52-37.51s-43.52,16.83-43.52,37.51,19.52,37.51,43.52,37.51c6.44,0,12.65-1.19,18.44-3.53,1.03-.41,2.19.08,2.6,1.11.41,1.02-.08,2.19-1.11,2.6-6.27,2.53-12.98,3.82-19.94,3.82h0Z"/><path class="cls-1" d="M487.66,358.35c-15.89,0-28.82-11.77-28.82-26.24s12.93-26.24,28.82-26.24,28.82,11.77,28.82,26.24-12.93,26.24-28.82,26.24h0ZM487.66,309.88c-13.69,0-24.82,9.98-24.82,22.24s11.14,22.24,24.82,22.24,24.82-9.98,24.82-22.24-11.14-22.24-24.82-22.24Z"/><path class="cls-1" d="M415.88,292.33c-.5,0-.99-.25-1.27-.7-.44-.7-.23-1.63.47-2.07,3.48-2.19,5.97-5.36,6.66-8.46.72-3.22-.36-6.35-2.81-8.18-2.48-1.84-5.75-1.94-8.75-.27-3.29,1.84-5.33,5.09-5.45,8.68-.09,2.74.97,5.17,2.77,6.34.69.45.89,1.38.44,2.08s-1.38.89-2.08.44c-2.68-1.74-4.26-5.17-4.14-8.95.15-4.65,2.76-8.84,6.99-11.2,4.06-2.27,8.55-2.09,12,.48,3.41,2.54,4.92,6.84,3.94,11.23-.86,3.87-3.85,7.74-7.99,10.35-.25.16-.53.23-.8.23h.02Z"/><path class="cls-1" d="M442.65,300.76c-.52,0-1.03-.27-1.3-.75-.41-.72-.16-1.64.56-2.05,4.26-2.44,6.69-6.72,6.19-10.9-.54-4.56-3.98-8.57-8.18-9.54-4.17-.96-8.9,1.24-11.01,5.12-2.17,3.98-1.52,9.42,1.52,12.64.57.6.54,1.55-.07,2.12-.6.57-1.55.54-2.12-.07-3.88-4.13-4.73-11.07-1.97-16.13,2.78-5.1,8.8-7.88,14.32-6.61,5.39,1.24,9.8,6.33,10.49,12.1.64,5.38-2.37,10.82-7.68,13.86-.24.13-.49.2-.75.2h0Z"/><path class="cls-1" d="M435.94,301.26c-1.43,0-2.86-.37-4.1-1.07-.72-.41-.98-1.32-.57-2.04s1.32-.98,2.04-.57c.97.54,2.11.77,3.21.65.82-.1,1.57.5,1.66,1.32s-.5,1.57-1.32,1.66c-.31.04-.61.05-.92.05h0Z"/><ellipse class="cls-1" cx="416.34" cy="276.69" rx="5.64" ry="4.91" transform="translate(61.34 628.64) rotate(-78.36)"/><ellipse class="cls-1" cx="436.87" cy="282.97" rx="6.15" ry="5.34" transform="translate(71.58 653.76) rotate(-78.36)"/><circle class="cls-1" cx="484.1" cy="318.48" r="3.2"/><circle class="cls-1" cx="495.57" cy="322.44" r="3.2"/><path class="cls-1" d="M482.29,327.26c-1.01,0-3.03-.86-4.16-2.35-1.22-1.6-1.63-3.77-1.09-5.82.78-2.98,3.54-5.24,6.57-5.36,3.07-.15,6.08,2.06,6.85,5,.79,3.04-.91,6.44-3.79,7.57-.51.2-1.09-.05-1.3-.56s.05-1.09.56-1.3c1.94-.77,3.12-3.15,2.59-5.21-.52-2.02-2.68-3.61-4.83-3.5-2.13.09-4.16,1.76-4.72,3.87-.38,1.43-.09,3.01.75,4.1.8,1.05,2.22,1.54,2.56,1.56.54-.07,1.02.33,1.08.88.07.55-.35,1.05-.9,1.11h-.17,0Z"/><path class="cls-1" d="M497.64,330.35c-.39,0-.77-.23-.93-.62-.21-.51.04-1.09.55-1.3,1.78-.73,2.98-2.72,2.79-4.63s-1.76-3.63-3.64-3.99c-1.89-.36-3.98.65-4.87,2.36s-.51,4,.87,5.33c.4.38.41,1.02.03,1.41-.38.4-1.02.41-1.41.03-2.03-1.96-2.56-5.19-1.26-7.7,1.3-2.5,4.25-3.93,7.02-3.4s4.98,2.96,5.26,5.76-1.42,5.61-4.03,6.68c-.12.05-.25.07-.38.07h0Z"/><path class="cls-1" d="M498.68,310.48c-.16,0-.33-.03-.49-.08-.78-.27-1.2-1.12-.93-1.91,1.08-3.13,2.5-6.12,4.22-8.9.44-.71,1.36-.92,2.06-.49.71.44.92,1.36.49,2.06-1.6,2.59-2.93,5.39-3.94,8.31-.21.62-.8,1.01-1.42,1.01h.01Z"/><path class="cls-1" d="M512.12,320.31c-.53,0-1.05-.28-1.32-.78-.4-.73-.13-1.64.6-2.04l8.2-4.46c.73-.39,1.64-.13,2.04.6.4.73.13,1.64-.6,2.04l-8.2,4.46c-.23.12-.47.18-.72.18h0Z"/><path class="cls-1" d="M525.57,337.07h-.01l-9.43-.1c-.83,0-1.49-.69-1.48-1.52,0-.82.68-1.48,1.5-1.48h.02l9.43.1c.83,0,1.49.69,1.49,1.51s-.68,1.49-1.5,1.49h-.02Z"/><path class="cls-1" d="M514.13,355.75c-.37,0-.73-.13-1.02-.4l-5.35-4.99c-.61-.56-.64-1.51-.07-2.12s1.52-.64,2.12-.07l5.35,4.99c.61.56.64,1.51.07,2.12-.29.32-.7.48-1.1.48h0Z"/><path class="cls-1" d="M463.12,267.42c-.25,0-.5-.06-.74-.19-.72-.41-.98-1.32-.57-2.04l7.24-12.83-12.37,9.9c-.65.52-1.59.41-2.11-.23s-.41-1.59.23-2.11l18.43-14.75c.56-.45,1.36-.44,1.91.03.55.47.69,1.25.33,1.88l-11.06,19.58c-.28.49-.78.76-1.31.76h.02Z"/><path class="cls-1" d="M479.07,290.76c-.57,0-1.12-.33-1.37-.88-.34-.75,0-1.64.75-1.98l14.43-6.53-16.72-.22c-.83-.01-1.49-.69-1.48-1.52.01-.82.68-1.48,1.5-1.48h.02l23.45.31c.7,0,1.3.51,1.45,1.19.14.69-.21,1.38-.85,1.67l-20.57,9.31c-.2.09-.41.13-.62.13h.01Z"/><path class="cls-1" d="M436.75,257.45c-.78,0-1.43-.6-1.49-1.38l-1.3-16.83-4.24,16.56c-.2.8-1.03,1.29-1.82,1.08-.8-.21-1.29-1.02-1.08-1.82l6.48-25.36c.18-.71.85-1.18,1.58-1.12.73.06,1.31.65,1.37,1.38l2,25.88c.06.83-.55,1.55-1.38,1.61h-.12Z"/><path class="cls-1" d="M402.26,267.42c-.7,0-1.33-.5-1.47-1.21-.54-2.75-1.14-5.87-1.74-8.98-.6-3.11-1.2-6.21-1.74-8.96-.13-.65.19-1.31.77-1.62.59-.31,1.31-.19,1.77.28,4,4.1,7.36,8.76,9.97,13.86.38.74.09,1.64-.65,2.02-.74.38-1.64.09-2.02-.65-1.65-3.21-3.6-6.24-5.84-9.05.23,1.17.46,2.36.69,3.56.6,3.11,1.2,6.21,1.74,8.96.16.81-.37,1.6-1.18,1.76-.1.02-.2.03-.29.03h-.01Z"/><path class="cls-1" d="M387.85,286c-.28,0-.57-.08-.82-.25-1.14-.75-2.29-1.52-3.44-2.3-3.82-2.58-7.77-5.25-11.3-6.66-.68-.27-1.07-1-.91-1.72s.83-1.22,1.56-1.17c2.88.18,5.73.4,8.48.61,3.6.28,7.32.57,11.18.76.83.04,1.46.75,1.42,1.57s-.75,1.46-1.57,1.42c-3.89-.2-7.64-.49-11.26-.77-.45-.04-.9-.07-1.35-.1,1.81,1.13,3.63,2.36,5.43,3.57,1.14.77,2.27,1.54,3.4,2.28.69.45.89,1.38.43,2.08-.29.44-.77.68-1.26.68h.01Z"/><path class="cls-1" d="M371.43,314.92c-.6,0-1.15-.36-1.38-.92-.27-.64-.06-1.38.5-1.79,5.02-3.66,10.4-6.89,15.99-9.61.75-.36,1.64-.05,2.01.69.36.75.05,1.64-.69,2.01-3.4,1.66-6.72,3.51-9.93,5.54l11.85-1.96c.82-.14,1.59.42,1.72,1.23s-.42,1.59-1.23,1.72l-18.59,3.07c-.08.01-.17.02-.25.02h0Z"/><path class="cls-1" d="M391.44,346.67c-.35,0-.69-.12-.97-.36-.55-.47-.69-1.26-.33-1.89l11.1-19.32c.41-.72,1.33-.96,2.05-.55s.97,1.33.55,2.05l-7.12,12.4,11.92-9.6c.64-.52,1.59-.42,2.11.23.52.65.42,1.59-.23,2.11l-18.14,14.61c-.28.22-.61.33-.94.33h0Z"/><path class="cls-1" d="M436.19,356.14c-.64,0-1.21-.4-1.42-1.01-2.16-6.27-3.16-12.82-2.98-19.45.02-.81.69-1.46,1.5-1.46h.04c.83.02,1.48.71,1.46,1.54-.11,4.14.27,8.25,1.12,12.27l2.37-12.59c.15-.81.93-1.36,1.75-1.2.81.15,1.35.94,1.2,1.75l-3.57,18.91c-.13.67-.69,1.17-1.37,1.22h-.11v.02h.01Z"/><path class="cls-1" d="M386.81,215.56h-.08c-1.32-.05-2.65-.13-3.96-.23-35.82-2.74-63.64-22.32-62.01-43.64s32.1-36.44,67.93-33.69c35.83,2.74,63.64,22.32,62.01,43.64-1.16,15.21-17.2,27.9-40.86,32.34-1.09.21-2.13-.51-2.33-1.6s.51-2.13,1.6-2.33c21.82-4.09,36.59-15.36,37.61-28.71,1.46-19.12-24.7-36.77-58.33-39.35-33.64-2.57-62.17,10.89-63.64,30.01-1.46,19.12,24.7,36.77,58.33,39.35,1.27.1,2.55.17,3.82.23,1.1.04,1.96.98,1.92,2.08-.04,1.08-.93,1.92-2,1.92v-.02h-.01Z"/><path class="cls-1" d="M510.98,234.33c-2.03,0-4.08-.08-6.16-.24-7.83-.6-14.09-1.92-20.31-4.28-1.03-.39-1.55-1.55-1.16-2.58s1.55-1.55,2.58-1.16c5.93,2.25,11.67,3.45,19.2,4.03,25.99,2,48.11-9.19,49.32-24.93,1.2-15.73-18.96-30.15-44.95-32.14-12.76-.97-24.95,1.18-34.35,6.06-9.08,4.72-14.4,11.42-14.97,18.86-.59,7.68,3.9,15.29,12.63,21.43.9.64,1.12,1.88.49,2.79-.64.9-1.88,1.12-2.79.49-9.93-6.99-15.01-15.87-14.31-25,.68-8.87,6.76-16.72,17.11-22.11,10.05-5.23,23.01-7.54,36.5-6.5,28.19,2.16,50,18.5,48.63,36.44-1.27,16.61-22,28.85-47.45,28.85h-.01Z"/><path class="cls-1" d="M403.31,231.94c-.57,0-1.13-.25-1.52-.7-2.89-3.38-6.36-6.65-9.72-9.81-2.23-2.1-4.54-4.26-6.69-6.48-.77-.79-.75-2.06.04-2.83s2.06-.75,2.83.04c2.09,2.15,4.36,4.29,6.56,6.35,2.01,1.9,4.07,3.83,6.04,5.82l-1.03-12.62c-.09-1.1.73-2.07,1.83-2.16,1.11-.1,2.07.73,2.16,1.83l1.5,18.38c.07.87-.42,1.68-1.23,2.01-.25.1-.51.15-.77.15v.02h0Z"/><path class="cls-1" d="M470.34,237.97c-.49,0-.97-.18-1.35-.52-.64-.59-.83-1.53-.47-2.32l7.05-15.21c.46-1,1.65-1.44,2.66-.97,1,.46,1.44,1.65.97,2.66l-4.5,9.71c.73-.38,1.45-.75,2.17-1.12,2.32-1.19,4.71-2.42,7.36-3.96.96-.56,2.18-.23,2.73.73s.23,2.18-.73,2.73c-2.73,1.59-5.17,2.84-7.54,4.05-2.32,1.19-4.71,2.42-7.36,3.96-.31.18-.66.27-1,.27h.01,0Z"/><path class="cls-1" d="M574.66,194.14c-.24,0-.49-.06-.71-.18-1.6-.87-3.15-2.14-4.64-3.37-1.4-1.16-2.86-2.35-4.33-3.2-.71-.41-1.57-.43-2.57-.45-1.29-.03-2.75-.07-4.21-.94-16.87-10.02-48.91-30.42-74.7-54.94-1.82.28-3.57.41-5.24.41-15.64,0-24.32-11.49-28.28-16.72l-.3-.39c-.46.09-1.37.57-1.94.87-.93.49-1.81.95-2.68,1.11-2.43.44-4.38-1.42-5.96-2.92-.63-.6-1.46-1.4-2-1.65-1.49.52-2.8,1.64-4.18,2.82l-.67.57c-1.84,1.55-4.33,3.31-7.26,3.17-3.18-.15-5.59-2.48-7.53-4.34l-.36-.35c-1.46-1.42-2.97-2.88-4.58-2.98-15.29,11.53-30.47,22.49-42.02,30.76-.67.48-1.61.33-2.09-.34s-.33-1.61.35-2.09c11.63-8.33,26.96-19.39,42.35-31.01.23-.17.5-.28.78-.3,3.11-.24,5.44,2,7.31,3.82l.35.34c1.74,1.67,3.54,3.41,5.59,3.51,1.87.09,3.76-1.27,5.18-2.47l.65-.55c1.68-1.44,3.42-2.93,5.72-3.56.2-.05.41-.06.61-.04,1.45.21,2.63,1.34,3.87,2.53,1.13,1.08,2.43,2.29,3.35,2.14.41-.08,1.16-.47,1.81-.81,1.63-.86,4.11-2.16,5.59-.22l.44.58c4.1,5.43,13.71,18.14,31.36,15.04.47-.08.95.06,1.29.39,25.67,24.54,57.82,45.02,74.7,55.04.79.47,1.7.49,2.76.52,1.23.03,2.62.07,3.99.85,1.7.97,3.25,2.25,4.75,3.48,1.45,1.19,2.82,2.32,4.17,3.05.73.4,1,1.31.6,2.03-.27.5-.79.78-1.32.78h0Z"/><path class="cls-1" d="M273.17,210.5c-.55,0-1.08-.3-1.34-.83-.37-.74-.07-1.64.67-2.01,5.92-2.96,11.35-7.06,16.59-11.02,9.67-7.3,19.94-14.86,32.3-23.79.67-.49,1.61-.33,2.09.34.49.67.33,1.61-.34,2.09-12.35,8.92-22.6,16.46-32.25,23.75-5.35,4.04-10.89,8.22-17.06,11.3-.21.11-.44.16-.67.16h.01Z"/><path class="cls-1" d="M451.98,69.64c-.32,0-.64-.1-.92-.31-.66-.51-.78-1.45-.27-2.1,4.38-5.66,12.61-4.66,15.94-3.97,1.48.31,2.96.7,4.39,1.08,3.63.96,7.06,1.88,10.51,1.51,6.24-.66,12.23-3.95,16.88-9.26,3.01-3.44,4.86-7.43,6.63-11.67-2.51,1.83-5.4,3.16-8.48,3.85-5.58,1.26-11.07.34-15.46-2.58-3.16-2.1-5.84-5.09-8.43-7.99-3.23-3.6-6.28-7.01-10.05-8.66-6.31-2.76-14,.75-17.52,7.98-.36.75-1.26,1.05-2,.69-.75-.36-1.05-1.26-.69-2,4.23-8.68,13.64-12.81,21.42-9.42,4.38,1.91,7.79,5.72,11.09,9.41,2.46,2.75,5.01,5.6,7.86,7.49,3.7,2.46,8.37,3.22,13.13,2.15,5.28-1.19,9.88-4.5,12.63-9.08.41-.69,1.29-.93,1.99-.55.71.38.99,1.24.65,1.96-.91,1.94-1.73,3.94-2.53,5.88-2.05,5-4.17,10.17-7.98,14.52-5.14,5.88-11.83,9.53-18.82,10.27-4.01.43-7.87-.6-11.6-1.59-1.39-.37-2.83-.75-4.23-1.04-2.17-.45-9.52-1.58-12.96,2.86-.3.38-.74.58-1.19.58h0Z"/><path class="cls-1" d="M443.85,114.54c-1.38,0-2.5-1.12-2.5-2.5V31.41c0-1.38,1.12-2.5,2.5-2.5s2.5,1.12,2.5,2.5v80.63c0,1.38-1.12,2.5-2.5,2.5Z"/><path class="cls-1" d="M449.17,16.31c-.58,0-1.13-.33-1.37-.9l-4.29-9.73c-.33-.76.01-1.64.77-1.98.76-.33,1.64,0,1.98.77l4.29,9.73c.33.76-.01,1.64-.77,1.98-.2.09-.4.13-.6.13h-.01Z"/><path class="cls-1" d="M458.15,17.63c-.83,0-1.5-.67-1.5-1.5V1.14c0-.83.67-1.5,1.5-1.5s1.5.67,1.5,1.5v14.99c0,.83-.67,1.5-1.5,1.5Z"/><path class="cls-1" d="M466.89,16.78c-.22,0-.44-.05-.65-.15-.75-.36-1.06-1.26-.7-2l4.34-9.03c.36-.75,1.25-1.06,2-.7s1.06,1.25.7,2l-4.34,9.03c-.26.54-.79.85-1.35.85Z"/><path class="cls-1" d="M498.93,156.8c-.27,0-.55-.11-.74-.33-2.19-2.43-4.95-4.36-8-5.56-.51-.2-.77-.78-.56-1.3.2-.51.78-.76,1.3-.56,3.33,1.32,6.36,3.42,8.75,6.08.37.41.33,1.04-.08,1.41-.19.17-.43.26-.67.26Z"/><path class="cls-1" d="M497.63,163.92c-.35,0-.68-.18-.87-.5-1.46-2.55-3.34-4.8-5.6-6.68-.42-.35-.48-.98-.13-1.41.35-.42.98-.48,1.41-.13,2.44,2.04,4.48,4.47,6.05,7.22.27.48.11,1.09-.37,1.37-.16.09-.33.13-.5.13h.01Z"/><path class="cls-1" d="M347.82,180.67c-.53,0-1.02-.28-1.29-.73-.27-.46-.28-1.03-.02-1.5l3.78-6.78c.23-.42.64-.7,1.12-.76.47-.06.94.1,1.27.44l6.41,6.62c.42.43.54,1.07.31,1.62-.23.55-.77.92-1.36.92l-10.19.15h-.02v.02h-.01ZM351.94,174.89l-1.53,2.74,4.13-.06-2.6-2.68h0Z"/><path class="cls-1" d="M366.45,181.89c-1.19,0-2.38-.53-3.11-1.49-1.13-1.49-.96-3.76.38-5.07,1.34-1.3,3.62-1.41,5.08-.24,1.13.91,1.64,2.43,1.27,3.79-.18.66-.56,1.23-1.06,1.66-.11.35-.34.66-.68.86-.57.33-1.22.49-1.87.49h-.01ZM366.41,177.28c-.22,0-.45.07-.59.21-.27.26-.31.81-.08,1.11.03.04.06.07.1.1.28-.23.63-.36,1.03-.33.12.03.28-.13.32-.28.06-.2-.06-.5-.25-.66-.13-.11-.32-.16-.51-.16h-.02Z"/><path class="cls-1" d="M396.57,182.94c-.33,0-.66-.11-.94-.33l-4.43-3.58c-.82-.66-1.66-1.26-2.27-1.12-.42.09-.87.57-1.35,1.07-.3.31-.6.62-.92.9-2.19,1.87-5.54,2.1-7.97.6-1.29.92-2.82,1.49-4.44,1.57-.81.04-1.53-.6-1.57-1.43-.04-.83.6-1.53,1.43-1.57.86-.04,1.69-.32,2.43-.77-1.09-1.81-1.33-4.12-.51-6.11.67-1.61,2.3-2.95,4.09-2.43,1.43.42,2.31,1.86,2.3,3.75,0,1.72-.57,3.36-1.52,4.74,1.25.45,2.8.23,3.81-.63.24-.21.47-.45.7-.69.7-.73,1.57-1.64,2.88-1.93,2.1-.45,3.85.96,4.79,1.72l4.43,3.57c.65.52.75,1.46.23,2.11-.3.37-.73.56-1.17.56h0ZM379.28,172.67c-.14.1-.34.33-.47.64-.34.82-.33,1.78-.04,2.64.42-.76.66-1.61.66-2.47,0-.38-.08-.66-.15-.81Z"/><path class="cls-1" d="M404.96,184.58c-.36,0-.73-.13-1.02-.4-.61-.56-.65-1.51-.09-2.12l6.88-7.46c.56-.61,1.51-.65,2.12-.09s.65,1.51.09,2.12l-6.88,7.46c-.29.32-.7.48-1.1.48h0Z"/><path class="cls-1" d="M412,184.42c-.4,0-.79-.16-1.09-.47l-7.41-7.8c-.57-.6-.55-1.55.05-2.12.6-.57,1.55-.55,2.12.05l7.41,7.79c.57.6.55,1.55-.05,2.12-.29.28-.66.41-1.03.41v.02Z"/><path class="cls-1" d="M419.5,183.44c-.56,0-1.12-.1-1.65-.29-.78-.29-1.17-1.16-.88-1.93.29-.78,1.16-1.17,1.93-.88.51.19,1.14.12,1.59-.19.13-.09.25-.19.38-.29.26-.21.56-.46.94-.66.94-.51,1.98-.55,2.73-.57l1.7-.06h.05c.8,0,1.47.64,1.5,1.45.03.83-.62,1.52-1.45,1.55l-1.71.06c-.51.02-1.08.04-1.4.21-.13.07-.29.21-.47.35-.2.16-.39.32-.6.46-.78.53-1.72.8-2.67.8h.01Z"/><path class="cls-1" d="M482.63,208c-.35,0-.7-.12-.98-.36-.53-.46-.68-1.22-.35-1.84l1.74-3.26c-1.01-.76-2.01-1.54-2.98-2.34-.48-.39-.67-1.04-.47-1.63.2-.59.73-1,1.35-1.03l4.89-.23,1.52-2.85c.3-.56.93-.87,1.55-.78.63.1,1.13.58,1.25,1.21l.41,2.2,2.73-.13c.61-.03,1.26.37,1.48.99.22.62.02,1.31-.51,1.71l-2.83,2.12.34,1.82c.02.11.05.22.09.33.15.54.41,1.46-.18,2.25-.21.28-.7.76-1.62.78h-.04c-.88,0-1.69-.58-2.65-1.34-.16-.13-.3-.24-.4-.31l-.12-.08-3.31,2.48c-.27.2-.58.3-.9.3h-.01,0ZM487.68,200.22l-.55,1.03,1.02-.76-.05-.29-.41.02h-.01Z"/><path class="cls-1" d="M501.01,207.36c-.33,0-.66-.04-1-.13-1.95-.52-3.06-2.08-2.89-4.08.19-2.26,2.12-4.83,4.68-5.06h0c1.3-.11,2.52.28,3.35,1.09,1.35,1.32,1.53,3.3.46,5.18-.91,1.6-2.7,3-4.61,3h.01ZM502.06,201.08c-.88.08-1.87,1.25-1.96,2.33-.05.54.13.78.67.93.63.17,1.7-.52,2.23-1.45.22-.38.52-1.1.05-1.55-.2-.19-.59-.29-.99-.25h0Z"/><path class="cls-1" d="M519.53,214.56c-.3,0-.6-.04-.89-.12-1.85-.49-2.68-2.36-3.08-3.26l-1.3-2.93c-2.28.41-4.72-.03-6.61-1.38-.67-.48-.83-1.42-.35-2.09.48-.67,1.42-.83,2.09-.35,1.03.74,2.34,1.05,3.63.96-.44-1.16-.76-2.47-.6-3.86.16-1.35.89-2.64,1.96-3.45.88-.67,1.93-.95,2.96-.8,1.89.29,3.37,2.07,3.45,4.12.06,1.55-.62,3.13-1.9,4.45-.53.54-1.13,1-1.79,1.38l1.21,2.72c.19.44.65,1.46,1.11,1.58.23.06.61-.09.94-.35.36-.3.7-.73,1.05-1.18.12-.15.23-.3.35-.45,3.07-3.79,7.96-6.08,12.87-5.97.83.02,1.48.71,1.47,1.53-.02.83-.68,1.47-1.53,1.47-3.95-.08-7.97,1.78-10.47,4.86l-.32.4c-.42.54-.89,1.15-1.51,1.66-.84.69-1.79,1.05-2.72,1.05h-.02ZM516.78,200.25c-.19,0-.38.08-.58.23-.41.31-.73.88-.79,1.41-.1.83.15,1.72.48,2.59.31-.2.59-.43.85-.7.69-.71,1.08-1.53,1.05-2.25-.02-.6-.46-1.2-.91-1.27h-.1Z"/></g></svg>