<?xml version="1.0" encoding="UTF-8"?><svg id="_レイヤー_2" xmlns="http://www.w3.org/2000/svg" viewBox="0 0 352.8 242.32"><defs><style>.cls-1{stroke-width:0px;}</style></defs><g id="_アウトライン済み"><path class="cls-1" d="M96.8,126.67c-.08,0-.16,0-.24-.01L2.25,115.21c-.95-.12-1.69-.89-1.75-1.84-.02-.29-2.06-29.67,2.34-55.39C8.19,26.74,35.17,17.01,43.31,14.77,58.03,10.72,160,.44,164.33,0c1.11-.1,2.08.69,2.19,1.79.11,1.1-.69,2.08-1.79,2.19-1.06.11-105.96,10.68-120.36,14.64-7.57,2.08-32.64,11.12-37.59,40.02-3.73,21.78-2.75,46.3-2.4,52.79l92.31,11.2,105.52-24.35c.83-4.46,3.49-20.22,3.49-37.47,0-24.08-16.25-45.99-31.54-54.39-.97-.53-1.32-1.75-.79-2.72.53-.97,1.75-1.32,2.72-.79,16.7,9.17,33.61,32.01,33.61,57.89,0,20.73-3.77,39.34-3.81,39.53-.16.77-.75,1.37-1.51,1.55l-107.13,24.72c-.15.03-.3.05-.45.05ZM203.93,99.94h.01-.01Z"/><path class="cls-1" d="M97.09,118.72s-.08,0-.12,0c-1.1-.06-1.95-1.01-1.88-2.11.9-15.79.72-47.31-5.7-65.33-2.48-6.96-16.85-41.01-56.52-28.14-1.05.34-2.18-.23-2.52-1.29-.34-1.05.23-2.18,1.29-2.52,16.13-5.23,30.26-3.83,41.98,4.18,11.65,7.96,17.25,19.97,19.54,26.43,6.63,18.62,6.84,50.81,5.93,66.9-.06,1.06-.94,1.89-1.99,1.89Z"/><path class="cls-1" d="M69.63,81.39c-.08,0-.16,0-.23-.01l-46.67-5.51c-1.01-.12-1.77-.97-1.77-1.99v-14.12c0-.57.24-1.11.67-1.49.43-.38.99-.57,1.56-.49l46.67,5.39c1.01.12,1.77.97,1.77,1.99v14.24c0,.57-.24,1.12-.67,1.5-.37.33-.84.5-1.33.5ZM24.96,72.1l42.67,5.04v-10.21l-42.67-4.93v10.1Z"/><path class="cls-1" d="M13.66,58.5s-.09,0-.14,0c-.55-.07-.93-.58-.86-1.12.99-7.31,4.47-14.51,9.81-20.28,5.17-5.59,11.77-9.37,19.08-10.95.54-.11,1.07.23,1.19.77.12.54-.23,1.07-.77,1.19-6.91,1.49-13.14,5.06-18.03,10.35-4.99,5.39-8.38,12.39-9.3,19.19-.07.5-.5.87-.99.87Z"/><path class="cls-1" d="M192.92,68.62c-.43,0-.83-.28-.96-.72-.15-.53.15-1.08.68-1.24l18.66-5.39c.53-.15,1.08.15,1.24.68.15.53-.15,1.08-.68,1.24l-18.66,5.39c-.09.03-.19.04-.28.04Z"/><path class="cls-1" d="M195.09,75.81c-.43,0-.82-.28-.96-.71-.16-.53.13-1.09.66-1.25,4.92-1.51,7.59-2.91,10.41-4.4,1.38-.73,2.82-1.48,4.52-2.24.5-.23,1.1,0,1.32.51.22.5,0,1.1-.51,1.32-1.64.73-3.04,1.46-4.4,2.18-2.78,1.46-5.65,2.97-10.75,4.54-.1.03-.2.04-.29.04Z"/><path class="cls-1" d="M104.84,190.5c-1.1,0-2-.9-2-2v-65.69c0-1.1.9-2,2-2s2,.9,2,2v65.69c0,1.1-.9,2-2,2Z"/><path class="cls-1" d="M126.05,188.5c-1.1,0-2-.9-2-2v-68.59c0-1.1.9-2,2-2s2,.9,2,2v68.59c0,1.1-.9,2-2,2Z"/><path class="cls-1" d="M139.4,205.11c-.4,0-.8-.12-1.15-.36-22.61-15.83-44.52-18.07-68.94-7.04-1.01.46-2.19,0-2.65-1-.45-1.01,0-2.19,1-2.65,25.83-11.67,48.99-9.32,72.88,7.41.9.63,1.12,1.88.49,2.79-.39.56-1.01.85-1.64.85Z"/><path class="cls-1" d="M172.48,194.1c-.28,0-.55-.06-.82-.18-16.66-7.52-37.82-8-56.6-1.29-1.04.37-2.19-.17-2.56-1.21-.37-1.04.17-2.18,1.21-2.56,19.74-7.05,42.01-6.52,59.59,1.41,1.01.46,1.45,1.64,1,2.65-.33.74-1.06,1.18-1.82,1.18Z"/><path class="cls-1" d="M98.67,237.62h0c-.83,0-1.5-.68-1.49-1.51.04-7-3.43-13.95-9.06-18.11-.54-.4-.75-1.1-.51-1.73.23-.63.85-1.03,1.52-.97,9.63.75,18.6,7.24,22.33,16.15.32.76-.04,1.64-.8,1.96-.76.32-1.64-.04-1.96-.8-2.65-6.33-8.3-11.29-14.83-13.35,4.02,4.63,6.36,10.73,6.32,16.87,0,.83-.68,1.49-1.5,1.49Z"/><path class="cls-1" d="M18.45,203.69c-.81,0-1.47-.64-1.5-1.45-.24-8-4.55-15.68-11.25-20.05-.61-.4-.84-1.17-.56-1.84.28-.67,1.01-1.04,1.71-.88,10.12,2.32,19.2,8.11,25.56,16.31.51.65.39,1.6-.27,2.1-.65.51-1.6.39-2.1-.27-4.4-5.67-10.41-10.21-17.07-13.03,4.22,4.84,6.78,11.11,6.98,17.56.02.83-.63,1.52-1.45,1.54-.02,0-.03,0-.05,0Z"/><path class="cls-1" d="M46.36,194.21c-.25,0-.51-.06-.74-.2-.5-.29-.8-.84-.75-1.42.43-5.81,2.37-11.45,5.54-16.3-8.38,3.48-15.71,9.31-20.96,16.75-.48.68-1.41.84-2.09.36-.68-.48-.84-1.41-.36-2.09,6.6-9.35,16.28-16.3,27.25-19.57.64-.19,1.34.07,1.69.63.36.57.3,1.3-.15,1.8-3.9,4.36-6.52,9.79-7.54,15.54,4.36-2.54,9.21-4.24,14.2-4.96.82-.12,1.58.45,1.7,1.27.12.82-.45,1.58-1.27,1.7-5.6.81-11.02,2.95-15.65,6.2-.26.18-.56.27-.86.27Z"/><path class="cls-1" d="M184.97,201.99s-.04,0-.05,0c-.83-.03-1.48-.72-1.45-1.55.41-11.4-3.82-22.72-11.59-31.06-.48-.52-.54-1.31-.13-1.89.41-.58,1.17-.79,1.82-.51,12.31,5.37,20.73,13.04,25.07,22.84,2.7-3.74,4.73-5.46,7.41-7.2.69-.45,1.62-.25,2.07.44.45.7.25,1.62-.44,2.08-2.89,1.88-4.85,3.66-8.14,8.68-.31.48-.87.73-1.43.67-.57-.07-1.04-.45-1.23-.99-3.03-8.54-9.24-15.5-18.5-20.77,5.54,8.12,8.44,17.95,8.09,27.83-.03.81-.69,1.45-1.5,1.45Z"/><path class="cls-1" d="M254.71,169.19c-16.28,0-40.49-2.72-40.49-10.2,0-.83.67-1.5,1.5-1.5s1.5.67,1.5,1.5c0,2.51,12.88,7.2,37.49,7.2,6.08,0,11.45-.29,16.08-.75.22-.39,1.62-2.74,4.07-5.44,4.13-4.54,8.56-7.76,8.75-7.9.36-.26.83-.35,1.26-.23,6.96,1.83,10.34,4.17,10.34,7.13,0,7.48-24.22,10.2-40.49,10.2ZM284.8,154.96c-1.3,1-4.64,3.67-7.72,7.06-.99,1.09-1.8,2.13-2.4,2.97,11.57-1.56,17.53-4.28,17.53-5.99,0-.7-1.57-2.4-7.41-4.04Z"/><path class="cls-1" d="M264.99,152.08s-.06,0-.09,0c-2.29-.13-4.68-.22-7.08-.25-.83-.01-1.49-.69-1.48-1.52.01-.82.68-1.48,1.5-1.48h.02c2.44.04,4.87.12,7.21.26.83.05,1.46.76,1.41,1.58-.05.8-.71,1.41-1.5,1.41Z"/><path class="cls-1" d="M228.13,154.13c-.7,0-1.32-.49-1.47-1.19-.17-.81.35-1.61,1.16-1.77,4.22-.88,9.12-1.53,14.56-1.93.83-.07,1.54.56,1.61,1.39.06.83-.56,1.55-1.39,1.61-5.23.38-10.13,1.03-14.17,1.87-.1.02-.21.03-.31.03Z"/><path class="cls-1" d="M254.23,242.32c-16.41,0-32.82-5.68-46.39-16.08-.66-.5-.78-1.45-.28-2.1.5-.66,1.45-.78,2.1-.28,13.45,10.3,29.78,15.79,46.01,15.44,16.23-.34,32.38-6.52,45.47-17.39.64-.53,1.58-.44,2.11.2.53.64.44,1.58-.2,2.11-13.61,11.3-30.42,17.72-47.32,18.08-.5.01-1.01.02-1.51.02Z"/><path class="cls-1" d="M205.77,219.52c-.07,0-.15,0-.22-.02-.82-.12-1.39-.88-1.27-1.7.69-4.73,1.33-9.33,1.95-13.85,2.09-15.11,4.06-29.38,7.58-44.96.18-.81.99-1.32,1.79-1.13.81.18,1.32.98,1.13,1.79-3.49,15.46-5.45,29.67-7.53,44.71-.63,4.53-1.26,9.14-1.96,13.88-.11.75-.75,1.28-1.48,1.28Z"/><path class="cls-1" d="M302.79,217.87c-.72,0-1.36-.53-1.48-1.26l-9.21-57.45c-.13-.82.43-1.59,1.24-1.72.81-.13,1.59.43,1.72,1.24l9.21,57.45c.13.82-.43,1.59-1.24,1.72-.08.01-.16.02-.24.02Z"/><path class="cls-1" d="M318.28,224.42c-.08,0-.17,0-.25,0-5.56-.08-11.28-2.42-15.69-6.42-.61-.56-.66-1.5-.1-2.12.56-.61,1.5-.66,2.12-.1,3.88,3.52,8.88,5.57,13.72,5.64,4.3.09,10.6-1.73,14.33-5.26,4.03-3.81,5.84-7.05,5.87-10.5.03-3.48-1.68-6.55-3.11-8.52-1.96-2.68-4.58-4.98-6.89-7.01-8.5-7.45-17.22-14.85-25.94-21.99-2.14-1.75-4.42-3.45-6.75-3.29-.82.03-1.54-.57-1.6-1.4s.57-1.54,1.4-1.6c3.42-.23,6.25,1.83,8.85,3.96,8.74,7.16,17.5,14.58,26.02,22.06,2.43,2.13,5.18,4.54,7.34,7.5,1.7,2.33,3.73,6.01,3.69,10.31-.04,5.55-3.66,9.67-6.81,12.65-4.44,4.2-11.44,6.08-16.19,6.08Z"/><path class="cls-1" d="M332.58,219.5c-.43,0-.86-.19-1.16-.54-.53-.64-.44-1.58.2-2.11,2.18-1.8,2.61-6.05,1.65-8.89-1.04-3.08-3.4-5.71-5.73-8.13-9.37-9.75-17.19-16.52-27.01-23.36-.68-.47-.85-1.41-.37-2.09.47-.68,1.41-.85,2.09-.37,9.99,6.96,17.95,13.84,27.46,23.75,2.56,2.67,5.17,5.58,6.41,9.25,1.3,3.86.7,9.46-2.58,12.17-.28.23-.62.34-.95.34Z"/><path class="cls-1" d="M318.65,218.59c-.31,0-.63,0-.94-.03-7.04-.38-13.8-4.66-17.62-11.16-.42-.71-.18-1.63.53-2.05.71-.42,1.63-.18,2.05.53,3.27,5.56,9.24,9.37,15.2,9.69,6.48.36,12.72-3.62,14.21-9.04.22-.8,1.05-1.26,1.84-1.05.8.22,1.27,1.05,1.05,1.84-1.78,6.46-8.84,11.27-16.33,11.27Z"/><path class="cls-1" d="M234.5,167.43c-.54,0-1.06-.29-1.33-.81l-15.08-28.99c-1.16-2.24-2.37-4.55-4.21-6.15-1.51-1.31-3.91-2.25-5.88-1.39-2.3,1.01-3.1,4.07-2.68,6.44.5,2.85,2.37,5.48,4.02,7.8,1.86,2.62,3.96,5.69,6,8.66,2.02,2.96,4.12,6.02,5.96,8.62.48.67.32,1.61-.35,2.09s-1.61.32-2.09-.35c-1.86-2.62-3.96-5.69-6-8.66-2.02-2.96-4.12-6.02-5.96-8.62-1.83-2.58-3.91-5.5-4.53-9.01-.63-3.58.69-8.06,4.43-9.71,2.78-1.22,6.34-.49,9.05,1.87,2.27,1.97,3.67,4.66,4.9,7.03l15.08,28.99c.38.74.1,1.64-.64,2.02-.22.11-.46.17-.69.17Z"/><path class="cls-1" d="M242.07,167.78c-.06,0-.11,0-.17,0-.82-.09-1.42-.83-1.32-1.66.79-7.08,1.37-25.83.43-37.96-.06-.83.55-1.55,1.38-1.61.82-.09,1.55.55,1.61,1.38.95,12.3.36,31.33-.44,38.52-.09.77-.73,1.33-1.49,1.33Z"/><path class="cls-1" d="M254.31,168.91c-.08,0-.17,0-.25-.02-.82-.14-1.37-.91-1.23-1.73,2.37-14.14,6.28-29.43,10.21-39.9.29-.77,1.16-1.17,1.93-.88.78.29,1.17,1.16.88,1.93-3.87,10.3-7.73,25.38-10.06,39.34-.12.73-.76,1.25-1.48,1.25Z"/><path class="cls-1" d="M253.5,135.88c-2.34,0-4.74-.39-6.53-1.13-3.14-1.29-5.13-3.42-5.92-6.32-.22-.8.26-1.62,1.05-1.84.8-.22,1.62.26,1.84,1.05.55,2.01,1.87,3.39,4.16,4.33,2.26.93,6.07,1.18,8.67.55,3.25-.78,5.52-2.53,6.05-4.68.35-1.4-.12-2.75-1.32-3.8-.81-.71-2.15-1.15-3.97-1.3-4.06-.34-6.25,1.46-6.73,2.75-.27.72-.07,1.32.61,1.82.69.51,1.56.44,2.16.21.59-.23.99-.65,1.07-1.11.15-.82.94-1.35,1.75-1.2.81.15,1.35.94,1.2,1.75-.28,1.49-1.37,2.74-2.93,3.35-1.71.67-3.64.45-5.04-.58-1.75-1.29-2.37-3.31-1.63-5.28.96-2.56,4.43-5.13,9.79-4.69,2.51.21,4.38.87,5.71,2.04,2.05,1.8,2.88,4.27,2.26,6.78-.81,3.27-3.9,5.84-8.27,6.88-1.21.29-2.58.43-3.98.43Z"/><path class="cls-1" d="M266.46,163.08c-.32,0-.65-.1-.92-.32-.65-.51-.77-1.45-.26-2.11,7.48-9.57,18.91-17.02,33.04-21.54,12.02-3.84,25.39-5.41,37.63-4.4.83.07,1.44.79,1.37,1.62-.07.82-.79,1.42-1.62,1.37-31.59-2.59-56.95,10.59-68.06,24.8-.3.38-.74.58-1.18.58Z"/><path class="cls-1" d="M257.34,168.76c-.17,0-.35-.03-.52-.09-.78-.29-1.17-1.15-.88-1.93,11.62-31.1,38.84-53.3,60.66-61.5.77-.29,1.64.1,1.93.88.29.78-.1,1.64-.88,1.93-25.06,9.42-49.29,33.98-58.91,59.74-.23.6-.8.98-1.41.98Z"/><path class="cls-1" d="M288.07,109.63c-.22,0-.45-.05-.66-.15-.74-.37-1.05-1.26-.69-2.01,7.06-14.39,18.69-26.55,32.75-34.25.73-.4,1.64-.13,2.04.59.4.73.13,1.64-.59,2.04-13.52,7.41-24.7,19.1-31.49,32.94-.26.53-.79.84-1.35.84Z"/><path class="cls-1" d="M310.89,152.71c-1.23,0-2.52-.3-3.72-.89-1.49-.73-2.75-1.84-3.68-3.21-1.27,1.71-3.17,2.94-5.29,3.3-3.35.58-6.89-1.09-8.59-4.03-.42-.72-.17-1.63.55-2.05.72-.42,1.63-.17,2.05.55,1.07,1.85,3.38,2.94,5.5,2.58,2.11-.36,3.93-2.15,4.33-4.25.13-.69.73-1.2,1.43-1.22.01,0,.03,0,.04,0,.69,0,1.29.47,1.46,1.14.49,2,1.78,3.64,3.53,4.5,1.06.52,2.18.7,3.15.52.99-.19,1.85-.79,2.24-1.57.37-.74,1.28-1.03,2.02-.66.74.37,1.04,1.28.66,2.02-.82,1.62-2.45,2.8-4.37,3.16-.42.08-.86.12-1.3.12Z"/><path class="cls-1" d="M317.26,149.18c-1.12,0-2.13-.21-3.03-.63-1.65-.77-2.82-2.26-3.04-3.91-.27-2.01.96-4,2.8-4.53.8-.23,1.63.23,1.86,1.03.23.8-.23,1.63-1.03,1.86-.41.12-.73.72-.66,1.24.09.63.61,1.26,1.33,1.59.72.33,1.67.43,2.75.27.77-.11,1.64-.9,2.02-1.85.15-.37.21-.69.17-.92-.02-.14-.09-.24-.12-.27-.74-.37-1.05-1.26-.68-2.01.37-.74,1.27-1.05,2.01-.68.94.46,1.59,1.4,1.76,2.51.12.77,0,1.6-.35,2.48-.65,1.62-2.25,3.4-4.38,3.7-.49.07-.96.1-1.41.1Z"/><path class="cls-1" d="M329.67,151.29c-.57,0-1.15-.06-1.73-.19-1.64-.36-3.25-1.21-4.79-2.53-.63-.54-.7-1.49-.16-2.12.54-.63,1.49-.7,2.12-.16,1.15.99,2.32,1.62,3.47,1.87,1.23.27,2.48.07,3.35-.54.86-.6,1.37-1.68,1.2-2.58-.14-.78-.78-1.51-1.61-1.86-.84-.35-1.89-.35-2.9,0-.78.27-1.64-.15-1.91-.93-.27-.78.15-1.64.93-1.91,1.72-.59,3.5-.57,5.03.07,1.77.74,3.08,2.31,3.4,4.09.38,2.07-.6,4.31-2.44,5.59-1.13.78-2.52,1.19-3.98,1.19Z"/><path class="cls-1" d="M343.42,147.23c-1.3,0-2.67-.4-3.98-1.17-1.2-.71-2.2-1.6-3.28-2.61-.61-.56-.64-1.51-.07-2.12.56-.61,1.51-.64,2.12-.07.98.92,1.81,1.66,2.75,2.21.68.4,1.71.85,2.78.74.83-.08,1.58-.55,1.87-1.17.29-.62.2-1.54-.24-2.45-.75-1.54-2.24-2.73-3.9-3.11-.81-.19-1.31-.99-1.12-1.8.19-.81.99-1.31,1.8-1.12,2.56.59,4.78,2.36,5.93,4.73.84,1.74.94,3.57.27,5.02-.74,1.59-2.39,2.7-4.3,2.89-.2.02-.4.03-.61.03Z"/><path class="cls-1" d="M349.21,139.37c-.65,0-1.28-.19-1.8-.55-.68-.47-.85-1.41-.38-2.09.47-.68,1.4-.85,2.09-.38.02.01.09.03.21,0,.16-.04.32-.15.39-.26.19-.34.06-.93-.27-1.31-.4-.45-1.09-.75-1.9-.82-.91-.08-1.87.09-2.79.28l-.42.09c-.97.2-1.98.41-3.05.44-.66.03-1.24-.38-1.46-1-.22-.61-.01-1.3.5-1.69.2-.19.26-1.09-.02-1.52-.32-.48-1.02-.82-1.81-.84-.94-.03-1.94.3-2.79.64-1.86.73-3.62,1.71-5.23,2.89-.67.49-1.61.35-2.1-.32-.49-.67-.35-1.61.32-2.1,1.82-1.33,3.8-2.43,5.9-3.26,1.07-.42,2.49-.9,4-.84,1.78.07,3.35.89,4.21,2.2.45.68.68,1.6.67,2.52.08-.02.15-.03.23-.05l.43-.09c1.08-.22,2.35-.45,3.66-.32,1.58.15,2.96.79,3.87,1.82,1.17,1.33,1.45,3.27.66,4.72-.47.86-1.34,1.52-2.33,1.76-.27.07-.54.1-.81.1Z"/><path class="cls-1" d="M314.72,137.13c-.32,0-.64-.1-.91-.31-.66-.5-.79-1.44-.29-2.1,2.54-3.34,5.83-6.17,9.52-8.17,1.42-.77,3.32-1.65,5.39-1.51,2.11.13,4.49,1.53,4.93,3.97.15.82-.39,1.6-1.21,1.75-.81.15-1.6-.39-1.74-1.21-.16-.87-1.24-1.46-2.16-1.52-1.31-.06-2.71.58-3.77,1.16-3.32,1.8-6.28,4.34-8.56,7.35-.29.39-.74.59-1.2.59Z"/><path class="cls-1" d="M303.49,137.66c-.17,0-.35-.03-.52-.09-.78-.29-1.17-1.15-.88-1.93,1.63-4.39,5.27-7.89,9.72-9.35.81-.27,1.88-.55,3.02-.33,1.42.26,2.57,1.3,2.85,2.58.18.81-.33,1.61-1.14,1.79-.81.18-1.61-.33-1.79-1.14-.01-.06-.2-.23-.47-.28-.47-.09-1.07.08-1.54.23-3.54,1.16-6.55,4.05-7.84,7.54-.22.6-.8.98-1.41.98Z"/><path class="cls-1" d="M297.15,139.32s-.07,0-.11,0c-.83-.06-1.45-.77-1.39-1.6.14-2.04,1.23-3.96,2.9-5.13,1.67-1.18,3.84-1.54,5.81-.99.8.23,1.26,1.05,1.04,1.85-.23.8-1.06,1.26-1.85,1.04-1.09-.31-2.34-.09-3.27.56-.93.65-1.55,1.76-1.63,2.89-.06.79-.71,1.4-1.5,1.4Z"/><path class="cls-1" d="M301.44,125.72c-.94,0-1.88-.07-2.81-.21-.82-.12-1.38-.89-1.26-1.71.12-.82.89-1.39,1.71-1.26,2.86.43,5.78.07,8.45-1.04.9-.37,2.01-.99,2.2-1.83.13-.56-.22-1.28-.82-1.67-.64-.42-1.57-.55-2.54-.35-1.08.22-2.12.79-3,1.31-.71.43-1.63.2-2.06-.51-.43-.71-.2-1.63.51-2.06,1.09-.66,2.42-1.38,3.95-1.68,1.77-.35,3.47-.08,4.78.79,1.64,1.08,2.5,3.07,2.1,4.85-.38,1.68-1.72,3-3.97,3.93-2.3.96-4.76,1.44-7.24,1.44Z"/><path class="cls-1" d="M287.35,137.04c-2.36,0-4.55-1.7-4.87-3.91-.12-.82.45-1.58,1.27-1.7.82-.12,1.58.45,1.7,1.27.12.8,1.17,1.44,2.15,1.32,1.06-.15,2.11-1.02,2.74-2.27.67-1.34.87-2.93,1.02-4.45.07-.69.6-1.24,1.28-1.34.69-.09,1.35.29,1.6.93.5,1.25,1.89,1.91,3.39,1.59,1.52-.32,2.95-1.5,3.93-3.24.41-.72,1.32-.98,2.04-.57.72.41.98,1.32.57,2.04-1.4,2.5-3.57,4.22-5.94,4.71-1.59.33-3.14.07-4.39-.65-.19.79-.46,1.57-.83,2.32-1.08,2.15-2.95,3.61-5,3.9-.23.03-.45.05-.67.05Z"/><path class="cls-1" d="M314.87,119.6c-.64,0-1.24-.05-1.73-.1-.82-.09-1.42-.83-1.33-1.66.09-.82.83-1.42,1.66-1.33,1.53.17,2.66.09,3.56-.25.97-.37,1.69-1.12,1.83-1.91.11-.63-.19-1.36-.7-1.74-.52-.38-1.3-.44-1.87-.15-.74.38-1.64.09-2.02-.65-.38-.74-.09-1.64.65-2.02,1.57-.81,3.59-.65,5.02.4,1.43,1.05,2.18,2.93,1.88,4.67-.32,1.84-1.74,3.45-3.71,4.2-1.09.42-2.22.54-3.23.54Z"/><path class="cls-1" d="M324.36,115.44c-1.02,0-2-.12-2.93-.23-.82-.1-1.41-.85-1.31-1.67s.85-1.4,1.67-1.31c1.46.18,2.97.37,4.29,0,.95-.26,2.04-1,2.19-2.02.1-.7-.3-1.53-.98-2.07-.88-.68-2.03-.85-2.84-.88-1.17-.03-2.42.19-3.63.41-.81.14-1.6-.39-1.74-1.21-.15-.82.39-1.6,1.21-1.74,1.36-.25,2.77-.5,4.25-.45,1.81.06,3.4.58,4.59,1.51,1.53,1.19,2.36,3.09,2.11,4.85-.33,2.38-2.43,3.97-4.37,4.5-.84.23-1.69.31-2.52.31Z"/><path class="cls-1" d="M325.74,106.76c-.5,0-.99-.25-1.27-.7-.44-.7-.23-1.63.47-2.07.84-.53,1.71-1.11,2.25-1.84.46-.62.65-1.36.47-1.88-.2-.59-.96-1.06-1.76-1.09-.84-.04-1.79.29-2.83.97-1.47.97-2.65,2.32-3.41,3.91-.36.75-1.26,1.06-2,.7-.75-.36-1.06-1.26-.7-2,1-2.07,2.54-3.83,4.46-5.1,1.57-1.04,3.13-1.54,4.62-1.46,2.05.09,3.84,1.34,4.46,3.11.51,1.48.18,3.22-.9,4.66-.85,1.15-2.03,1.93-3.06,2.58-.25.16-.52.23-.8.23Z"/><path class="cls-1" d="M306.86,109c-.8,0-1.47-.63-1.5-1.44-.11-2.72.85-5.46,2.63-7.51,1.07-1.24,2.27-2.01,3.55-2.28,1.64-.35,3.39.17,4.58,1.35,1.19,1.18,1.72,2.94,1.38,4.58-.17.81-.96,1.33-1.77,1.17-.81-.17-1.33-.96-1.17-1.77.13-.64-.09-1.38-.56-1.84s-1.21-.68-1.85-.54c-.78.16-1.46.8-1.9,1.31-1.29,1.49-1.98,3.46-1.9,5.43.03.83-.61,1.53-1.44,1.56-.02,0-.04,0-.06,0Z"/><path class="cls-1" d="M296.06,115.66h-.02c-.83,0-1.49-.69-1.48-1.52.03-2.54.56-4.69,1.58-6.4,1.33-2.23,3.59-3.71,5.91-3.85.93-.06,1.75.11,2.42.5,1,.58,1.6,1.65,1.53,2.72-.05.83-.76,1.46-1.59,1.4-.79-.05-1.4-.71-1.4-1.49-.14-.1-.35-.17-.77-.14-1.34.08-2.69,1-3.52,2.4-.75,1.25-1.13,2.9-1.16,4.9,0,.82-.68,1.48-1.5,1.48Z"/><path class="cls-1" d="M288.8,123.22c-.68,0-1.3-.47-1.46-1.16-.67-2.88-.46-5.99.6-8.75.69-1.82,1.63-3.12,2.85-3.97,1.71-1.18,3.98-1.25,5.52-.18.68.47.85,1.41.37,2.09-.47.68-1.41.85-2.09.37-.52-.36-1.42-.28-2.1.19-.7.48-1.29,1.34-1.75,2.56-.84,2.21-1.01,4.7-.48,7.01.19.81-.32,1.61-1.12,1.8-.11.03-.23.04-.34.04Z"/><path class="cls-1" d="M280.61,130.24c-.67,0-1.28-.45-1.45-1.12-.36-1.37-.81-3.44-.61-5.57.21-2.22,1.09-4.18,2.5-5.52,1.71-1.63,4.15-2.24,6.22-1.55.79.26,1.21,1.11.95,1.9-.26.79-1.11,1.21-1.9.95-1.02-.34-2.3,0-3.2.87-.88.84-1.44,2.13-1.58,3.62-.12,1.28.04,2.68.53,4.54.21.8-.27,1.62-1.07,1.83-.13.03-.25.05-.38.05Z"/><path class="cls-1" d="M301.68,99.39c-.17,0-.34,0-.51-.02-1.8-.13-3.23-1.01-3.82-2.34-.33-.76,0-1.64.77-1.98.76-.33,1.64,0,1.98.77.12.28.67.52,1.29.56,1.38.09,2.78-.48,3.69-1.52.9-1.04,1.28-2.52.99-3.86-.17-.81.34-1.61,1.15-1.78.81-.17,1.61.34,1.78,1.15.48,2.25-.16,4.72-1.66,6.46-1.4,1.61-3.53,2.56-5.66,2.56Z"/><path class="cls-1" d="M308.75,92.93c-1.43,0-2.85-.58-3.79-1.67-.54-.62-.48-1.57.15-2.12.62-.54,1.57-.48,2.12.15.55.63,1.61.82,2.43.44.84-.39,1.45-1.37,1.5-2.38.04-1.02-.45-2.12-1.3-2.87-.62-.55-.68-1.5-.12-2.12.55-.62,1.5-.68,2.12-.12,1.53,1.35,2.39,3.32,2.3,5.24-.09,2.14-1.36,4.09-3.22,4.96-.69.32-1.44.48-2.18.48Z"/><path class="cls-1" d="M314.4,88.2c-.77,0-1.42-.58-1.49-1.36-.08-.83.53-1.55,1.36-1.63.97-.09,1.91-.77,2.29-1.67.38-.89.23-2.05-.38-2.81-.52-.65-.41-1.59.24-2.11.65-.51,1.59-.41,2.11.24,1.3,1.64,1.61,3.94.79,5.86-.82,1.92-2.7,3.29-4.78,3.48-.05,0-.09,0-.14,0Z"/><path class="cls-1" d="M321.19,83.01c-.75,0-1.5-.15-2.21-.44-.76-.32-1.12-1.2-.8-1.96.32-.76,1.21-1.12,1.97-.8.83.35,1.87.24,2.61-.28.73-.52,1.19-1.46,1.15-2.36-.05-.9-.61-1.79-1.39-2.22-.73-.4-.99-1.31-.59-2.04.4-.73,1.31-.99,2.04-.59,1.71.94,2.83,2.74,2.94,4.69.1,1.95-.82,3.85-2.42,4.98-.97.68-2.13,1.03-3.29,1.03Z"/><path class="cls-1" d="M311.7,73.97c-.69,0-1.31-.47-1.46-1.17-.28-1.25-.54-2.74-.34-4.25.23-1.79,1.1-3.33,2.38-4.24,2.03-1.44,5.1-1.12,6.98.72,1.64,1.6,2.3,4.11,1.73,6.54-.19.81-1,1.31-1.8,1.12-.81-.19-1.31-1-1.12-1.8.33-1.39-.03-2.85-.91-3.71-.85-.83-2.29-1.02-3.15-.41-.59.42-1.01,1.23-1.14,2.17-.14,1.05.06,2.16.3,3.21.18.81-.33,1.61-1.14,1.79-.11.02-.22.04-.33.04Z"/><path class="cls-1" d="M302.18,84.17c-.7,0-1.32-.49-1.47-1.2-.39-1.9-.7-3.95-.4-6.05.35-2.45,1.55-4.54,3.3-5.74,2.19-1.51,5.14-1.45,7.01.15.63.54.7,1.49.17,2.11-.54.63-1.49.71-2.12.17-.83-.71-2.3-.69-3.36.04-1.06.73-1.8,2.08-2.03,3.7-.23,1.65.04,3.39.37,5.02.16.81-.36,1.6-1.17,1.77-.1.02-.2.03-.3.03Z"/><path class="cls-1" d="M295.57,90.7c-.73,0-1.37-.54-1.48-1.28-.19-1.31-.39-2.67-.31-4.1.09-1.73.61-3.25,1.49-4.41,1.13-1.49,2.89-2.35,4.6-2.2.83.06,1.44.78,1.38,1.61-.06.83-.79,1.46-1.61,1.38-.7-.05-1.47.35-1.99,1.03-.65.85-.84,1.96-.88,2.75-.06,1.13.12,2.34.29,3.51.12.82-.45,1.58-1.27,1.7-.07.01-.15.02-.22.02Z"/><path class="cls-1" d="M291.7,98.69c-.24,0-.49-.06-.72-.18-2.39-1.3-3.85-4.1-3.57-6.8.29-2.7,2.31-5.13,4.92-5.9.79-.24,1.63.22,1.86,1.01.23.79-.22,1.63-1.01,1.86-1.45.43-2.62,1.83-2.79,3.34-.16,1.51.69,3.13,2.02,3.85.73.4,1,1.31.6,2.04-.27.5-.79.78-1.32.78Z"/><path class="cls-1" d="M324.49,73.32c-.66,0-1.26-.43-1.44-1.09-.22-.8.24-1.63,1.04-1.85.86-.24,1.6-.98,1.85-1.83.25-.86.02-1.88-.57-2.54-.59-.66-1.58-1.01-2.46-.86-.59.1-1.23.42-1.9.95-.65.51-1.59.4-2.11-.25-.51-.65-.4-1.59.25-2.11,1.07-.84,2.16-1.37,3.26-1.56,1.89-.32,3.93.39,5.21,1.82,1.28,1.43,1.75,3.54,1.22,5.38-.54,1.84-2.08,3.36-3.92,3.88-.14.04-.27.06-.41.06Z"/><ellipse class="cls-1" cx="211.88" cy="137.58" rx="2.3" ry="3.03" transform="translate(-35.61 86.91) rotate(-21.43)"/><path class="cls-1" d="M253.71,188.66c-12.4,0-24.74-2.59-36.12-7.62-.51-.22-.73-.81-.51-1.32.22-.51.81-.74,1.32-.51,13.63,6.03,28.69,8.47,43.53,7.06.55-.08,1.04.35,1.09.9s-.35,1.04-.9,1.09c-2.8.27-5.61.4-8.41.4Z"/><path class="cls-1" d="M250.54,198.74s-.03,0-.04,0c-12.83-.51-23.15-1.7-34.89-6.08-.52-.19-.78-.77-.59-1.29s.77-.78,1.29-.59c11.49,4.28,21.63,5.45,34.27,5.95.55.02.98.49.96,1.04-.02.54-.46.96-1,.96Z"/><path class="cls-1" d="M248.98,212.4c-7.6,0-15.16-.95-22.58-2.85-.54-.14-.86-.68-.72-1.22.14-.54.68-.86,1.22-.72,10.49,2.68,21.28,3.43,32.04,2.23.55-.06,1.04.33,1.1.88.06.55-.33,1.04-.88,1.11-3.39.38-6.79.57-10.18.57Z"/><path class="cls-1" d="M218.39,219.92s-.1,0-.15-.01c-.55-.08-.92-.59-.84-1.14,2.7-18.08,4.22-31.67,5.09-45.47.03-.55.51-.95,1.06-.94.55.04.97.51.94,1.06-.87,13.85-2.4,27.5-5.11,45.64-.07.5-.5.85-.99.85Z"/><path class="cls-1" d="M229.76,221.99s-.07,0-.1,0c-.55-.05-.95-.54-.9-1.09l.68-6.91c1.4-14.15,2.41-24.37,2.88-37.75.02-.55.46-1.01,1.03-.96.55.02.98.48.96,1.03-.47,13.44-1.49,23.69-2.89,37.88l-.68,6.91c-.05.52-.49.9-.99.9Z"/><path class="cls-1" d="M240.47,219.52s-.05,0-.07,0c-.55-.04-.97-.52-.93-1.07.33-4.75.6-8.83.85-12.59.61-9.19,1.09-16.45,1.92-26.66.04-.55.51-.96,1.08-.92.55.04.96.53.92,1.08-.83,10.19-1.31,17.45-1.92,26.63-.25,3.76-.52,7.84-.85,12.59-.04.53-.48.93-1,.93Z"/><path class="cls-1" d="M251.7,217.47h-.01c-.55,0-.99-.46-.99-1.01.05-4.1.09-7.62.13-10.86.08-7.93.15-14.19.39-23.01.02-.55.45-.99,1.03-.97.55.02.99.48.97,1.03-.24,8.8-.31,15.05-.39,22.97-.03,3.24-.07,6.76-.12,10.86,0,.55-.45.99-1,.99Z"/><path class="cls-1" d="M272.97,164.81l11.52-11.49s7.92,3.12,8.47,3.95-.61,3.62-2.06,4.31c-1.44.7-14.86,4.7-14.86,4.7l-3.07-1.47Z"/><polygon class="cls-1" points="257.34 166.28 264.99 151.22 257.85 150.73 254.3 167.69 257.34 166.28"/><polygon class="cls-1" points="241.85 167.21 242.92 150.45 228.14 153.32 234.5 165.93 241.85 167.21"/><path class="cls-1" d="M333.53,206.93s1.75,2.48,1.72,4.46-1.82,5.86-1.82,5.86c0,0-6.25,5.54-15.38,5.67-9.14.13-14.71-6.03-14.71-6.03l-1.23-8.31s7.83,8.1,13.12,8.51c5.29.41,11.09-2.04,12.64-2.56,1.55-.52,5.65-7.61,5.65-7.61Z"/><polygon class="cls-1" points="125.62 118.01 125.62 124.16 105.3 148.54 105.3 122.81 125.62 118.01"/><polygon class="cls-1" points="22.96 67.49 68.89 72.79 68.89 65.07 22.96 61.24 22.96 67.49"/></g></svg>