<?xml version="1.0" encoding="UTF-8"?><svg id="_レイヤー_2" xmlns="http://www.w3.org/2000/svg" viewBox="0 0 370 192"><defs><style>.cls-1{stroke-width:0px;}</style></defs><g id="_アウトライン済み"><path class="cls-1" d="M285.55,172.22c-14.65,0-23.87-5.29-27.5-15.82-7.53-21.83-3.7-49.33,10.01-71.78.43-.71,1.35-.93,2.06-.5s.93,1.35.5,2.06c-13.25,21.71-16.98,48.24-9.73,69.24,6.56,18.99,32.95,13.63,41.63,11.87,18.09-3.67,52.32-13.22,56.83-16.3,4.94-3.37,7.25-5.47,7.12-10.19-.02-.83.63-1.52,1.46-1.54.82-.07,1.52.63,1.54,1.46.18,6.37-3.38,9.3-8.43,12.75-5.6,3.82-42.28,13.59-57.92,16.76-6.52,1.33-12.38,1.99-17.56,1.99h-.01Z"/><path class="cls-1" d="M366.98,135.53c-.69,0-1.3-.47-1.46-1.17-7.27-32.07-25.83-51.92-36.25-60.9-.63-.54-.7-1.49-.16-2.12.54-.63,1.49-.7,2.12-.16,10.7,9.22,29.76,29.6,37.22,62.51.18.81-.32,1.61-1.13,1.79-.11.03-.22.04-.33.04h-.01Z"/><path class="cls-1" d="M269.35,86.9c-.43,0-.86-.18-1.16-.54-.91-1.09-2.77-2.87-4.58-4.59-1.95-1.86-3.8-3.62-4.82-4.85-.31-.37-.42-.86-.3-1.33.12-.46.45-.84.9-1.02,36.05-14.45,69.34-13.84,72.41-12.23.49.26.8.77.8,1.33,0,1.51-.22,3.05-.44,4.54-.21,1.45-.41,2.82-.41,4.12,0,.83-.67,1.5-1.5,1.5s-1.5-.67-1.5-1.5c0-1.51.22-3.05.44-4.55.15-1.03.29-2.02.36-2.97-5.83-.85-34.91-.66-67.01,11.74.92.92,2.04,1.99,3.14,3.04,1.95,1.86,3.8,3.62,4.82,4.85.53.64.44,1.58-.2,2.11-.28.23-.62.34-.96.34h.01Z"/><path class="cls-1" d="M281.8,165.97c-.31,0-.63-.1-.9-.3-.66-.5-.8-1.44-.3-2.1,4.43-5.93,6.83-14.2,6.76-23.27-.06-7.2-1.51-14.83-4.71-24.75-1.24-3.84-2.59-7.76-3.89-11.54-1.45-4.2-2.95-8.55-4.28-12.76-.25-.79.19-1.63.98-1.88s1.63.19,1.88.98c1.32,4.18,2.82,8.51,4.26,12.69,1.31,3.8,2.66,7.73,3.91,11.6,2.22,6.88,4.78,16.01,4.85,25.65.08,9.72-2.54,18.63-7.36,25.08-.29.39-.75.6-1.2.6h0Z"/><path class="cls-1" d="M299.83,136.71c-.7,0-1.32-.49-1.47-1.19l-.04-.17c-2.16-10.34-4.39-21.03-8.72-29.56-.22-.42-.22-.92,0-1.35.21-.43.61-.72,1.08-.81,19.66-3.46,34.67-6.75,48.66-10.64.61-.17,1.26.06,1.63.58,5.69,8.05,10.59,17.51,14.17,27.35.28.78-.12,1.64-.9,1.92s-1.64-.12-1.92-.9c-3.31-9.11-7.98-18.22-13.2-25.78-13.33,3.67-27.63,6.81-45.97,10.08,3.78,8.18,5.88,17.84,7.86,27.28,11.28-1.71,22.92-4.65,34.19-7.5,4.29-1.08,8.72-2.21,13.01-3.22.81-.2,1.61.31,1.81,1.11s-.31,1.61-1.11,1.81c-4.27,1.01-8.69,2.13-12.97,3.22-11.81,2.99-24.02,6.07-35.89,7.77-.07,0-.14,0-.21,0h-.01Z"/><path class="cls-1" d="M269.35,86.9c-.55,0-1.08-.3-1.34-.82-.37-.74-.08-1.64.66-2.01,11.51-5.81,27.85-9.73,42.63-10.22.83-.07,1.52.62,1.55,1.45.03.83-.62,1.52-1.45,1.55-14.37.48-30.23,4.27-41.38,9.9-.22.11-.45.16-.67.16h0Z"/><path class="cls-1" d="M196.79,191.87c-.43,0-.87-.03-1.29-.08-3.63-.44-8.82-2.95-12.88-12.43-2.38-5.55-12.44-34.87-22.16-63.23l-.06-.16c-8.07-23.53-15.69-45.75-17.27-49.53-3.32-7.97-4.86-10.81-12.52-12.39-5.19-1.07-12.82-.77-18.31-.33-.83.06-1.55-.55-1.62-1.38s.55-1.55,1.38-1.62c5.69-.46,13.62-.76,19.16.38,9.19,1.9,11.25,5.94,14.68,14.18,1.61,3.86,9.25,26.13,17.33,49.71l.06.16c9.71,28.3,19.75,57.57,22.08,63.02,3.5,8.17,7.63,10.29,10.48,10.63.29.04.61.06.93.06,3.06,0,5.93-1.75,8.51-5.19,4.24-5.65,9.32-19.83,14.59-35.11l.07-.21c.86-2.49,1.63-4.71,2.26-6.48,2.77-7.7,6.09-9.3,11.22-11.03,10.68-3.59,21.51-5.86,21.97-5.95.81-.17,1.61.35,1.78,1.16.17.81-.35,1.6-1.16,1.77h0c-.45.09-11.11,2.33-21.62,5.86-4.52,1.52-6.99,2.62-9.36,9.2-.63,1.76-1.39,3.97-2.25,6.45l-.07.21c-5.35,15.51-10.52,29.93-15.02,35.93-3.96,5.28-8.12,6.39-10.91,6.39h0Z"/><path class="cls-1" d="M196.79,183.87c-.11,0-.23,0-.34-.02-2.14-.26-4.5-3.04-6.47-7.63-2.26-5.27-12.71-35.73-21.92-62.6-8.52-24.83-15.85-46.21-17.53-50.24-3.79-9.1-6.92-14.8-18.28-17.15-5.19-1.07-12.26-1.22-21.03-.44-.82.07-1.55-.54-1.63-1.36s.54-1.55,1.36-1.63c9.06-.81,16.43-.64,21.9.49,12.75,2.64,16.52,9.51,20.44,18.93,1.71,4.12,9.06,25.54,17.57,50.35,9.23,26.9,19.66,57.3,21.87,62.47,1.96,4.56,3.72,5.77,4.09,5.84.12-.03.94-.46,2.09-1.99,3.84-5.11,9.84-22.51,13.42-32.91.9-2.62,1.71-4.95,2.37-6.79,3.95-10.98,10.17-13.88,16.2-15.91,11.53-3.88,25.19-6.7,25.33-6.73.81-.16,1.6.36,1.77,1.17s-.36,1.6-1.17,1.77c-.13.03-13.62,2.81-24.98,6.63-5.77,1.94-10.83,4.34-14.33,14.08-.66,1.83-1.46,4.15-2.36,6.75-3.65,10.57-9.74,28.25-13.86,33.74-1.11,1.48-2.77,3.19-4.52,3.19h.01Z"/><path class="cls-1" d="M68.43,63.99c-.77,0-1.42-.59-1.49-1.37-.07-.83.54-1.55,1.36-1.63l37.98-3.4c1.12-.99,4.86-4.62,4.38-8.92-.48-4.25-3.33-6.05-4.22-6.51l-39.73,1.63c-3.69,1.54-4.83,5.28-5.18,7.39-.65,3.95.53,6.06,3.08,8.8.57.61.53,1.55-.07,2.12-.61.56-1.55.53-2.12-.07-3-3.21-4.69-6.23-3.85-11.33.78-4.75,3.44-8.31,7.28-9.79.15-.06.31-.09.48-.1l40.35-1.66c.21-.02.42.03.62.11.23.09,5.58,2.31,6.34,9.08.76,6.72-5.57,11.69-5.84,11.9-.23.17-.5.28-.78.31l-38.44,3.44h-.15Z"/><path class="cls-1" d="M71.06,62.38c-.24,0-.48-.06-.7-.17-.73-.39-1.01-1.29-.62-2.03,1.42-2.68,2-5.85,1.59-8.69-.14-.97-.88-2.74-1.31-3.14-.71-.3-1.09-1.09-.85-1.84.25-.79,1.1-1.22,1.89-.97,2.12.68,3.12,4.75,3.23,5.52.5,3.46-.2,7.29-1.91,10.52-.27.51-.79.8-1.33.8h.01ZM70.14,48.4h0Z"/><path class="cls-1" d="M12.84,52.51c-.77,0-1.43-.59-1.49-1.38-.07-.83.54-1.55,1.37-1.62l37.54-3.15c.77-.72,2.82-3.06,2.31-7.11-.56-4.45-2.78-6.01-3.51-6.41l-40,2.13c-3.13,1.09-5.21,3.49-5.47,6.29-.25,2.8.69,5.52,2.88,8.3.51.65.4,1.59-.25,2.11-.65.51-1.59.4-2.11-.25-2.69-3.4-3.84-6.81-3.52-10.41.37-4.08,3.32-7.5,7.7-8.94.13-.04.26-.07.39-.07l40.58-2.16c.2-.01.4.02.58.09.2.07,4.79,1.79,5.69,8.96.84,6.68-3.61,10.01-3.8,10.15-.22.16-.49.26-.76.28l-38.01,3.19h-.13,0Z"/><path class="cls-1" d="M12.85,51.68c-.36,0-.72-.13-1-.39-.62-.55-.67-1.5-.11-2.12,1.11-1.23,1.68-3.39,1.42-5.38-.25-1.88-1.28-3.59-2.51-4.16-.75-.35-1.08-1.24-.73-1.99s1.24-1.07,1.99-.73c2.17,1.01,3.83,3.56,4.21,6.49.38,2.85-.47,5.91-2.16,7.78-.3.33-.7.5-1.11.5Z"/><path class="cls-1" d="M162.96,79.99c-.65,0-1.24-.42-1.44-1.07-.24-.79.22-1.63,1.01-1.87l127.9-38.04c.49-.15,1.02-.03,1.41.3.39.33.58.84.5,1.35l-3.93,27.11c-.12.82-.88,1.38-1.7,1.27-.82-.12-1.39-.88-1.27-1.7l3.6-24.78-125.65,37.37c-.14.04-.29.06-.43.06h0Z"/><path class="cls-1" d="M290.86,41.95c-.2,0-.41-.04-.61-.13l-49.75-22.07c-.76-.34-1.1-1.22-.76-1.98.33-.76,1.22-1.1,1.98-.76l49.75,22.07c.76.34,1.1,1.22.76,1.98-.25.56-.8.89-1.37.89h0Z"/><path class="cls-1" d="M148.4,79.88c-.22,0-.44-.05-.65-.15l-40.6-19.51c-.75-.36-1.06-1.26-.7-2,.36-.75,1.25-1.06,2-.7l40.6,19.51c.75.36,1.06,1.26.7,2-.26.54-.79.85-1.35.85Z"/><path class="cls-1" d="M165.74,149.11c-.22,0-.44-.05-.65-.15l-42.99-20.65c-.75-.36-1.06-1.26-.7-2s1.25-1.06,2-.7l42.99,20.65c.75.36,1.06,1.26.7,2-.26.54-.79.85-1.35.85h0Z"/><path class="cls-1" d="M182.95,149.51c-.63,0-1.21-.39-1.42-1.02-.27-.78.16-1.64.94-1.9l33.73-11.42c.79-.26,1.64.16,1.9.94.27.78-.16,1.64-.94,1.9l-33.73,11.42c-.16.05-.32.08-.48.08Z"/><path class="cls-1" d="M106.81,34.74c-.16,0-.31-.02-.47-.08-.79-.26-1.22-1.11-.96-1.89,1.66-5.05,5.2-9.54,9.72-12.33,4.12-2.54,9.14-3.71,13.97-3.31.97-3.72,3.47-6.83,7-8.68,3.38-1.77,7.48-2.05,11.09-.83,1.4-3.9,4.43-6.57,8.34-7.26,4.59-.82,8.83.5,11.38,3.48,2.4-.99,5.16-1.11,7.62-.28,2.88.96,5.32,3.21,6.52,6,.33.76-.03,1.64-.79,1.97s-1.64-.03-1.97-.79c-.87-2.02-2.63-3.64-4.71-4.34s-4.47-.46-6.38.63c-.69.4-1.57.18-2.01-.49-2.07-3.21-6.07-3.77-9.13-3.23-3.28.58-5.62,3.01-6.43,6.66-.1.45-.4.83-.82,1.03-.41.2-.9.2-1.31,0-3.11-1.53-6.94-1.48-10.01.12-3.12,1.63-5.21,4.51-5.72,7.89-.12.82-.89,1.38-1.71,1.26-4.56-.69-9.43.31-13.36,2.73s-7.01,6.32-8.44,10.71c-.21.63-.79,1.03-1.42,1.03Z"/><path class="cls-1" d="M216.68,29.64c-.69,0-1.31-.47-1.46-1.17-.04-.16-.04-.32-.03-.48-1.11-1.29-2.67-2.23-4.32-2.59-2.02-.44-4.84.07-6.56,1.18-.48.31-1.09.32-1.58.03-.49-.29-.77-.84-.72-1.41.33-4.02-1.86-8.26-5.33-10.3-3.47-2.05-8.24-1.92-11.6.31-.69.46-1.62.27-2.08-.42-.46-.69-.27-1.62.42-2.08,4.35-2.89,10.29-3.05,14.78-.4,3.78,2.23,6.32,6.32,6.77,10.66,2.1-.73,4.54-.94,6.55-.51,2.81.61,5.31,2.35,6.86,4.77.26.41.31.92.13,1.38-.18.45-.58.79-1.05.9l-.43.1c-.11.02-.22.04-.33.04h-.02Z"/><path class="cls-1" d="M265.82,38.43c-.48,0-.95-.23-1.24-.66-2.71-4.02-8.11-6.14-12.83-5.03-.74.17-1.48-.23-1.75-.93-.96-2.55-2.77-4.55-5.12-5.64-2.41-1.12-5.23-1.26-7.73-.38-.57.2-1.2.04-1.6-.4-2.82-3.08-6.54-4.86-10.19-4.89h-.11c-3.86,0-7.74,1.67-10.4,4.47-.57.6-1.52.63-2.12.06-.6-.57-.63-1.52-.06-2.12,3.24-3.42,7.97-5.41,12.71-5.41,4.19.03,8.41,1.91,11.71,5.17,2.99-.81,6.24-.54,9.06.78,2.69,1.25,4.84,3.41,6.16,6.14,5.63-.8,11.55,1.76,14.75,6.5.46.69.28,1.62-.4,2.08-.26.17-.55.26-.84.26h0Z"/><path class="cls-1" d="M169.49,35.48c-.27,0-.54-.02-.82-.07-2-.36-3.46-1.68-3.71-3.39-.23-1.57.66-3.06,2.32-3.9h0c1.65-.83,3.78-.5,5.07.78,1.22,1.22,1.51,2.96.74,4.44-.7,1.35-2.06,2.13-3.6,2.13h0ZM168.18,29.91h0c-.89.45-1.34,1.12-1.24,1.82.1.68.78,1.48,2.08,1.71,1.19.21,1.98-.42,2.29-1.01.37-.71.23-1.5-.38-2.1-.68-.68-1.87-.86-2.75-.41h0Z"/><path class="cls-1" d="M237.93,42.61c-.49,0-1.02-.08-1.57-.26-1.9-.59-3.72-2.14-3.47-3.69.21-1.35,1.66-1.98,4.3-2,.82,0,1.54.16,2.15.46.25.12.48.28.69.45,1,.84,1.35,2.24.83,3.31-.54,1.12-1.61,1.73-2.93,1.73ZM234.89,39.01c.16.41,1.25,1.34,2.59,1.56,1.21.2,1.49-.37,1.58-.56.12-.24-.03-.67-.31-.91-.09-.07-.19-.14-.3-.19-.33-.16-.77-.25-1.27-.25,0,0-.07,0-.1,0-1.5,0-2.04.25-2.19.35h0Z"/><path class="cls-1" d="M182.95,125.89c-.54,0-.99-.43-1-.98s.43-1.01.98-1.02l13.51-.26c.57.01,1.01.43,1.02.98,0,.55-.43,1.01-.98,1.02l-13.51.26h-.02Z"/><path class="cls-1" d="M194.4,132.25h-10.64c-.55,0-1-.45-1-1s.45-1,1-1h10.64c.55,0,1,.45,1,1s-.45,1-1,1Z"/><path class="cls-1" d="M53.75,45.95c-.82,0-1.49-.66-1.5-1.48,0-.83.66-1.51,1.48-1.52l9.08-.09c.86,0,1.51.66,1.52,1.48s-.66,1.51-1.48,1.52l-9.08.09s-.02,0-.02,0Z"/><path class="cls-1" d="M137.53,170.4c-.63,0-1.26-.04-1.87-.12-5.33-.69-9.61-4.12-11.73-9.43-2.3-5.75-23.92-64.78-36.59-99.46-.28-.78.12-1.64.89-1.92s1.64.12,1.92.89c10.2,27.91,34.19,93.45,36.56,99.38,1.71,4.26,5.11,7.02,9.33,7.57.49.06.99.09,1.49.09,3.94,0,7.76-1.99,10.22-5.32,4.34-5.87,10.32-16.34,10.99-17.52l2.61,1.48c-.68,1.19-6.74,11.81-11.18,17.82-3.03,4.09-7.75,6.54-12.63,6.54h-.01Z"/><path class="cls-1" d="M137.53,162.4c-.28,0-.57-.02-.85-.05-1.4-.18-3.94-1-5.33-4.46-2.18-5.46-23.18-62.8-35.5-96.49-.28-.78.12-1.64.89-1.92.78-.28,1.64.12,1.92.89,12.32,33.68,33.3,90.98,35.47,96.41.62,1.56,1.61,2.43,2.92,2.6,1.54.2,3.18-.59,4.26-2.05,4-5.41,9.73-15.43,10.37-16.56l2.62,1.47c-.66,1.16-6.47,11.32-10.57,16.88-1.54,2.08-3.85,3.29-6.2,3.29h0Z"/><path class="cls-1" d="M87.38,42.94c-.35,0-.7-.12-.98-.37-3.56-3.1-8.11-4.81-12.81-4.81h-.19l-19.63.19c-.8.02-1.51-.66-1.51-1.49s.66-1.51,1.49-1.51l19.84-.19c5.42,0,10.67,1.97,14.78,5.55.62.54.69,1.49.15,2.12-.3.34-.71.51-1.13.51h-.01Z"/><path class="cls-1" d="M242.67,122.83h-.12c-.83-.07-1.44-.79-1.37-1.62,1.4-16.98,11.58-30.76,25.32-34.29.8-.21,1.62.28,1.83,1.08s-.28,1.62-1.08,1.83c-12.31,3.16-21.79,16.16-23.07,31.63-.06.78-.72,1.38-1.49,1.38h-.02Z"/><path class="cls-1" d="M260.27,160.78c-.25,0-.51-.06-.74-.2-10.02-5.7-16.84-17.05-18.25-30.36-.09-.82.51-1.56,1.33-1.65.83-.09,1.56.51,1.65,1.33,1.29,12.17,7.71,22.92,16.75,28.07.72.41.97,1.33.56,2.05-.28.49-.78.76-1.31.76h0Z"/><path class="cls-1" d="M213.49,148.72c-.28,0-.55-.08-.8-.23-2.93-1.86-5.61-4.26-7.94-7.13-.52-.64-.43-1.59.21-2.11.64-.53,1.59-.43,2.11.21,2.13,2.62,4.57,4.8,7.23,6.49.7.44.91,1.37.46,2.07-.29.45-.77.7-1.27.7h0Z"/><path class="cls-1" d="M227.59,152.92c-2.42,0-4.83-.33-7.16-.97-.8-.22-1.27-1.05-1.05-1.84.22-.8,1.05-1.27,1.85-1.05,2.07.57,4.21.86,6.36.86,6.5,0,12.65-2.59,17.79-7.5.6-.57,1.55-.55,2.12.05.57.6.55,1.55-.05,2.12-5.71,5.45-12.58,8.33-19.86,8.33h0Z"/><ellipse class="cls-1" cx="207.98" cy="43.64" rx="2.97" ry="2.72"/><ellipse class="cls-1" cx="168" cy="58.66" rx="1.84" ry="2.09" transform="translate(33.2 174.82) rotate(-60)"/></g></svg>